M48
; DRILL file {KiCad 5.1.5-52549c5~84~ubuntu18.04.1} date Fri 07 Feb 2020 04:49:57 PM EST
; FORMAT={-:-/ absolute / inch / decimal}
; #@! TF.CreationDate,2020-02-07T16:49:57-05:00
; #@! TF.GenerationSoftware,Kicad,Pcbnew,5.1.5-52549c5~84~ubuntu18.04.1
; #@! TF.FileFunction,Plated,1,2,PTH
FMAT,2
INCH
T1C0.0157
T2C0.0374
T3C0.0400
T4C0.0500
T5C0.0512
T6C0.1285
%
G90
G05
T1
X4.205Y-4.88
X4.7775Y-4.81
X5.305Y-4.505
X5.305Y-4.86
X5.3467Y-2.3608
X5.42Y-4.6075
X5.435Y-2.36
X5.465Y-4.415
X5.68Y-4.609
X5.688Y-4.963
X5.8656Y-2.5442
X5.935Y-2.2284
X5.95Y-4.005
X6.0Y-4.505
X6.0Y-4.86
X6.0265Y-3.189
X6.0265Y-3.3915
X6.065Y-4.21
X6.0765Y-3.8285
X6.11Y-2.24
X6.11Y-2.3675
X6.1225Y-4.6075
X6.165Y-4.42
X6.19Y-2.24
X6.19Y-2.37
X6.26Y-2.73
X6.265Y-2.9
X6.271Y-3.2935
X6.295Y-3.1175
X6.3Y-3.019
X6.3Y-3.245
X6.306Y-2.855
X6.325Y-3.4
X6.3475Y-2.795
X6.351Y-4.953
X6.356Y-2.1996
X6.3656Y-2.4412
X6.3778Y-4.6074
X6.4035Y-3.61
X6.428Y-3.124
X6.43Y-3.2525
X6.47Y-3.2935
X6.5475Y-2.795
X6.555Y-2.885
X6.5975Y-2.9875
X6.5975Y-3.135
X6.695Y-3.575
X6.6975Y-4.505
X6.7Y-4.86
X6.7364Y-2.7284
X6.75Y-3.5675
X6.773Y-3.3015
X6.778Y-3.194
X6.779Y-3.126
X6.795Y-3.4175
X6.795Y-3.605
X6.81Y-3.09
X6.97Y-4.05
X7.005Y-3.32
X7.0125Y-3.24
X7.05Y-4.96
X7.073Y-4.602
X7.085Y-4.05
X7.2Y-4.05
T2
X4.8876Y-2.25
X4.986Y-2.25
X5.0844Y-2.25
X5.1829Y-2.25
X5.2813Y-2.25
X5.3797Y-2.25
X5.4781Y-2.25
X5.5766Y-2.25
X5.675Y-2.25
X5.2813Y-3.25
X5.3797Y-3.25
X5.4781Y-3.25
X5.5766Y-3.25
X5.675Y-3.25
T3
X5.995Y-2.77
X5.995Y-2.87
X5.995Y-2.97
X6.095Y-2.77
X6.095Y-2.87
X6.095Y-2.97
T4
X4.322Y-4.605
X4.458Y-4.305
X4.322Y-3.8475
X4.458Y-3.5475
T5
X6.5081Y-5.165
X6.705Y-5.165
X6.9019Y-5.165
X5.1681Y-5.165
X5.365Y-5.165
X5.5619Y-5.165
X4.6966Y-5.165
X4.8934Y-5.165
X5.8381Y-5.165
X6.035Y-5.165
X6.2319Y-5.165
T6
X4.35Y-2.24
X4.35Y-5.165
X7.26Y-2.24
X7.26Y-5.165
T0
M30
