G04 #@! TF.GenerationSoftware,KiCad,Pcbnew,5.1.5-52549c5~84~ubuntu18.04.1*
G04 #@! TF.CreationDate,2020-02-07T16:49:07-05:00*
G04 #@! TF.ProjectId,solenoidTrigger,736f6c65-6e6f-4696-9454-726967676572,rev?*
G04 #@! TF.SameCoordinates,Original*
G04 #@! TF.FileFunction,Paste,Top*
G04 #@! TF.FilePolarity,Positive*
%FSLAX46Y46*%
G04 Gerber Fmt 4.6, Leading zero omitted, Abs format (unit mm)*
G04 Created by KiCad (PCBNEW 5.1.5-52549c5~84~ubuntu18.04.1) date 2020-02-07 16:49:07*
%MOMM*%
%LPD*%
G04 APERTURE LIST*
%ADD10R,0.787400X0.711200*%
%ADD11R,0.700000X1.300000*%
%ADD12R,1.200000X1.200000*%
%ADD13R,1.300000X0.700000*%
%ADD14R,1.000000X1.250000*%
%ADD15R,1.250000X1.000000*%
%ADD16R,0.939800X1.701800*%
%ADD17R,6.654800X7.721600*%
%ADD18R,1.600000X0.550000*%
%ADD19R,0.550000X1.600000*%
G04 APERTURE END LIST*
D10*
X181356000Y-110617000D03*
X181356000Y-111887000D03*
X181356000Y-113157000D03*
X181356000Y-114427000D03*
X175768000Y-114427000D03*
X175768000Y-113157000D03*
X175768000Y-111887000D03*
X175768000Y-110617000D03*
X181356000Y-119570500D03*
X181356000Y-120840500D03*
X181356000Y-122110500D03*
X181356000Y-123380500D03*
X175768000Y-123380500D03*
X175768000Y-122110500D03*
X175768000Y-120840500D03*
X175768000Y-119570500D03*
D11*
X171516000Y-114427000D03*
X173416000Y-114427000D03*
X171516000Y-123380500D03*
X173416000Y-123380500D03*
D12*
X174622000Y-117030500D03*
X177422000Y-117030500D03*
D13*
X121348500Y-113731000D03*
X121348500Y-115631000D03*
D12*
X121348500Y-120480000D03*
X121348500Y-118280000D03*
X151130000Y-97960000D03*
X151130000Y-100160000D03*
D11*
X136083000Y-114427000D03*
X137983000Y-114427000D03*
D12*
X141798500Y-117030500D03*
X138998500Y-117030500D03*
X159642000Y-117030500D03*
X156842000Y-117030500D03*
D14*
X156702000Y-86233000D03*
X154702000Y-86233000D03*
D10*
X157988000Y-110617000D03*
X157988000Y-111887000D03*
X157988000Y-113157000D03*
X157988000Y-114427000D03*
X163576000Y-114427000D03*
X163576000Y-113157000D03*
X163576000Y-111887000D03*
X163576000Y-110617000D03*
X145796000Y-110617000D03*
X145796000Y-111887000D03*
X145796000Y-113157000D03*
X145796000Y-114427000D03*
X140208000Y-114427000D03*
X140208000Y-113157000D03*
X140208000Y-111887000D03*
X140208000Y-110617000D03*
X157988000Y-119570500D03*
X157988000Y-120840500D03*
X157988000Y-122110500D03*
X157988000Y-123380500D03*
X163576000Y-123380500D03*
X163576000Y-122110500D03*
X163576000Y-120840500D03*
X163576000Y-119570500D03*
X140208000Y-119570500D03*
X140208000Y-120840500D03*
X140208000Y-122110500D03*
X140208000Y-123380500D03*
X145796000Y-123380500D03*
X145796000Y-122110500D03*
X145796000Y-120840500D03*
X145796000Y-119570500D03*
D15*
X154355800Y-95662500D03*
X154355800Y-93662500D03*
X154051000Y-105378000D03*
X154051000Y-103378000D03*
D14*
X174333660Y-84322920D03*
X176333660Y-84322920D03*
X174530000Y-78486000D03*
X176530000Y-78486000D03*
X156702000Y-81026000D03*
X154702000Y-81026000D03*
D12*
X108437500Y-123952000D03*
X110637500Y-123952000D03*
X177038000Y-99103000D03*
X177038000Y-101303000D03*
X179975501Y-101320499D03*
X179975501Y-99120499D03*
X182880000Y-99103000D03*
X182880000Y-101303000D03*
D11*
X137985500Y-123380500D03*
X136085500Y-123380500D03*
X155636000Y-123380500D03*
X153736000Y-123380500D03*
X153736000Y-114427000D03*
X155636000Y-114427000D03*
D13*
X174117000Y-92776000D03*
X174117000Y-94676000D03*
D11*
X155768000Y-83629500D03*
X157668000Y-83629500D03*
X114996000Y-123952000D03*
X113096000Y-123952000D03*
D13*
X151130000Y-95565000D03*
X151130000Y-93665000D03*
X177038000Y-92776000D03*
X177038000Y-94676000D03*
X179959000Y-94676000D03*
X179959000Y-92776000D03*
X182880000Y-92776000D03*
X182880000Y-94676000D03*
D16*
X162651001Y-93649800D03*
X158150999Y-93649800D03*
D17*
X160401000Y-99758500D03*
D18*
X170112000Y-84842000D03*
X170112000Y-84042000D03*
X170112000Y-83242000D03*
X170112000Y-82442000D03*
X170112000Y-81642000D03*
X170112000Y-80842000D03*
X170112000Y-80042000D03*
X170112000Y-79242000D03*
D19*
X168662000Y-77792000D03*
X167862000Y-77792000D03*
X167062000Y-77792000D03*
X166262000Y-77792000D03*
X165462000Y-77792000D03*
X164662000Y-77792000D03*
X163862000Y-77792000D03*
X163062000Y-77792000D03*
D18*
X161612000Y-79242000D03*
X161612000Y-80042000D03*
X161612000Y-80842000D03*
X161612000Y-81642000D03*
X161612000Y-82442000D03*
X161612000Y-83242000D03*
X161612000Y-84042000D03*
X161612000Y-84842000D03*
D19*
X163062000Y-86292000D03*
X163862000Y-86292000D03*
X164662000Y-86292000D03*
X165462000Y-86292000D03*
X166262000Y-86292000D03*
X167062000Y-86292000D03*
X167862000Y-86292000D03*
X168662000Y-86292000D03*
M02*
