G04 #@! TF.GenerationSoftware,KiCad,Pcbnew,5.1.5-52549c5~84~ubuntu18.04.1*
G04 #@! TF.CreationDate,2020-02-07T16:49:07-05:00*
G04 #@! TF.ProjectId,solenoidTrigger,736f6c65-6e6f-4696-9454-726967676572,rev?*
G04 #@! TF.SameCoordinates,Original*
G04 #@! TF.FileFunction,Copper,L2,Bot*
G04 #@! TF.FilePolarity,Positive*
%FSLAX46Y46*%
G04 Gerber Fmt 4.6, Leading zero omitted, Abs format (unit mm)*
G04 Created by KiCad (PCBNEW 5.1.5-52549c5~84~ubuntu18.04.1) date 2020-02-07 16:49:07*
%MOMM*%
%LPD*%
G04 APERTURE LIST*
%ADD10C,1.800000*%
%ADD11O,1.700000X1.950000*%
%ADD12C,0.020000*%
%ADD13C,4.648200*%
%ADD14C,1.524000*%
%ADD15R,1.400000X1.400000*%
%ADD16C,1.400000*%
%ADD17C,0.800000*%
%ADD18C,0.508000*%
%ADD19C,0.381000*%
%ADD20C,0.254000*%
G04 APERTURE END LIST*
D10*
X175307000Y-131191000D03*
X165307000Y-131191000D03*
X170307000Y-131191000D03*
D11*
X134145000Y-82550000D03*
X136645000Y-82550000D03*
X139145000Y-82550000D03*
X141645000Y-82550000D03*
G04 #@! TA.AperFunction,ComponentPad*
D12*
G36*
X144769504Y-81576204D02*
G01*
X144793773Y-81579804D01*
X144817571Y-81585765D01*
X144840671Y-81594030D01*
X144862849Y-81604520D01*
X144883893Y-81617133D01*
X144903598Y-81631747D01*
X144921777Y-81648223D01*
X144938253Y-81666402D01*
X144952867Y-81686107D01*
X144965480Y-81707151D01*
X144975970Y-81729329D01*
X144984235Y-81752429D01*
X144990196Y-81776227D01*
X144993796Y-81800496D01*
X144995000Y-81825000D01*
X144995000Y-83275000D01*
X144993796Y-83299504D01*
X144990196Y-83323773D01*
X144984235Y-83347571D01*
X144975970Y-83370671D01*
X144965480Y-83392849D01*
X144952867Y-83413893D01*
X144938253Y-83433598D01*
X144921777Y-83451777D01*
X144903598Y-83468253D01*
X144883893Y-83482867D01*
X144862849Y-83495480D01*
X144840671Y-83505970D01*
X144817571Y-83514235D01*
X144793773Y-83520196D01*
X144769504Y-83523796D01*
X144745000Y-83525000D01*
X143545000Y-83525000D01*
X143520496Y-83523796D01*
X143496227Y-83520196D01*
X143472429Y-83514235D01*
X143449329Y-83505970D01*
X143427151Y-83495480D01*
X143406107Y-83482867D01*
X143386402Y-83468253D01*
X143368223Y-83451777D01*
X143351747Y-83433598D01*
X143337133Y-83413893D01*
X143324520Y-83392849D01*
X143314030Y-83370671D01*
X143305765Y-83347571D01*
X143299804Y-83323773D01*
X143296204Y-83299504D01*
X143295000Y-83275000D01*
X143295000Y-81825000D01*
X143296204Y-81800496D01*
X143299804Y-81776227D01*
X143305765Y-81752429D01*
X143314030Y-81729329D01*
X143324520Y-81707151D01*
X143337133Y-81686107D01*
X143351747Y-81666402D01*
X143368223Y-81648223D01*
X143386402Y-81631747D01*
X143406107Y-81617133D01*
X143427151Y-81604520D01*
X143449329Y-81594030D01*
X143472429Y-81585765D01*
X143496227Y-81579804D01*
X143520496Y-81576204D01*
X143545000Y-81575000D01*
X144745000Y-81575000D01*
X144769504Y-81576204D01*
G37*
G04 #@! TD.AperFunction*
D10*
X141271000Y-131191000D03*
X131271000Y-131191000D03*
X136271000Y-131191000D03*
D11*
X124145000Y-57150000D03*
X126645000Y-57150000D03*
X129145000Y-57150000D03*
X131645000Y-57150000D03*
X134145000Y-57150000D03*
X136645000Y-57150000D03*
X139145000Y-57150000D03*
X141645000Y-57150000D03*
G04 #@! TA.AperFunction,ComponentPad*
D12*
G36*
X144769504Y-56176204D02*
G01*
X144793773Y-56179804D01*
X144817571Y-56185765D01*
X144840671Y-56194030D01*
X144862849Y-56204520D01*
X144883893Y-56217133D01*
X144903598Y-56231747D01*
X144921777Y-56248223D01*
X144938253Y-56266402D01*
X144952867Y-56286107D01*
X144965480Y-56307151D01*
X144975970Y-56329329D01*
X144984235Y-56352429D01*
X144990196Y-56376227D01*
X144993796Y-56400496D01*
X144995000Y-56425000D01*
X144995000Y-57875000D01*
X144993796Y-57899504D01*
X144990196Y-57923773D01*
X144984235Y-57947571D01*
X144975970Y-57970671D01*
X144965480Y-57992849D01*
X144952867Y-58013893D01*
X144938253Y-58033598D01*
X144921777Y-58051777D01*
X144903598Y-58068253D01*
X144883893Y-58082867D01*
X144862849Y-58095480D01*
X144840671Y-58105970D01*
X144817571Y-58114235D01*
X144793773Y-58120196D01*
X144769504Y-58123796D01*
X144745000Y-58125000D01*
X143545000Y-58125000D01*
X143520496Y-58123796D01*
X143496227Y-58120196D01*
X143472429Y-58114235D01*
X143449329Y-58105970D01*
X143427151Y-58095480D01*
X143406107Y-58082867D01*
X143386402Y-58068253D01*
X143368223Y-58051777D01*
X143351747Y-58033598D01*
X143337133Y-58013893D01*
X143324520Y-57992849D01*
X143314030Y-57970671D01*
X143305765Y-57947571D01*
X143299804Y-57923773D01*
X143296204Y-57899504D01*
X143295000Y-57875000D01*
X143295000Y-56425000D01*
X143296204Y-56400496D01*
X143299804Y-56376227D01*
X143305765Y-56352429D01*
X143314030Y-56329329D01*
X143324520Y-56307151D01*
X143337133Y-56286107D01*
X143351747Y-56266402D01*
X143368223Y-56248223D01*
X143386402Y-56231747D01*
X143406107Y-56217133D01*
X143427151Y-56204520D01*
X143449329Y-56194030D01*
X143472429Y-56185765D01*
X143496227Y-56179804D01*
X143520496Y-56176204D01*
X143545000Y-56175000D01*
X144745000Y-56175000D01*
X144769504Y-56176204D01*
G37*
G04 #@! TD.AperFunction*
D13*
X184404000Y-131191000D03*
X184404000Y-56896000D03*
X110490000Y-56896000D03*
X110490000Y-131191000D03*
D14*
X113233200Y-109347000D03*
X109778800Y-116967000D03*
X109778800Y-97726500D03*
X113233200Y-90106500D03*
D15*
X152273000Y-70358000D03*
D16*
X154813000Y-70358000D03*
X152273000Y-72898000D03*
X154813000Y-72898000D03*
X152273000Y-75438000D03*
X154813000Y-75438000D03*
D10*
X158289000Y-131191000D03*
X148289000Y-131191000D03*
X153289000Y-131191000D03*
X119293000Y-131191000D03*
X124293000Y-131191000D03*
D17*
X121348500Y-122174000D03*
X160020000Y-82423000D03*
X153073100Y-86144100D03*
X153073100Y-81000600D03*
X172974000Y-78486000D03*
X172186600Y-79400400D03*
X178117500Y-82296000D03*
X177927000Y-84328000D03*
X154051000Y-106934000D03*
X154343100Y-97243900D03*
X151130000Y-101727000D03*
X137668000Y-117030500D03*
X152400000Y-123444000D03*
X152400000Y-114427000D03*
X106807000Y-123952000D03*
X177038000Y-102870000D03*
X182880000Y-102870000D03*
X179959000Y-102870000D03*
X134747000Y-114427000D03*
X134747000Y-123444000D03*
X162648900Y-91694000D03*
X172034200Y-83858100D03*
X172161200Y-81127600D03*
X166497000Y-73279000D03*
X159004000Y-69342000D03*
X160172400Y-72517000D03*
X159131000Y-73660000D03*
X160655000Y-86360000D03*
X170053000Y-90805000D03*
X172593000Y-91567000D03*
X138811000Y-112141000D03*
X156591000Y-112268000D03*
X155511500Y-117030500D03*
X170180000Y-123444000D03*
X170116500Y-114427000D03*
X148986240Y-64622680D03*
X171104560Y-69301360D03*
X161442400Y-55869840D03*
X161686240Y-62006480D03*
X150749000Y-56601360D03*
X161996120Y-117027960D03*
X144272000Y-117068600D03*
X144475200Y-126060200D03*
X161315400Y-125806200D03*
X179070000Y-125984000D03*
X179654200Y-116890800D03*
X159283400Y-83654900D03*
X164338000Y-83654900D03*
X167576500Y-79629000D03*
X167576500Y-75882500D03*
X166306500Y-70993000D03*
X161226500Y-70993000D03*
X172593000Y-86804500D03*
X171450000Y-90614500D03*
X163271200Y-79349600D03*
X160020000Y-76682600D03*
X155194000Y-60134500D03*
X155194000Y-56896000D03*
X159893000Y-79184500D03*
X163322000Y-82613500D03*
X138049000Y-59944000D03*
X135807282Y-59963218D03*
X157226000Y-60198000D03*
X157226000Y-56896000D03*
D18*
X159283400Y-83654900D02*
X163614100Y-83654900D01*
X163614100Y-83654900D02*
X163614100Y-83654900D01*
X163614100Y-83654900D02*
X164338000Y-83654900D01*
D19*
X167576500Y-79629000D02*
X167576500Y-75882500D01*
X167576500Y-75882500D02*
X167576500Y-75882500D01*
X166306500Y-70993000D02*
X161226500Y-70993000D01*
X161226500Y-70993000D02*
X161226500Y-70993000D01*
D18*
X172593000Y-86804500D02*
X171450000Y-87947500D01*
X171450000Y-87947500D02*
X171450000Y-90614500D01*
X171450000Y-90614500D02*
X171450000Y-90614500D01*
D19*
X163271200Y-79349600D02*
X162705515Y-79349600D01*
X162705515Y-79349600D02*
X162687000Y-79349600D01*
X162687000Y-79349600D02*
X160020000Y-76682600D01*
X160020000Y-76682600D02*
X160020000Y-76682600D01*
X155194000Y-60134500D02*
X155194000Y-56896000D01*
X155194000Y-56896000D02*
X155194000Y-56896000D01*
D18*
X159893000Y-79184500D02*
X159911999Y-79165501D01*
D19*
X159893000Y-79184500D02*
X160292999Y-79584499D01*
X160292999Y-79584499D02*
X163322000Y-82613500D01*
X163322000Y-82613500D02*
X163322000Y-82613500D01*
X138049000Y-59944000D02*
X137483315Y-59944000D01*
X137483315Y-59944000D02*
X135826500Y-59944000D01*
X135826500Y-59944000D02*
X135807282Y-59963218D01*
X157226000Y-60198000D02*
X157226000Y-59632315D01*
X157226000Y-59632315D02*
X157226000Y-56896000D01*
X157226000Y-56896000D02*
X157226000Y-56896000D01*
D20*
G36*
X186298023Y-50336374D02*
G01*
X187154432Y-50541980D01*
X187968124Y-50879023D01*
X188719082Y-51339210D01*
X189388802Y-51911206D01*
X189960790Y-52580919D01*
X190420977Y-53331875D01*
X190758022Y-54145571D01*
X190963627Y-55001978D01*
X191035001Y-55908876D01*
X191035000Y-132051137D01*
X190963627Y-132958022D01*
X190758022Y-133814429D01*
X190420977Y-134628125D01*
X189960790Y-135379081D01*
X189388802Y-136048794D01*
X188719082Y-136620790D01*
X187968124Y-137080977D01*
X187154432Y-137418020D01*
X186298023Y-137623626D01*
X185391126Y-137695000D01*
X109248877Y-137695000D01*
X108341979Y-137623626D01*
X107485572Y-137418021D01*
X106671876Y-137080976D01*
X105920920Y-136620789D01*
X105251207Y-136048801D01*
X104679211Y-135379081D01*
X104219024Y-134628123D01*
X103881981Y-133814431D01*
X103676375Y-132958022D01*
X103605001Y-132051125D01*
X103605001Y-130899554D01*
X107530900Y-130899554D01*
X107530900Y-131482446D01*
X107644616Y-132054138D01*
X107867679Y-132592660D01*
X108191517Y-133077316D01*
X108603684Y-133489483D01*
X109088340Y-133813321D01*
X109626862Y-134036384D01*
X110198554Y-134150100D01*
X110781446Y-134150100D01*
X111353138Y-134036384D01*
X111891660Y-133813321D01*
X112376316Y-133489483D01*
X112788483Y-133077316D01*
X113112321Y-132592660D01*
X113335384Y-132054138D01*
X113449100Y-131482446D01*
X113449100Y-131039816D01*
X117758000Y-131039816D01*
X117758000Y-131342184D01*
X117816989Y-131638743D01*
X117932701Y-131918095D01*
X118100688Y-132169505D01*
X118314495Y-132383312D01*
X118565905Y-132551299D01*
X118845257Y-132667011D01*
X119141816Y-132726000D01*
X119444184Y-132726000D01*
X119740743Y-132667011D01*
X120020095Y-132551299D01*
X120271505Y-132383312D01*
X120399737Y-132255080D01*
X123408525Y-132255080D01*
X123492208Y-132509261D01*
X123764775Y-132640158D01*
X124057642Y-132715365D01*
X124359553Y-132731991D01*
X124658907Y-132689397D01*
X124944199Y-132589222D01*
X125093792Y-132509261D01*
X125177475Y-132255080D01*
X130386525Y-132255080D01*
X130470208Y-132509261D01*
X130742775Y-132640158D01*
X131035642Y-132715365D01*
X131337553Y-132731991D01*
X131636907Y-132689397D01*
X131922199Y-132589222D01*
X132071792Y-132509261D01*
X132155475Y-132255080D01*
X135386525Y-132255080D01*
X135470208Y-132509261D01*
X135742775Y-132640158D01*
X136035642Y-132715365D01*
X136337553Y-132731991D01*
X136636907Y-132689397D01*
X136922199Y-132589222D01*
X137071792Y-132509261D01*
X137155475Y-132255080D01*
X136271000Y-131370605D01*
X135386525Y-132255080D01*
X132155475Y-132255080D01*
X131271000Y-131370605D01*
X130386525Y-132255080D01*
X125177475Y-132255080D01*
X124293000Y-131370605D01*
X123408525Y-132255080D01*
X120399737Y-132255080D01*
X120485312Y-132169505D01*
X120653299Y-131918095D01*
X120769011Y-131638743D01*
X120828000Y-131342184D01*
X120828000Y-131257553D01*
X122752009Y-131257553D01*
X122794603Y-131556907D01*
X122894778Y-131842199D01*
X122974739Y-131991792D01*
X123228920Y-132075475D01*
X124113395Y-131191000D01*
X124472605Y-131191000D01*
X125357080Y-132075475D01*
X125611261Y-131991792D01*
X125742158Y-131719225D01*
X125817365Y-131426358D01*
X125826660Y-131257553D01*
X129730009Y-131257553D01*
X129772603Y-131556907D01*
X129872778Y-131842199D01*
X129952739Y-131991792D01*
X130206920Y-132075475D01*
X131091395Y-131191000D01*
X131450605Y-131191000D01*
X132335080Y-132075475D01*
X132589261Y-131991792D01*
X132720158Y-131719225D01*
X132795365Y-131426358D01*
X132804660Y-131257553D01*
X134730009Y-131257553D01*
X134772603Y-131556907D01*
X134872778Y-131842199D01*
X134952739Y-131991792D01*
X135206920Y-132075475D01*
X136091395Y-131191000D01*
X136450605Y-131191000D01*
X137335080Y-132075475D01*
X137589261Y-131991792D01*
X137720158Y-131719225D01*
X137795365Y-131426358D01*
X137811991Y-131124447D01*
X137799950Y-131039816D01*
X139736000Y-131039816D01*
X139736000Y-131342184D01*
X139794989Y-131638743D01*
X139910701Y-131918095D01*
X140078688Y-132169505D01*
X140292495Y-132383312D01*
X140543905Y-132551299D01*
X140823257Y-132667011D01*
X141119816Y-132726000D01*
X141422184Y-132726000D01*
X141718743Y-132667011D01*
X141998095Y-132551299D01*
X142249505Y-132383312D01*
X142377737Y-132255080D01*
X147404525Y-132255080D01*
X147488208Y-132509261D01*
X147760775Y-132640158D01*
X148053642Y-132715365D01*
X148355553Y-132731991D01*
X148654907Y-132689397D01*
X148940199Y-132589222D01*
X149089792Y-132509261D01*
X149173475Y-132255080D01*
X152404525Y-132255080D01*
X152488208Y-132509261D01*
X152760775Y-132640158D01*
X153053642Y-132715365D01*
X153355553Y-132731991D01*
X153654907Y-132689397D01*
X153940199Y-132589222D01*
X154089792Y-132509261D01*
X154173475Y-132255080D01*
X153289000Y-131370605D01*
X152404525Y-132255080D01*
X149173475Y-132255080D01*
X148289000Y-131370605D01*
X147404525Y-132255080D01*
X142377737Y-132255080D01*
X142463312Y-132169505D01*
X142631299Y-131918095D01*
X142747011Y-131638743D01*
X142806000Y-131342184D01*
X142806000Y-131257553D01*
X146748009Y-131257553D01*
X146790603Y-131556907D01*
X146890778Y-131842199D01*
X146970739Y-131991792D01*
X147224920Y-132075475D01*
X148109395Y-131191000D01*
X148468605Y-131191000D01*
X149353080Y-132075475D01*
X149607261Y-131991792D01*
X149738158Y-131719225D01*
X149813365Y-131426358D01*
X149822660Y-131257553D01*
X151748009Y-131257553D01*
X151790603Y-131556907D01*
X151890778Y-131842199D01*
X151970739Y-131991792D01*
X152224920Y-132075475D01*
X153109395Y-131191000D01*
X153468605Y-131191000D01*
X154353080Y-132075475D01*
X154607261Y-131991792D01*
X154738158Y-131719225D01*
X154813365Y-131426358D01*
X154829991Y-131124447D01*
X154817950Y-131039816D01*
X156754000Y-131039816D01*
X156754000Y-131342184D01*
X156812989Y-131638743D01*
X156928701Y-131918095D01*
X157096688Y-132169505D01*
X157310495Y-132383312D01*
X157561905Y-132551299D01*
X157841257Y-132667011D01*
X158137816Y-132726000D01*
X158440184Y-132726000D01*
X158736743Y-132667011D01*
X159016095Y-132551299D01*
X159267505Y-132383312D01*
X159395737Y-132255080D01*
X164422525Y-132255080D01*
X164506208Y-132509261D01*
X164778775Y-132640158D01*
X165071642Y-132715365D01*
X165373553Y-132731991D01*
X165672907Y-132689397D01*
X165958199Y-132589222D01*
X166107792Y-132509261D01*
X166191475Y-132255080D01*
X169422525Y-132255080D01*
X169506208Y-132509261D01*
X169778775Y-132640158D01*
X170071642Y-132715365D01*
X170373553Y-132731991D01*
X170672907Y-132689397D01*
X170958199Y-132589222D01*
X171107792Y-132509261D01*
X171191475Y-132255080D01*
X170307000Y-131370605D01*
X169422525Y-132255080D01*
X166191475Y-132255080D01*
X165307000Y-131370605D01*
X164422525Y-132255080D01*
X159395737Y-132255080D01*
X159481312Y-132169505D01*
X159649299Y-131918095D01*
X159765011Y-131638743D01*
X159824000Y-131342184D01*
X159824000Y-131257553D01*
X163766009Y-131257553D01*
X163808603Y-131556907D01*
X163908778Y-131842199D01*
X163988739Y-131991792D01*
X164242920Y-132075475D01*
X165127395Y-131191000D01*
X165486605Y-131191000D01*
X166371080Y-132075475D01*
X166625261Y-131991792D01*
X166756158Y-131719225D01*
X166831365Y-131426358D01*
X166840660Y-131257553D01*
X168766009Y-131257553D01*
X168808603Y-131556907D01*
X168908778Y-131842199D01*
X168988739Y-131991792D01*
X169242920Y-132075475D01*
X170127395Y-131191000D01*
X170486605Y-131191000D01*
X171371080Y-132075475D01*
X171625261Y-131991792D01*
X171756158Y-131719225D01*
X171831365Y-131426358D01*
X171847991Y-131124447D01*
X171835950Y-131039816D01*
X173772000Y-131039816D01*
X173772000Y-131342184D01*
X173830989Y-131638743D01*
X173946701Y-131918095D01*
X174114688Y-132169505D01*
X174328495Y-132383312D01*
X174579905Y-132551299D01*
X174859257Y-132667011D01*
X175155816Y-132726000D01*
X175458184Y-132726000D01*
X175754743Y-132667011D01*
X176034095Y-132551299D01*
X176285505Y-132383312D01*
X176499312Y-132169505D01*
X176667299Y-131918095D01*
X176783011Y-131638743D01*
X176842000Y-131342184D01*
X176842000Y-131039816D01*
X176814101Y-130899554D01*
X181444900Y-130899554D01*
X181444900Y-131482446D01*
X181558616Y-132054138D01*
X181781679Y-132592660D01*
X182105517Y-133077316D01*
X182517684Y-133489483D01*
X183002340Y-133813321D01*
X183540862Y-134036384D01*
X184112554Y-134150100D01*
X184695446Y-134150100D01*
X185267138Y-134036384D01*
X185805660Y-133813321D01*
X186290316Y-133489483D01*
X186702483Y-133077316D01*
X187026321Y-132592660D01*
X187249384Y-132054138D01*
X187363100Y-131482446D01*
X187363100Y-130899554D01*
X187249384Y-130327862D01*
X187026321Y-129789340D01*
X186702483Y-129304684D01*
X186290316Y-128892517D01*
X185805660Y-128568679D01*
X185267138Y-128345616D01*
X184695446Y-128231900D01*
X184112554Y-128231900D01*
X183540862Y-128345616D01*
X183002340Y-128568679D01*
X182517684Y-128892517D01*
X182105517Y-129304684D01*
X181781679Y-129789340D01*
X181558616Y-130327862D01*
X181444900Y-130899554D01*
X176814101Y-130899554D01*
X176783011Y-130743257D01*
X176667299Y-130463905D01*
X176499312Y-130212495D01*
X176285505Y-129998688D01*
X176034095Y-129830701D01*
X175754743Y-129714989D01*
X175458184Y-129656000D01*
X175155816Y-129656000D01*
X174859257Y-129714989D01*
X174579905Y-129830701D01*
X174328495Y-129998688D01*
X174114688Y-130212495D01*
X173946701Y-130463905D01*
X173830989Y-130743257D01*
X173772000Y-131039816D01*
X171835950Y-131039816D01*
X171805397Y-130825093D01*
X171705222Y-130539801D01*
X171625261Y-130390208D01*
X171371080Y-130306525D01*
X170486605Y-131191000D01*
X170127395Y-131191000D01*
X169242920Y-130306525D01*
X168988739Y-130390208D01*
X168857842Y-130662775D01*
X168782635Y-130955642D01*
X168766009Y-131257553D01*
X166840660Y-131257553D01*
X166847991Y-131124447D01*
X166805397Y-130825093D01*
X166705222Y-130539801D01*
X166625261Y-130390208D01*
X166371080Y-130306525D01*
X165486605Y-131191000D01*
X165127395Y-131191000D01*
X164242920Y-130306525D01*
X163988739Y-130390208D01*
X163857842Y-130662775D01*
X163782635Y-130955642D01*
X163766009Y-131257553D01*
X159824000Y-131257553D01*
X159824000Y-131039816D01*
X159765011Y-130743257D01*
X159649299Y-130463905D01*
X159481312Y-130212495D01*
X159395737Y-130126920D01*
X164422525Y-130126920D01*
X165307000Y-131011395D01*
X166191475Y-130126920D01*
X169422525Y-130126920D01*
X170307000Y-131011395D01*
X171191475Y-130126920D01*
X171107792Y-129872739D01*
X170835225Y-129741842D01*
X170542358Y-129666635D01*
X170240447Y-129650009D01*
X169941093Y-129692603D01*
X169655801Y-129792778D01*
X169506208Y-129872739D01*
X169422525Y-130126920D01*
X166191475Y-130126920D01*
X166107792Y-129872739D01*
X165835225Y-129741842D01*
X165542358Y-129666635D01*
X165240447Y-129650009D01*
X164941093Y-129692603D01*
X164655801Y-129792778D01*
X164506208Y-129872739D01*
X164422525Y-130126920D01*
X159395737Y-130126920D01*
X159267505Y-129998688D01*
X159016095Y-129830701D01*
X158736743Y-129714989D01*
X158440184Y-129656000D01*
X158137816Y-129656000D01*
X157841257Y-129714989D01*
X157561905Y-129830701D01*
X157310495Y-129998688D01*
X157096688Y-130212495D01*
X156928701Y-130463905D01*
X156812989Y-130743257D01*
X156754000Y-131039816D01*
X154817950Y-131039816D01*
X154787397Y-130825093D01*
X154687222Y-130539801D01*
X154607261Y-130390208D01*
X154353080Y-130306525D01*
X153468605Y-131191000D01*
X153109395Y-131191000D01*
X152224920Y-130306525D01*
X151970739Y-130390208D01*
X151839842Y-130662775D01*
X151764635Y-130955642D01*
X151748009Y-131257553D01*
X149822660Y-131257553D01*
X149829991Y-131124447D01*
X149787397Y-130825093D01*
X149687222Y-130539801D01*
X149607261Y-130390208D01*
X149353080Y-130306525D01*
X148468605Y-131191000D01*
X148109395Y-131191000D01*
X147224920Y-130306525D01*
X146970739Y-130390208D01*
X146839842Y-130662775D01*
X146764635Y-130955642D01*
X146748009Y-131257553D01*
X142806000Y-131257553D01*
X142806000Y-131039816D01*
X142747011Y-130743257D01*
X142631299Y-130463905D01*
X142463312Y-130212495D01*
X142377737Y-130126920D01*
X147404525Y-130126920D01*
X148289000Y-131011395D01*
X149173475Y-130126920D01*
X152404525Y-130126920D01*
X153289000Y-131011395D01*
X154173475Y-130126920D01*
X154089792Y-129872739D01*
X153817225Y-129741842D01*
X153524358Y-129666635D01*
X153222447Y-129650009D01*
X152923093Y-129692603D01*
X152637801Y-129792778D01*
X152488208Y-129872739D01*
X152404525Y-130126920D01*
X149173475Y-130126920D01*
X149089792Y-129872739D01*
X148817225Y-129741842D01*
X148524358Y-129666635D01*
X148222447Y-129650009D01*
X147923093Y-129692603D01*
X147637801Y-129792778D01*
X147488208Y-129872739D01*
X147404525Y-130126920D01*
X142377737Y-130126920D01*
X142249505Y-129998688D01*
X141998095Y-129830701D01*
X141718743Y-129714989D01*
X141422184Y-129656000D01*
X141119816Y-129656000D01*
X140823257Y-129714989D01*
X140543905Y-129830701D01*
X140292495Y-129998688D01*
X140078688Y-130212495D01*
X139910701Y-130463905D01*
X139794989Y-130743257D01*
X139736000Y-131039816D01*
X137799950Y-131039816D01*
X137769397Y-130825093D01*
X137669222Y-130539801D01*
X137589261Y-130390208D01*
X137335080Y-130306525D01*
X136450605Y-131191000D01*
X136091395Y-131191000D01*
X135206920Y-130306525D01*
X134952739Y-130390208D01*
X134821842Y-130662775D01*
X134746635Y-130955642D01*
X134730009Y-131257553D01*
X132804660Y-131257553D01*
X132811991Y-131124447D01*
X132769397Y-130825093D01*
X132669222Y-130539801D01*
X132589261Y-130390208D01*
X132335080Y-130306525D01*
X131450605Y-131191000D01*
X131091395Y-131191000D01*
X130206920Y-130306525D01*
X129952739Y-130390208D01*
X129821842Y-130662775D01*
X129746635Y-130955642D01*
X129730009Y-131257553D01*
X125826660Y-131257553D01*
X125833991Y-131124447D01*
X125791397Y-130825093D01*
X125691222Y-130539801D01*
X125611261Y-130390208D01*
X125357080Y-130306525D01*
X124472605Y-131191000D01*
X124113395Y-131191000D01*
X123228920Y-130306525D01*
X122974739Y-130390208D01*
X122843842Y-130662775D01*
X122768635Y-130955642D01*
X122752009Y-131257553D01*
X120828000Y-131257553D01*
X120828000Y-131039816D01*
X120769011Y-130743257D01*
X120653299Y-130463905D01*
X120485312Y-130212495D01*
X120399737Y-130126920D01*
X123408525Y-130126920D01*
X124293000Y-131011395D01*
X125177475Y-130126920D01*
X130386525Y-130126920D01*
X131271000Y-131011395D01*
X132155475Y-130126920D01*
X135386525Y-130126920D01*
X136271000Y-131011395D01*
X137155475Y-130126920D01*
X137071792Y-129872739D01*
X136799225Y-129741842D01*
X136506358Y-129666635D01*
X136204447Y-129650009D01*
X135905093Y-129692603D01*
X135619801Y-129792778D01*
X135470208Y-129872739D01*
X135386525Y-130126920D01*
X132155475Y-130126920D01*
X132071792Y-129872739D01*
X131799225Y-129741842D01*
X131506358Y-129666635D01*
X131204447Y-129650009D01*
X130905093Y-129692603D01*
X130619801Y-129792778D01*
X130470208Y-129872739D01*
X130386525Y-130126920D01*
X125177475Y-130126920D01*
X125093792Y-129872739D01*
X124821225Y-129741842D01*
X124528358Y-129666635D01*
X124226447Y-129650009D01*
X123927093Y-129692603D01*
X123641801Y-129792778D01*
X123492208Y-129872739D01*
X123408525Y-130126920D01*
X120399737Y-130126920D01*
X120271505Y-129998688D01*
X120020095Y-129830701D01*
X119740743Y-129714989D01*
X119444184Y-129656000D01*
X119141816Y-129656000D01*
X118845257Y-129714989D01*
X118565905Y-129830701D01*
X118314495Y-129998688D01*
X118100688Y-130212495D01*
X117932701Y-130463905D01*
X117816989Y-130743257D01*
X117758000Y-131039816D01*
X113449100Y-131039816D01*
X113449100Y-130899554D01*
X113335384Y-130327862D01*
X113112321Y-129789340D01*
X112788483Y-129304684D01*
X112376316Y-128892517D01*
X111891660Y-128568679D01*
X111353138Y-128345616D01*
X110781446Y-128231900D01*
X110198554Y-128231900D01*
X109626862Y-128345616D01*
X109088340Y-128568679D01*
X108603684Y-128892517D01*
X108191517Y-129304684D01*
X107867679Y-129789340D01*
X107644616Y-130327862D01*
X107530900Y-130899554D01*
X103605001Y-130899554D01*
X103605001Y-116829408D01*
X108381800Y-116829408D01*
X108381800Y-117104592D01*
X108435486Y-117374490D01*
X108540795Y-117628727D01*
X108693680Y-117857535D01*
X108888265Y-118052120D01*
X109117073Y-118205005D01*
X109371310Y-118310314D01*
X109641208Y-118364000D01*
X109916392Y-118364000D01*
X110186290Y-118310314D01*
X110440527Y-118205005D01*
X110669335Y-118052120D01*
X110863920Y-117857535D01*
X111016805Y-117628727D01*
X111122114Y-117374490D01*
X111175800Y-117104592D01*
X111175800Y-116829408D01*
X111122114Y-116559510D01*
X111016805Y-116305273D01*
X110863920Y-116076465D01*
X110669335Y-115881880D01*
X110440527Y-115728995D01*
X110186290Y-115623686D01*
X109916392Y-115570000D01*
X109641208Y-115570000D01*
X109371310Y-115623686D01*
X109117073Y-115728995D01*
X108888265Y-115881880D01*
X108693680Y-116076465D01*
X108540795Y-116305273D01*
X108435486Y-116559510D01*
X108381800Y-116829408D01*
X103605001Y-116829408D01*
X103605001Y-109209408D01*
X111836200Y-109209408D01*
X111836200Y-109484592D01*
X111889886Y-109754490D01*
X111995195Y-110008727D01*
X112148080Y-110237535D01*
X112342665Y-110432120D01*
X112571473Y-110585005D01*
X112825710Y-110690314D01*
X113095608Y-110744000D01*
X113370792Y-110744000D01*
X113640690Y-110690314D01*
X113894927Y-110585005D01*
X114123735Y-110432120D01*
X114318320Y-110237535D01*
X114471205Y-110008727D01*
X114576514Y-109754490D01*
X114630200Y-109484592D01*
X114630200Y-109209408D01*
X114576514Y-108939510D01*
X114471205Y-108685273D01*
X114318320Y-108456465D01*
X114123735Y-108261880D01*
X113894927Y-108108995D01*
X113640690Y-108003686D01*
X113370792Y-107950000D01*
X113095608Y-107950000D01*
X112825710Y-108003686D01*
X112571473Y-108108995D01*
X112342665Y-108261880D01*
X112148080Y-108456465D01*
X111995195Y-108685273D01*
X111889886Y-108939510D01*
X111836200Y-109209408D01*
X103605001Y-109209408D01*
X103605001Y-97588908D01*
X108381800Y-97588908D01*
X108381800Y-97864092D01*
X108435486Y-98133990D01*
X108540795Y-98388227D01*
X108693680Y-98617035D01*
X108888265Y-98811620D01*
X109117073Y-98964505D01*
X109371310Y-99069814D01*
X109641208Y-99123500D01*
X109916392Y-99123500D01*
X110186290Y-99069814D01*
X110440527Y-98964505D01*
X110669335Y-98811620D01*
X110863920Y-98617035D01*
X111016805Y-98388227D01*
X111122114Y-98133990D01*
X111175800Y-97864092D01*
X111175800Y-97588908D01*
X111122114Y-97319010D01*
X111016805Y-97064773D01*
X110863920Y-96835965D01*
X110669335Y-96641380D01*
X110440527Y-96488495D01*
X110186290Y-96383186D01*
X109916392Y-96329500D01*
X109641208Y-96329500D01*
X109371310Y-96383186D01*
X109117073Y-96488495D01*
X108888265Y-96641380D01*
X108693680Y-96835965D01*
X108540795Y-97064773D01*
X108435486Y-97319010D01*
X108381800Y-97588908D01*
X103605001Y-97588908D01*
X103605001Y-89968908D01*
X111836200Y-89968908D01*
X111836200Y-90244092D01*
X111889886Y-90513990D01*
X111995195Y-90768227D01*
X112148080Y-90997035D01*
X112342665Y-91191620D01*
X112571473Y-91344505D01*
X112825710Y-91449814D01*
X113095608Y-91503500D01*
X113370792Y-91503500D01*
X113640690Y-91449814D01*
X113894927Y-91344505D01*
X114123735Y-91191620D01*
X114318320Y-90997035D01*
X114471205Y-90768227D01*
X114576514Y-90513990D01*
X114576798Y-90512561D01*
X170415000Y-90512561D01*
X170415000Y-90716439D01*
X170454774Y-90916398D01*
X170532795Y-91104756D01*
X170646063Y-91274274D01*
X170790226Y-91418437D01*
X170959744Y-91531705D01*
X171148102Y-91609726D01*
X171348061Y-91649500D01*
X171551939Y-91649500D01*
X171751898Y-91609726D01*
X171940256Y-91531705D01*
X172109774Y-91418437D01*
X172253937Y-91274274D01*
X172367205Y-91104756D01*
X172445226Y-90916398D01*
X172485000Y-90716439D01*
X172485000Y-90512561D01*
X172445226Y-90312602D01*
X172367205Y-90124244D01*
X172339000Y-90082032D01*
X172339000Y-88315735D01*
X172845105Y-87809630D01*
X172894898Y-87799726D01*
X173083256Y-87721705D01*
X173252774Y-87608437D01*
X173396937Y-87464274D01*
X173510205Y-87294756D01*
X173588226Y-87106398D01*
X173628000Y-86906439D01*
X173628000Y-86702561D01*
X173588226Y-86502602D01*
X173510205Y-86314244D01*
X173396937Y-86144726D01*
X173252774Y-86000563D01*
X173083256Y-85887295D01*
X172894898Y-85809274D01*
X172694939Y-85769500D01*
X172491061Y-85769500D01*
X172291102Y-85809274D01*
X172102744Y-85887295D01*
X171933226Y-86000563D01*
X171789063Y-86144726D01*
X171675795Y-86314244D01*
X171597774Y-86502602D01*
X171587870Y-86552395D01*
X170852264Y-87288001D01*
X170818341Y-87315841D01*
X170707247Y-87451210D01*
X170624697Y-87605650D01*
X170573864Y-87773227D01*
X170561000Y-87903834D01*
X170561000Y-87903840D01*
X170556700Y-87947500D01*
X170561000Y-87991160D01*
X170561001Y-90082031D01*
X170532795Y-90124244D01*
X170454774Y-90312602D01*
X170415000Y-90512561D01*
X114576798Y-90512561D01*
X114630200Y-90244092D01*
X114630200Y-89968908D01*
X114576514Y-89699010D01*
X114471205Y-89444773D01*
X114318320Y-89215965D01*
X114123735Y-89021380D01*
X113894927Y-88868495D01*
X113640690Y-88763186D01*
X113370792Y-88709500D01*
X113095608Y-88709500D01*
X112825710Y-88763186D01*
X112571473Y-88868495D01*
X112342665Y-89021380D01*
X112148080Y-89215965D01*
X111995195Y-89444773D01*
X111889886Y-89699010D01*
X111836200Y-89968908D01*
X103605001Y-89968908D01*
X103605001Y-82352050D01*
X132660000Y-82352050D01*
X132660000Y-82747949D01*
X132681487Y-82966110D01*
X132766401Y-83246033D01*
X132904294Y-83504013D01*
X133089866Y-83730134D01*
X133315986Y-83915706D01*
X133573966Y-84053599D01*
X133853889Y-84138513D01*
X134145000Y-84167185D01*
X134436110Y-84138513D01*
X134716033Y-84053599D01*
X134974013Y-83915706D01*
X135200134Y-83730134D01*
X135385706Y-83504014D01*
X135395000Y-83486626D01*
X135404294Y-83504013D01*
X135589866Y-83730134D01*
X135815986Y-83915706D01*
X136073966Y-84053599D01*
X136353889Y-84138513D01*
X136645000Y-84167185D01*
X136936110Y-84138513D01*
X137216033Y-84053599D01*
X137474013Y-83915706D01*
X137700134Y-83730134D01*
X137885706Y-83504014D01*
X137895000Y-83486626D01*
X137904294Y-83504013D01*
X138089866Y-83730134D01*
X138315986Y-83915706D01*
X138573966Y-84053599D01*
X138853889Y-84138513D01*
X139145000Y-84167185D01*
X139436110Y-84138513D01*
X139716033Y-84053599D01*
X139974013Y-83915706D01*
X140200134Y-83730134D01*
X140385706Y-83504014D01*
X140395000Y-83486626D01*
X140404294Y-83504013D01*
X140589866Y-83730134D01*
X140815986Y-83915706D01*
X141073966Y-84053599D01*
X141353889Y-84138513D01*
X141645000Y-84167185D01*
X141936110Y-84138513D01*
X142216033Y-84053599D01*
X142474013Y-83915706D01*
X142700134Y-83730134D01*
X142752223Y-83666663D01*
X142806595Y-83768386D01*
X142917038Y-83902962D01*
X143051614Y-84013405D01*
X143205150Y-84095472D01*
X143371746Y-84146008D01*
X143545000Y-84163072D01*
X144745000Y-84163072D01*
X144918254Y-84146008D01*
X145084850Y-84095472D01*
X145238386Y-84013405D01*
X145372962Y-83902962D01*
X145483405Y-83768386D01*
X145565472Y-83614850D01*
X145584245Y-83552961D01*
X158248400Y-83552961D01*
X158248400Y-83756839D01*
X158288174Y-83956798D01*
X158366195Y-84145156D01*
X158479463Y-84314674D01*
X158623626Y-84458837D01*
X158793144Y-84572105D01*
X158981502Y-84650126D01*
X159181461Y-84689900D01*
X159385339Y-84689900D01*
X159585298Y-84650126D01*
X159773656Y-84572105D01*
X159815868Y-84543900D01*
X163805532Y-84543900D01*
X163847744Y-84572105D01*
X164036102Y-84650126D01*
X164236061Y-84689900D01*
X164439939Y-84689900D01*
X164639898Y-84650126D01*
X164828256Y-84572105D01*
X164997774Y-84458837D01*
X165141937Y-84314674D01*
X165255205Y-84145156D01*
X165333226Y-83956798D01*
X165373000Y-83756839D01*
X165373000Y-83552961D01*
X165333226Y-83353002D01*
X165255205Y-83164644D01*
X165141937Y-82995126D01*
X164997774Y-82850963D01*
X164828256Y-82737695D01*
X164639898Y-82659674D01*
X164439939Y-82619900D01*
X164357000Y-82619900D01*
X164357000Y-82511561D01*
X164317226Y-82311602D01*
X164239205Y-82123244D01*
X164125937Y-81953726D01*
X163981774Y-81809563D01*
X163812256Y-81696295D01*
X163623898Y-81618274D01*
X163462004Y-81586072D01*
X160920429Y-79044497D01*
X160888226Y-78882602D01*
X160810205Y-78694244D01*
X160701456Y-78531488D01*
X162074611Y-79904645D01*
X162100459Y-79936141D01*
X162131955Y-79961989D01*
X162131958Y-79961992D01*
X162226157Y-80039299D01*
X162320714Y-80089841D01*
X162369566Y-80115953D01*
X162525174Y-80163156D01*
X162643222Y-80174782D01*
X162780944Y-80266805D01*
X162969302Y-80344826D01*
X163169261Y-80384600D01*
X163373139Y-80384600D01*
X163573098Y-80344826D01*
X163761456Y-80266805D01*
X163930974Y-80153537D01*
X164075137Y-80009374D01*
X164188405Y-79839856D01*
X164266426Y-79651498D01*
X164306200Y-79451539D01*
X164306200Y-79247661D01*
X164266426Y-79047702D01*
X164188405Y-78859344D01*
X164075137Y-78689826D01*
X163930974Y-78545663D01*
X163761456Y-78432395D01*
X163573098Y-78354374D01*
X163373139Y-78314600D01*
X163169261Y-78314600D01*
X162969302Y-78354374D01*
X162891454Y-78386620D01*
X161047428Y-76542596D01*
X161015226Y-76380702D01*
X160937205Y-76192344D01*
X160823937Y-76022826D01*
X160679774Y-75878663D01*
X160532954Y-75780561D01*
X166541500Y-75780561D01*
X166541500Y-75984439D01*
X166581274Y-76184398D01*
X166659295Y-76372756D01*
X166751001Y-76510004D01*
X166751000Y-79001497D01*
X166659295Y-79138744D01*
X166581274Y-79327102D01*
X166541500Y-79527061D01*
X166541500Y-79730939D01*
X166581274Y-79930898D01*
X166659295Y-80119256D01*
X166772563Y-80288774D01*
X166916726Y-80432937D01*
X167086244Y-80546205D01*
X167274602Y-80624226D01*
X167474561Y-80664000D01*
X167678439Y-80664000D01*
X167878398Y-80624226D01*
X168066756Y-80546205D01*
X168236274Y-80432937D01*
X168380437Y-80288774D01*
X168493705Y-80119256D01*
X168571726Y-79930898D01*
X168611500Y-79730939D01*
X168611500Y-79527061D01*
X168571726Y-79327102D01*
X168493705Y-79138744D01*
X168402000Y-79001497D01*
X168402000Y-76510003D01*
X168493705Y-76372756D01*
X168571726Y-76184398D01*
X168611500Y-75984439D01*
X168611500Y-75780561D01*
X168571726Y-75580602D01*
X168493705Y-75392244D01*
X168380437Y-75222726D01*
X168236274Y-75078563D01*
X168066756Y-74965295D01*
X167878398Y-74887274D01*
X167678439Y-74847500D01*
X167474561Y-74847500D01*
X167274602Y-74887274D01*
X167086244Y-74965295D01*
X166916726Y-75078563D01*
X166772563Y-75222726D01*
X166659295Y-75392244D01*
X166581274Y-75580602D01*
X166541500Y-75780561D01*
X160532954Y-75780561D01*
X160510256Y-75765395D01*
X160321898Y-75687374D01*
X160121939Y-75647600D01*
X159918061Y-75647600D01*
X159718102Y-75687374D01*
X159529744Y-75765395D01*
X159360226Y-75878663D01*
X159216063Y-76022826D01*
X159102795Y-76192344D01*
X159024774Y-76380702D01*
X158985000Y-76580661D01*
X158985000Y-76784539D01*
X159024774Y-76984498D01*
X159102795Y-77172856D01*
X159216063Y-77342374D01*
X159360226Y-77486537D01*
X159529744Y-77599805D01*
X159718102Y-77677826D01*
X159879996Y-77710028D01*
X160546012Y-78376045D01*
X160383256Y-78267295D01*
X160194898Y-78189274D01*
X159994939Y-78149500D01*
X159791061Y-78149500D01*
X159591102Y-78189274D01*
X159402744Y-78267295D01*
X159233226Y-78380563D01*
X159089063Y-78524726D01*
X158975795Y-78694244D01*
X158897774Y-78882602D01*
X158858000Y-79082561D01*
X158858000Y-79286439D01*
X158897774Y-79486398D01*
X158975795Y-79674756D01*
X159089063Y-79844274D01*
X159233226Y-79988437D01*
X159402744Y-80101705D01*
X159591102Y-80179726D01*
X159752997Y-80211929D01*
X162294572Y-82753504D01*
X162297037Y-82765900D01*
X159815868Y-82765900D01*
X159773656Y-82737695D01*
X159585298Y-82659674D01*
X159385339Y-82619900D01*
X159181461Y-82619900D01*
X158981502Y-82659674D01*
X158793144Y-82737695D01*
X158623626Y-82850963D01*
X158479463Y-82995126D01*
X158366195Y-83164644D01*
X158288174Y-83353002D01*
X158248400Y-83552961D01*
X145584245Y-83552961D01*
X145616008Y-83448254D01*
X145633072Y-83275000D01*
X145633072Y-81825000D01*
X145616008Y-81651746D01*
X145565472Y-81485150D01*
X145483405Y-81331614D01*
X145372962Y-81197038D01*
X145238386Y-81086595D01*
X145084850Y-81004528D01*
X144918254Y-80953992D01*
X144745000Y-80936928D01*
X143545000Y-80936928D01*
X143371746Y-80953992D01*
X143205150Y-81004528D01*
X143051614Y-81086595D01*
X142917038Y-81197038D01*
X142806595Y-81331614D01*
X142752223Y-81433337D01*
X142700134Y-81369866D01*
X142474014Y-81184294D01*
X142216034Y-81046401D01*
X141936111Y-80961487D01*
X141645000Y-80932815D01*
X141353890Y-80961487D01*
X141073967Y-81046401D01*
X140815987Y-81184294D01*
X140589866Y-81369866D01*
X140404294Y-81595986D01*
X140395000Y-81613374D01*
X140385706Y-81595986D01*
X140200134Y-81369866D01*
X139974014Y-81184294D01*
X139716034Y-81046401D01*
X139436111Y-80961487D01*
X139145000Y-80932815D01*
X138853890Y-80961487D01*
X138573967Y-81046401D01*
X138315987Y-81184294D01*
X138089866Y-81369866D01*
X137904294Y-81595986D01*
X137895000Y-81613374D01*
X137885706Y-81595986D01*
X137700134Y-81369866D01*
X137474014Y-81184294D01*
X137216034Y-81046401D01*
X136936111Y-80961487D01*
X136645000Y-80932815D01*
X136353890Y-80961487D01*
X136073967Y-81046401D01*
X135815987Y-81184294D01*
X135589866Y-81369866D01*
X135404294Y-81595986D01*
X135395000Y-81613374D01*
X135385706Y-81595986D01*
X135200134Y-81369866D01*
X134974014Y-81184294D01*
X134716034Y-81046401D01*
X134436111Y-80961487D01*
X134145000Y-80932815D01*
X133853890Y-80961487D01*
X133573967Y-81046401D01*
X133315987Y-81184294D01*
X133089866Y-81369866D01*
X132904294Y-81595986D01*
X132766401Y-81853966D01*
X132681487Y-82133889D01*
X132660000Y-82352050D01*
X103605001Y-82352050D01*
X103605001Y-69658000D01*
X150934928Y-69658000D01*
X150934928Y-71058000D01*
X150947188Y-71182482D01*
X150983498Y-71302180D01*
X151042463Y-71412494D01*
X151121815Y-71509185D01*
X151218506Y-71588537D01*
X151328820Y-71647502D01*
X151448518Y-71683812D01*
X151573000Y-71696072D01*
X151686190Y-71696072D01*
X151640641Y-71714939D01*
X151421987Y-71861038D01*
X151236038Y-72046987D01*
X151089939Y-72265641D01*
X150989304Y-72508595D01*
X150938000Y-72766514D01*
X150938000Y-73029486D01*
X150989304Y-73287405D01*
X151089939Y-73530359D01*
X151236038Y-73749013D01*
X151421987Y-73934962D01*
X151640641Y-74081061D01*
X151850530Y-74168000D01*
X151640641Y-74254939D01*
X151421987Y-74401038D01*
X151236038Y-74586987D01*
X151089939Y-74805641D01*
X150989304Y-75048595D01*
X150938000Y-75306514D01*
X150938000Y-75569486D01*
X150989304Y-75827405D01*
X151089939Y-76070359D01*
X151236038Y-76289013D01*
X151421987Y-76474962D01*
X151640641Y-76621061D01*
X151883595Y-76721696D01*
X152141514Y-76773000D01*
X152404486Y-76773000D01*
X152662405Y-76721696D01*
X152905359Y-76621061D01*
X153124013Y-76474962D01*
X153239706Y-76359269D01*
X154071336Y-76359269D01*
X154130797Y-76593037D01*
X154369242Y-76703934D01*
X154624740Y-76766183D01*
X154887473Y-76777390D01*
X155147344Y-76737125D01*
X155394366Y-76646935D01*
X155495203Y-76593037D01*
X155554664Y-76359269D01*
X154813000Y-75617605D01*
X154071336Y-76359269D01*
X153239706Y-76359269D01*
X153309962Y-76289013D01*
X153456061Y-76070359D01*
X153544621Y-75856556D01*
X153604065Y-76019366D01*
X153657963Y-76120203D01*
X153891731Y-76179664D01*
X154633395Y-75438000D01*
X154992605Y-75438000D01*
X155734269Y-76179664D01*
X155968037Y-76120203D01*
X156078934Y-75881758D01*
X156141183Y-75626260D01*
X156152390Y-75363527D01*
X156112125Y-75103656D01*
X156021935Y-74856634D01*
X155968037Y-74755797D01*
X155734269Y-74696336D01*
X154992605Y-75438000D01*
X154633395Y-75438000D01*
X153891731Y-74696336D01*
X153657963Y-74755797D01*
X153547066Y-74994242D01*
X153542294Y-75013827D01*
X153456061Y-74805641D01*
X153309962Y-74586987D01*
X153124013Y-74401038D01*
X152905359Y-74254939D01*
X152695470Y-74168000D01*
X152905359Y-74081061D01*
X153124013Y-73934962D01*
X153309962Y-73749013D01*
X153456061Y-73530359D01*
X153543000Y-73320470D01*
X153629939Y-73530359D01*
X153776038Y-73749013D01*
X153961987Y-73934962D01*
X154180641Y-74081061D01*
X154394444Y-74169621D01*
X154231634Y-74229065D01*
X154130797Y-74282963D01*
X154071336Y-74516731D01*
X154813000Y-75258395D01*
X155554664Y-74516731D01*
X155495203Y-74282963D01*
X155256758Y-74172066D01*
X155237173Y-74167294D01*
X155445359Y-74081061D01*
X155664013Y-73934962D01*
X155849962Y-73749013D01*
X155996061Y-73530359D01*
X156096696Y-73287405D01*
X156148000Y-73029486D01*
X156148000Y-72766514D01*
X156096696Y-72508595D01*
X155996061Y-72265641D01*
X155849962Y-72046987D01*
X155664013Y-71861038D01*
X155445359Y-71714939D01*
X155235470Y-71628000D01*
X155445359Y-71541061D01*
X155664013Y-71394962D01*
X155849962Y-71209013D01*
X155996061Y-70990359D01*
X156037191Y-70891061D01*
X160191500Y-70891061D01*
X160191500Y-71094939D01*
X160231274Y-71294898D01*
X160309295Y-71483256D01*
X160422563Y-71652774D01*
X160566726Y-71796937D01*
X160736244Y-71910205D01*
X160924602Y-71988226D01*
X161124561Y-72028000D01*
X161328439Y-72028000D01*
X161528398Y-71988226D01*
X161716756Y-71910205D01*
X161854003Y-71818500D01*
X165678997Y-71818500D01*
X165816244Y-71910205D01*
X166004602Y-71988226D01*
X166204561Y-72028000D01*
X166408439Y-72028000D01*
X166608398Y-71988226D01*
X166796756Y-71910205D01*
X166966274Y-71796937D01*
X167110437Y-71652774D01*
X167223705Y-71483256D01*
X167301726Y-71294898D01*
X167341500Y-71094939D01*
X167341500Y-70891061D01*
X167301726Y-70691102D01*
X167223705Y-70502744D01*
X167110437Y-70333226D01*
X166966274Y-70189063D01*
X166796756Y-70075795D01*
X166608398Y-69997774D01*
X166408439Y-69958000D01*
X166204561Y-69958000D01*
X166004602Y-69997774D01*
X165816244Y-70075795D01*
X165678997Y-70167500D01*
X161854003Y-70167500D01*
X161716756Y-70075795D01*
X161528398Y-69997774D01*
X161328439Y-69958000D01*
X161124561Y-69958000D01*
X160924602Y-69997774D01*
X160736244Y-70075795D01*
X160566726Y-70189063D01*
X160422563Y-70333226D01*
X160309295Y-70502744D01*
X160231274Y-70691102D01*
X160191500Y-70891061D01*
X156037191Y-70891061D01*
X156096696Y-70747405D01*
X156148000Y-70489486D01*
X156148000Y-70226514D01*
X156096696Y-69968595D01*
X155996061Y-69725641D01*
X155849962Y-69506987D01*
X155664013Y-69321038D01*
X155445359Y-69174939D01*
X155202405Y-69074304D01*
X154944486Y-69023000D01*
X154681514Y-69023000D01*
X154423595Y-69074304D01*
X154180641Y-69174939D01*
X153961987Y-69321038D01*
X153776038Y-69506987D01*
X153629939Y-69725641D01*
X153611072Y-69771190D01*
X153611072Y-69658000D01*
X153598812Y-69533518D01*
X153562502Y-69413820D01*
X153503537Y-69303506D01*
X153424185Y-69206815D01*
X153327494Y-69127463D01*
X153217180Y-69068498D01*
X153097482Y-69032188D01*
X152973000Y-69019928D01*
X151573000Y-69019928D01*
X151448518Y-69032188D01*
X151328820Y-69068498D01*
X151218506Y-69127463D01*
X151121815Y-69206815D01*
X151042463Y-69303506D01*
X150983498Y-69413820D01*
X150947188Y-69533518D01*
X150934928Y-69658000D01*
X103605001Y-69658000D01*
X103605001Y-59861279D01*
X134772282Y-59861279D01*
X134772282Y-60065157D01*
X134812056Y-60265116D01*
X134890077Y-60453474D01*
X135003345Y-60622992D01*
X135147508Y-60767155D01*
X135317026Y-60880423D01*
X135505384Y-60958444D01*
X135705343Y-60998218D01*
X135909221Y-60998218D01*
X136109180Y-60958444D01*
X136297538Y-60880423D01*
X136463546Y-60769500D01*
X137421497Y-60769500D01*
X137558744Y-60861205D01*
X137747102Y-60939226D01*
X137947061Y-60979000D01*
X138150939Y-60979000D01*
X138350898Y-60939226D01*
X138539256Y-60861205D01*
X138708774Y-60747937D01*
X138852937Y-60603774D01*
X138966205Y-60434256D01*
X139044226Y-60245898D01*
X139084000Y-60045939D01*
X139084000Y-59842061D01*
X139044226Y-59642102D01*
X138966205Y-59453744D01*
X138852937Y-59284226D01*
X138708774Y-59140063D01*
X138539256Y-59026795D01*
X138350898Y-58948774D01*
X138150939Y-58909000D01*
X137947061Y-58909000D01*
X137747102Y-58948774D01*
X137558744Y-59026795D01*
X137421497Y-59118500D01*
X136406023Y-59118500D01*
X136297538Y-59046013D01*
X136109180Y-58967992D01*
X135909221Y-58928218D01*
X135705343Y-58928218D01*
X135505384Y-58967992D01*
X135317026Y-59046013D01*
X135147508Y-59159281D01*
X135003345Y-59303444D01*
X134890077Y-59472962D01*
X134812056Y-59661320D01*
X134772282Y-59861279D01*
X103605001Y-59861279D01*
X103605001Y-56604554D01*
X107530900Y-56604554D01*
X107530900Y-57187446D01*
X107644616Y-57759138D01*
X107867679Y-58297660D01*
X108191517Y-58782316D01*
X108603684Y-59194483D01*
X109088340Y-59518321D01*
X109626862Y-59741384D01*
X110198554Y-59855100D01*
X110781446Y-59855100D01*
X111353138Y-59741384D01*
X111891660Y-59518321D01*
X112376316Y-59194483D01*
X112788483Y-58782316D01*
X113112321Y-58297660D01*
X113335384Y-57759138D01*
X113449100Y-57187446D01*
X113449100Y-56952050D01*
X122660000Y-56952050D01*
X122660000Y-57347949D01*
X122681487Y-57566110D01*
X122766401Y-57846033D01*
X122904294Y-58104013D01*
X123089866Y-58330134D01*
X123315986Y-58515706D01*
X123573966Y-58653599D01*
X123853889Y-58738513D01*
X124145000Y-58767185D01*
X124436110Y-58738513D01*
X124716033Y-58653599D01*
X124974013Y-58515706D01*
X125200134Y-58330134D01*
X125385706Y-58104014D01*
X125395000Y-58086626D01*
X125404294Y-58104013D01*
X125589866Y-58330134D01*
X125815986Y-58515706D01*
X126073966Y-58653599D01*
X126353889Y-58738513D01*
X126645000Y-58767185D01*
X126936110Y-58738513D01*
X127216033Y-58653599D01*
X127474013Y-58515706D01*
X127700134Y-58330134D01*
X127885706Y-58104014D01*
X127895000Y-58086626D01*
X127904294Y-58104013D01*
X128089866Y-58330134D01*
X128315986Y-58515706D01*
X128573966Y-58653599D01*
X128853889Y-58738513D01*
X129145000Y-58767185D01*
X129436110Y-58738513D01*
X129716033Y-58653599D01*
X129974013Y-58515706D01*
X130200134Y-58330134D01*
X130385706Y-58104014D01*
X130395000Y-58086626D01*
X130404294Y-58104013D01*
X130589866Y-58330134D01*
X130815986Y-58515706D01*
X131073966Y-58653599D01*
X131353889Y-58738513D01*
X131645000Y-58767185D01*
X131936110Y-58738513D01*
X132216033Y-58653599D01*
X132474013Y-58515706D01*
X132700134Y-58330134D01*
X132885706Y-58104014D01*
X132895000Y-58086626D01*
X132904294Y-58104013D01*
X133089866Y-58330134D01*
X133315986Y-58515706D01*
X133573966Y-58653599D01*
X133853889Y-58738513D01*
X134145000Y-58767185D01*
X134436110Y-58738513D01*
X134716033Y-58653599D01*
X134974013Y-58515706D01*
X135200134Y-58330134D01*
X135385706Y-58104014D01*
X135395000Y-58086626D01*
X135404294Y-58104013D01*
X135589866Y-58330134D01*
X135815986Y-58515706D01*
X136073966Y-58653599D01*
X136353889Y-58738513D01*
X136645000Y-58767185D01*
X136936110Y-58738513D01*
X137216033Y-58653599D01*
X137474013Y-58515706D01*
X137700134Y-58330134D01*
X137885706Y-58104014D01*
X137895000Y-58086626D01*
X137904294Y-58104013D01*
X138089866Y-58330134D01*
X138315986Y-58515706D01*
X138573966Y-58653599D01*
X138853889Y-58738513D01*
X139145000Y-58767185D01*
X139436110Y-58738513D01*
X139716033Y-58653599D01*
X139974013Y-58515706D01*
X140200134Y-58330134D01*
X140385706Y-58104014D01*
X140399462Y-58078278D01*
X140555951Y-58284429D01*
X140773807Y-58477496D01*
X141025142Y-58624352D01*
X141288110Y-58716476D01*
X141518000Y-58595155D01*
X141518000Y-57277000D01*
X141498000Y-57277000D01*
X141498000Y-57023000D01*
X141518000Y-57023000D01*
X141518000Y-55704845D01*
X141772000Y-55704845D01*
X141772000Y-57023000D01*
X141792000Y-57023000D01*
X141792000Y-57277000D01*
X141772000Y-57277000D01*
X141772000Y-58595155D01*
X142001890Y-58716476D01*
X142264858Y-58624352D01*
X142516193Y-58477496D01*
X142734049Y-58284429D01*
X142750286Y-58263039D01*
X142806595Y-58368386D01*
X142917038Y-58502962D01*
X143051614Y-58613405D01*
X143205150Y-58695472D01*
X143371746Y-58746008D01*
X143545000Y-58763072D01*
X144745000Y-58763072D01*
X144918254Y-58746008D01*
X145084850Y-58695472D01*
X145238386Y-58613405D01*
X145372962Y-58502962D01*
X145483405Y-58368386D01*
X145565472Y-58214850D01*
X145616008Y-58048254D01*
X145633072Y-57875000D01*
X145633072Y-56794061D01*
X154159000Y-56794061D01*
X154159000Y-56997939D01*
X154198774Y-57197898D01*
X154276795Y-57386256D01*
X154368501Y-57523504D01*
X154368500Y-59506997D01*
X154276795Y-59644244D01*
X154198774Y-59832602D01*
X154159000Y-60032561D01*
X154159000Y-60236439D01*
X154198774Y-60436398D01*
X154276795Y-60624756D01*
X154390063Y-60794274D01*
X154534226Y-60938437D01*
X154703744Y-61051705D01*
X154892102Y-61129726D01*
X155092061Y-61169500D01*
X155295939Y-61169500D01*
X155495898Y-61129726D01*
X155684256Y-61051705D01*
X155853774Y-60938437D01*
X155997937Y-60794274D01*
X156111205Y-60624756D01*
X156189226Y-60436398D01*
X156203685Y-60363709D01*
X156230774Y-60499898D01*
X156308795Y-60688256D01*
X156422063Y-60857774D01*
X156566226Y-61001937D01*
X156735744Y-61115205D01*
X156924102Y-61193226D01*
X157124061Y-61233000D01*
X157327939Y-61233000D01*
X157527898Y-61193226D01*
X157716256Y-61115205D01*
X157885774Y-61001937D01*
X158029937Y-60857774D01*
X158143205Y-60688256D01*
X158221226Y-60499898D01*
X158261000Y-60299939D01*
X158261000Y-60096061D01*
X158221226Y-59896102D01*
X158143205Y-59707744D01*
X158051500Y-59570497D01*
X158051500Y-57523503D01*
X158143205Y-57386256D01*
X158221226Y-57197898D01*
X158261000Y-56997939D01*
X158261000Y-56794061D01*
X158223306Y-56604554D01*
X181444900Y-56604554D01*
X181444900Y-57187446D01*
X181558616Y-57759138D01*
X181781679Y-58297660D01*
X182105517Y-58782316D01*
X182517684Y-59194483D01*
X183002340Y-59518321D01*
X183540862Y-59741384D01*
X184112554Y-59855100D01*
X184695446Y-59855100D01*
X185267138Y-59741384D01*
X185805660Y-59518321D01*
X186290316Y-59194483D01*
X186702483Y-58782316D01*
X187026321Y-58297660D01*
X187249384Y-57759138D01*
X187363100Y-57187446D01*
X187363100Y-56604554D01*
X187249384Y-56032862D01*
X187026321Y-55494340D01*
X186702483Y-55009684D01*
X186290316Y-54597517D01*
X185805660Y-54273679D01*
X185267138Y-54050616D01*
X184695446Y-53936900D01*
X184112554Y-53936900D01*
X183540862Y-54050616D01*
X183002340Y-54273679D01*
X182517684Y-54597517D01*
X182105517Y-55009684D01*
X181781679Y-55494340D01*
X181558616Y-56032862D01*
X181444900Y-56604554D01*
X158223306Y-56604554D01*
X158221226Y-56594102D01*
X158143205Y-56405744D01*
X158029937Y-56236226D01*
X157885774Y-56092063D01*
X157716256Y-55978795D01*
X157527898Y-55900774D01*
X157327939Y-55861000D01*
X157124061Y-55861000D01*
X156924102Y-55900774D01*
X156735744Y-55978795D01*
X156566226Y-56092063D01*
X156422063Y-56236226D01*
X156308795Y-56405744D01*
X156230774Y-56594102D01*
X156210000Y-56698541D01*
X156189226Y-56594102D01*
X156111205Y-56405744D01*
X155997937Y-56236226D01*
X155853774Y-56092063D01*
X155684256Y-55978795D01*
X155495898Y-55900774D01*
X155295939Y-55861000D01*
X155092061Y-55861000D01*
X154892102Y-55900774D01*
X154703744Y-55978795D01*
X154534226Y-56092063D01*
X154390063Y-56236226D01*
X154276795Y-56405744D01*
X154198774Y-56594102D01*
X154159000Y-56794061D01*
X145633072Y-56794061D01*
X145633072Y-56425000D01*
X145616008Y-56251746D01*
X145565472Y-56085150D01*
X145483405Y-55931614D01*
X145372962Y-55797038D01*
X145238386Y-55686595D01*
X145084850Y-55604528D01*
X144918254Y-55553992D01*
X144745000Y-55536928D01*
X143545000Y-55536928D01*
X143371746Y-55553992D01*
X143205150Y-55604528D01*
X143051614Y-55686595D01*
X142917038Y-55797038D01*
X142806595Y-55931614D01*
X142750286Y-56036961D01*
X142734049Y-56015571D01*
X142516193Y-55822504D01*
X142264858Y-55675648D01*
X142001890Y-55583524D01*
X141772000Y-55704845D01*
X141518000Y-55704845D01*
X141288110Y-55583524D01*
X141025142Y-55675648D01*
X140773807Y-55822504D01*
X140555951Y-56015571D01*
X140399462Y-56221722D01*
X140385706Y-56195986D01*
X140200134Y-55969866D01*
X139974014Y-55784294D01*
X139716034Y-55646401D01*
X139436111Y-55561487D01*
X139145000Y-55532815D01*
X138853890Y-55561487D01*
X138573967Y-55646401D01*
X138315987Y-55784294D01*
X138089866Y-55969866D01*
X137904294Y-56195986D01*
X137895000Y-56213374D01*
X137885706Y-56195986D01*
X137700134Y-55969866D01*
X137474014Y-55784294D01*
X137216034Y-55646401D01*
X136936111Y-55561487D01*
X136645000Y-55532815D01*
X136353890Y-55561487D01*
X136073967Y-55646401D01*
X135815987Y-55784294D01*
X135589866Y-55969866D01*
X135404294Y-56195986D01*
X135395000Y-56213374D01*
X135385706Y-56195986D01*
X135200134Y-55969866D01*
X134974014Y-55784294D01*
X134716034Y-55646401D01*
X134436111Y-55561487D01*
X134145000Y-55532815D01*
X133853890Y-55561487D01*
X133573967Y-55646401D01*
X133315987Y-55784294D01*
X133089866Y-55969866D01*
X132904294Y-56195986D01*
X132895000Y-56213374D01*
X132885706Y-56195986D01*
X132700134Y-55969866D01*
X132474014Y-55784294D01*
X132216034Y-55646401D01*
X131936111Y-55561487D01*
X131645000Y-55532815D01*
X131353890Y-55561487D01*
X131073967Y-55646401D01*
X130815987Y-55784294D01*
X130589866Y-55969866D01*
X130404294Y-56195986D01*
X130395000Y-56213374D01*
X130385706Y-56195986D01*
X130200134Y-55969866D01*
X129974014Y-55784294D01*
X129716034Y-55646401D01*
X129436111Y-55561487D01*
X129145000Y-55532815D01*
X128853890Y-55561487D01*
X128573967Y-55646401D01*
X128315987Y-55784294D01*
X128089866Y-55969866D01*
X127904294Y-56195986D01*
X127895000Y-56213374D01*
X127885706Y-56195986D01*
X127700134Y-55969866D01*
X127474014Y-55784294D01*
X127216034Y-55646401D01*
X126936111Y-55561487D01*
X126645000Y-55532815D01*
X126353890Y-55561487D01*
X126073967Y-55646401D01*
X125815987Y-55784294D01*
X125589866Y-55969866D01*
X125404294Y-56195986D01*
X125395000Y-56213374D01*
X125385706Y-56195986D01*
X125200134Y-55969866D01*
X124974014Y-55784294D01*
X124716034Y-55646401D01*
X124436111Y-55561487D01*
X124145000Y-55532815D01*
X123853890Y-55561487D01*
X123573967Y-55646401D01*
X123315987Y-55784294D01*
X123089866Y-55969866D01*
X122904294Y-56195986D01*
X122766401Y-56453966D01*
X122681487Y-56733889D01*
X122660000Y-56952050D01*
X113449100Y-56952050D01*
X113449100Y-56604554D01*
X113335384Y-56032862D01*
X113112321Y-55494340D01*
X112788483Y-55009684D01*
X112376316Y-54597517D01*
X111891660Y-54273679D01*
X111353138Y-54050616D01*
X110781446Y-53936900D01*
X110198554Y-53936900D01*
X109626862Y-54050616D01*
X109088340Y-54273679D01*
X108603684Y-54597517D01*
X108191517Y-55009684D01*
X107867679Y-55494340D01*
X107644616Y-56032862D01*
X107530900Y-56604554D01*
X103605001Y-56604554D01*
X103605001Y-55908887D01*
X103676376Y-55001978D01*
X103881982Y-54145567D01*
X104219026Y-53331873D01*
X104679209Y-52580924D01*
X105251205Y-51911204D01*
X105920925Y-51339208D01*
X106671879Y-50879022D01*
X107485571Y-50541980D01*
X108341979Y-50336375D01*
X109248877Y-50265001D01*
X185391139Y-50265001D01*
X186298023Y-50336374D01*
G37*
X186298023Y-50336374D02*
X187154432Y-50541980D01*
X187968124Y-50879023D01*
X188719082Y-51339210D01*
X189388802Y-51911206D01*
X189960790Y-52580919D01*
X190420977Y-53331875D01*
X190758022Y-54145571D01*
X190963627Y-55001978D01*
X191035001Y-55908876D01*
X191035000Y-132051137D01*
X190963627Y-132958022D01*
X190758022Y-133814429D01*
X190420977Y-134628125D01*
X189960790Y-135379081D01*
X189388802Y-136048794D01*
X188719082Y-136620790D01*
X187968124Y-137080977D01*
X187154432Y-137418020D01*
X186298023Y-137623626D01*
X185391126Y-137695000D01*
X109248877Y-137695000D01*
X108341979Y-137623626D01*
X107485572Y-137418021D01*
X106671876Y-137080976D01*
X105920920Y-136620789D01*
X105251207Y-136048801D01*
X104679211Y-135379081D01*
X104219024Y-134628123D01*
X103881981Y-133814431D01*
X103676375Y-132958022D01*
X103605001Y-132051125D01*
X103605001Y-130899554D01*
X107530900Y-130899554D01*
X107530900Y-131482446D01*
X107644616Y-132054138D01*
X107867679Y-132592660D01*
X108191517Y-133077316D01*
X108603684Y-133489483D01*
X109088340Y-133813321D01*
X109626862Y-134036384D01*
X110198554Y-134150100D01*
X110781446Y-134150100D01*
X111353138Y-134036384D01*
X111891660Y-133813321D01*
X112376316Y-133489483D01*
X112788483Y-133077316D01*
X113112321Y-132592660D01*
X113335384Y-132054138D01*
X113449100Y-131482446D01*
X113449100Y-131039816D01*
X117758000Y-131039816D01*
X117758000Y-131342184D01*
X117816989Y-131638743D01*
X117932701Y-131918095D01*
X118100688Y-132169505D01*
X118314495Y-132383312D01*
X118565905Y-132551299D01*
X118845257Y-132667011D01*
X119141816Y-132726000D01*
X119444184Y-132726000D01*
X119740743Y-132667011D01*
X120020095Y-132551299D01*
X120271505Y-132383312D01*
X120399737Y-132255080D01*
X123408525Y-132255080D01*
X123492208Y-132509261D01*
X123764775Y-132640158D01*
X124057642Y-132715365D01*
X124359553Y-132731991D01*
X124658907Y-132689397D01*
X124944199Y-132589222D01*
X125093792Y-132509261D01*
X125177475Y-132255080D01*
X130386525Y-132255080D01*
X130470208Y-132509261D01*
X130742775Y-132640158D01*
X131035642Y-132715365D01*
X131337553Y-132731991D01*
X131636907Y-132689397D01*
X131922199Y-132589222D01*
X132071792Y-132509261D01*
X132155475Y-132255080D01*
X135386525Y-132255080D01*
X135470208Y-132509261D01*
X135742775Y-132640158D01*
X136035642Y-132715365D01*
X136337553Y-132731991D01*
X136636907Y-132689397D01*
X136922199Y-132589222D01*
X137071792Y-132509261D01*
X137155475Y-132255080D01*
X136271000Y-131370605D01*
X135386525Y-132255080D01*
X132155475Y-132255080D01*
X131271000Y-131370605D01*
X130386525Y-132255080D01*
X125177475Y-132255080D01*
X124293000Y-131370605D01*
X123408525Y-132255080D01*
X120399737Y-132255080D01*
X120485312Y-132169505D01*
X120653299Y-131918095D01*
X120769011Y-131638743D01*
X120828000Y-131342184D01*
X120828000Y-131257553D01*
X122752009Y-131257553D01*
X122794603Y-131556907D01*
X122894778Y-131842199D01*
X122974739Y-131991792D01*
X123228920Y-132075475D01*
X124113395Y-131191000D01*
X124472605Y-131191000D01*
X125357080Y-132075475D01*
X125611261Y-131991792D01*
X125742158Y-131719225D01*
X125817365Y-131426358D01*
X125826660Y-131257553D01*
X129730009Y-131257553D01*
X129772603Y-131556907D01*
X129872778Y-131842199D01*
X129952739Y-131991792D01*
X130206920Y-132075475D01*
X131091395Y-131191000D01*
X131450605Y-131191000D01*
X132335080Y-132075475D01*
X132589261Y-131991792D01*
X132720158Y-131719225D01*
X132795365Y-131426358D01*
X132804660Y-131257553D01*
X134730009Y-131257553D01*
X134772603Y-131556907D01*
X134872778Y-131842199D01*
X134952739Y-131991792D01*
X135206920Y-132075475D01*
X136091395Y-131191000D01*
X136450605Y-131191000D01*
X137335080Y-132075475D01*
X137589261Y-131991792D01*
X137720158Y-131719225D01*
X137795365Y-131426358D01*
X137811991Y-131124447D01*
X137799950Y-131039816D01*
X139736000Y-131039816D01*
X139736000Y-131342184D01*
X139794989Y-131638743D01*
X139910701Y-131918095D01*
X140078688Y-132169505D01*
X140292495Y-132383312D01*
X140543905Y-132551299D01*
X140823257Y-132667011D01*
X141119816Y-132726000D01*
X141422184Y-132726000D01*
X141718743Y-132667011D01*
X141998095Y-132551299D01*
X142249505Y-132383312D01*
X142377737Y-132255080D01*
X147404525Y-132255080D01*
X147488208Y-132509261D01*
X147760775Y-132640158D01*
X148053642Y-132715365D01*
X148355553Y-132731991D01*
X148654907Y-132689397D01*
X148940199Y-132589222D01*
X149089792Y-132509261D01*
X149173475Y-132255080D01*
X152404525Y-132255080D01*
X152488208Y-132509261D01*
X152760775Y-132640158D01*
X153053642Y-132715365D01*
X153355553Y-132731991D01*
X153654907Y-132689397D01*
X153940199Y-132589222D01*
X154089792Y-132509261D01*
X154173475Y-132255080D01*
X153289000Y-131370605D01*
X152404525Y-132255080D01*
X149173475Y-132255080D01*
X148289000Y-131370605D01*
X147404525Y-132255080D01*
X142377737Y-132255080D01*
X142463312Y-132169505D01*
X142631299Y-131918095D01*
X142747011Y-131638743D01*
X142806000Y-131342184D01*
X142806000Y-131257553D01*
X146748009Y-131257553D01*
X146790603Y-131556907D01*
X146890778Y-131842199D01*
X146970739Y-131991792D01*
X147224920Y-132075475D01*
X148109395Y-131191000D01*
X148468605Y-131191000D01*
X149353080Y-132075475D01*
X149607261Y-131991792D01*
X149738158Y-131719225D01*
X149813365Y-131426358D01*
X149822660Y-131257553D01*
X151748009Y-131257553D01*
X151790603Y-131556907D01*
X151890778Y-131842199D01*
X151970739Y-131991792D01*
X152224920Y-132075475D01*
X153109395Y-131191000D01*
X153468605Y-131191000D01*
X154353080Y-132075475D01*
X154607261Y-131991792D01*
X154738158Y-131719225D01*
X154813365Y-131426358D01*
X154829991Y-131124447D01*
X154817950Y-131039816D01*
X156754000Y-131039816D01*
X156754000Y-131342184D01*
X156812989Y-131638743D01*
X156928701Y-131918095D01*
X157096688Y-132169505D01*
X157310495Y-132383312D01*
X157561905Y-132551299D01*
X157841257Y-132667011D01*
X158137816Y-132726000D01*
X158440184Y-132726000D01*
X158736743Y-132667011D01*
X159016095Y-132551299D01*
X159267505Y-132383312D01*
X159395737Y-132255080D01*
X164422525Y-132255080D01*
X164506208Y-132509261D01*
X164778775Y-132640158D01*
X165071642Y-132715365D01*
X165373553Y-132731991D01*
X165672907Y-132689397D01*
X165958199Y-132589222D01*
X166107792Y-132509261D01*
X166191475Y-132255080D01*
X169422525Y-132255080D01*
X169506208Y-132509261D01*
X169778775Y-132640158D01*
X170071642Y-132715365D01*
X170373553Y-132731991D01*
X170672907Y-132689397D01*
X170958199Y-132589222D01*
X171107792Y-132509261D01*
X171191475Y-132255080D01*
X170307000Y-131370605D01*
X169422525Y-132255080D01*
X166191475Y-132255080D01*
X165307000Y-131370605D01*
X164422525Y-132255080D01*
X159395737Y-132255080D01*
X159481312Y-132169505D01*
X159649299Y-131918095D01*
X159765011Y-131638743D01*
X159824000Y-131342184D01*
X159824000Y-131257553D01*
X163766009Y-131257553D01*
X163808603Y-131556907D01*
X163908778Y-131842199D01*
X163988739Y-131991792D01*
X164242920Y-132075475D01*
X165127395Y-131191000D01*
X165486605Y-131191000D01*
X166371080Y-132075475D01*
X166625261Y-131991792D01*
X166756158Y-131719225D01*
X166831365Y-131426358D01*
X166840660Y-131257553D01*
X168766009Y-131257553D01*
X168808603Y-131556907D01*
X168908778Y-131842199D01*
X168988739Y-131991792D01*
X169242920Y-132075475D01*
X170127395Y-131191000D01*
X170486605Y-131191000D01*
X171371080Y-132075475D01*
X171625261Y-131991792D01*
X171756158Y-131719225D01*
X171831365Y-131426358D01*
X171847991Y-131124447D01*
X171835950Y-131039816D01*
X173772000Y-131039816D01*
X173772000Y-131342184D01*
X173830989Y-131638743D01*
X173946701Y-131918095D01*
X174114688Y-132169505D01*
X174328495Y-132383312D01*
X174579905Y-132551299D01*
X174859257Y-132667011D01*
X175155816Y-132726000D01*
X175458184Y-132726000D01*
X175754743Y-132667011D01*
X176034095Y-132551299D01*
X176285505Y-132383312D01*
X176499312Y-132169505D01*
X176667299Y-131918095D01*
X176783011Y-131638743D01*
X176842000Y-131342184D01*
X176842000Y-131039816D01*
X176814101Y-130899554D01*
X181444900Y-130899554D01*
X181444900Y-131482446D01*
X181558616Y-132054138D01*
X181781679Y-132592660D01*
X182105517Y-133077316D01*
X182517684Y-133489483D01*
X183002340Y-133813321D01*
X183540862Y-134036384D01*
X184112554Y-134150100D01*
X184695446Y-134150100D01*
X185267138Y-134036384D01*
X185805660Y-133813321D01*
X186290316Y-133489483D01*
X186702483Y-133077316D01*
X187026321Y-132592660D01*
X187249384Y-132054138D01*
X187363100Y-131482446D01*
X187363100Y-130899554D01*
X187249384Y-130327862D01*
X187026321Y-129789340D01*
X186702483Y-129304684D01*
X186290316Y-128892517D01*
X185805660Y-128568679D01*
X185267138Y-128345616D01*
X184695446Y-128231900D01*
X184112554Y-128231900D01*
X183540862Y-128345616D01*
X183002340Y-128568679D01*
X182517684Y-128892517D01*
X182105517Y-129304684D01*
X181781679Y-129789340D01*
X181558616Y-130327862D01*
X181444900Y-130899554D01*
X176814101Y-130899554D01*
X176783011Y-130743257D01*
X176667299Y-130463905D01*
X176499312Y-130212495D01*
X176285505Y-129998688D01*
X176034095Y-129830701D01*
X175754743Y-129714989D01*
X175458184Y-129656000D01*
X175155816Y-129656000D01*
X174859257Y-129714989D01*
X174579905Y-129830701D01*
X174328495Y-129998688D01*
X174114688Y-130212495D01*
X173946701Y-130463905D01*
X173830989Y-130743257D01*
X173772000Y-131039816D01*
X171835950Y-131039816D01*
X171805397Y-130825093D01*
X171705222Y-130539801D01*
X171625261Y-130390208D01*
X171371080Y-130306525D01*
X170486605Y-131191000D01*
X170127395Y-131191000D01*
X169242920Y-130306525D01*
X168988739Y-130390208D01*
X168857842Y-130662775D01*
X168782635Y-130955642D01*
X168766009Y-131257553D01*
X166840660Y-131257553D01*
X166847991Y-131124447D01*
X166805397Y-130825093D01*
X166705222Y-130539801D01*
X166625261Y-130390208D01*
X166371080Y-130306525D01*
X165486605Y-131191000D01*
X165127395Y-131191000D01*
X164242920Y-130306525D01*
X163988739Y-130390208D01*
X163857842Y-130662775D01*
X163782635Y-130955642D01*
X163766009Y-131257553D01*
X159824000Y-131257553D01*
X159824000Y-131039816D01*
X159765011Y-130743257D01*
X159649299Y-130463905D01*
X159481312Y-130212495D01*
X159395737Y-130126920D01*
X164422525Y-130126920D01*
X165307000Y-131011395D01*
X166191475Y-130126920D01*
X169422525Y-130126920D01*
X170307000Y-131011395D01*
X171191475Y-130126920D01*
X171107792Y-129872739D01*
X170835225Y-129741842D01*
X170542358Y-129666635D01*
X170240447Y-129650009D01*
X169941093Y-129692603D01*
X169655801Y-129792778D01*
X169506208Y-129872739D01*
X169422525Y-130126920D01*
X166191475Y-130126920D01*
X166107792Y-129872739D01*
X165835225Y-129741842D01*
X165542358Y-129666635D01*
X165240447Y-129650009D01*
X164941093Y-129692603D01*
X164655801Y-129792778D01*
X164506208Y-129872739D01*
X164422525Y-130126920D01*
X159395737Y-130126920D01*
X159267505Y-129998688D01*
X159016095Y-129830701D01*
X158736743Y-129714989D01*
X158440184Y-129656000D01*
X158137816Y-129656000D01*
X157841257Y-129714989D01*
X157561905Y-129830701D01*
X157310495Y-129998688D01*
X157096688Y-130212495D01*
X156928701Y-130463905D01*
X156812989Y-130743257D01*
X156754000Y-131039816D01*
X154817950Y-131039816D01*
X154787397Y-130825093D01*
X154687222Y-130539801D01*
X154607261Y-130390208D01*
X154353080Y-130306525D01*
X153468605Y-131191000D01*
X153109395Y-131191000D01*
X152224920Y-130306525D01*
X151970739Y-130390208D01*
X151839842Y-130662775D01*
X151764635Y-130955642D01*
X151748009Y-131257553D01*
X149822660Y-131257553D01*
X149829991Y-131124447D01*
X149787397Y-130825093D01*
X149687222Y-130539801D01*
X149607261Y-130390208D01*
X149353080Y-130306525D01*
X148468605Y-131191000D01*
X148109395Y-131191000D01*
X147224920Y-130306525D01*
X146970739Y-130390208D01*
X146839842Y-130662775D01*
X146764635Y-130955642D01*
X146748009Y-131257553D01*
X142806000Y-131257553D01*
X142806000Y-131039816D01*
X142747011Y-130743257D01*
X142631299Y-130463905D01*
X142463312Y-130212495D01*
X142377737Y-130126920D01*
X147404525Y-130126920D01*
X148289000Y-131011395D01*
X149173475Y-130126920D01*
X152404525Y-130126920D01*
X153289000Y-131011395D01*
X154173475Y-130126920D01*
X154089792Y-129872739D01*
X153817225Y-129741842D01*
X153524358Y-129666635D01*
X153222447Y-129650009D01*
X152923093Y-129692603D01*
X152637801Y-129792778D01*
X152488208Y-129872739D01*
X152404525Y-130126920D01*
X149173475Y-130126920D01*
X149089792Y-129872739D01*
X148817225Y-129741842D01*
X148524358Y-129666635D01*
X148222447Y-129650009D01*
X147923093Y-129692603D01*
X147637801Y-129792778D01*
X147488208Y-129872739D01*
X147404525Y-130126920D01*
X142377737Y-130126920D01*
X142249505Y-129998688D01*
X141998095Y-129830701D01*
X141718743Y-129714989D01*
X141422184Y-129656000D01*
X141119816Y-129656000D01*
X140823257Y-129714989D01*
X140543905Y-129830701D01*
X140292495Y-129998688D01*
X140078688Y-130212495D01*
X139910701Y-130463905D01*
X139794989Y-130743257D01*
X139736000Y-131039816D01*
X137799950Y-131039816D01*
X137769397Y-130825093D01*
X137669222Y-130539801D01*
X137589261Y-130390208D01*
X137335080Y-130306525D01*
X136450605Y-131191000D01*
X136091395Y-131191000D01*
X135206920Y-130306525D01*
X134952739Y-130390208D01*
X134821842Y-130662775D01*
X134746635Y-130955642D01*
X134730009Y-131257553D01*
X132804660Y-131257553D01*
X132811991Y-131124447D01*
X132769397Y-130825093D01*
X132669222Y-130539801D01*
X132589261Y-130390208D01*
X132335080Y-130306525D01*
X131450605Y-131191000D01*
X131091395Y-131191000D01*
X130206920Y-130306525D01*
X129952739Y-130390208D01*
X129821842Y-130662775D01*
X129746635Y-130955642D01*
X129730009Y-131257553D01*
X125826660Y-131257553D01*
X125833991Y-131124447D01*
X125791397Y-130825093D01*
X125691222Y-130539801D01*
X125611261Y-130390208D01*
X125357080Y-130306525D01*
X124472605Y-131191000D01*
X124113395Y-131191000D01*
X123228920Y-130306525D01*
X122974739Y-130390208D01*
X122843842Y-130662775D01*
X122768635Y-130955642D01*
X122752009Y-131257553D01*
X120828000Y-131257553D01*
X120828000Y-131039816D01*
X120769011Y-130743257D01*
X120653299Y-130463905D01*
X120485312Y-130212495D01*
X120399737Y-130126920D01*
X123408525Y-130126920D01*
X124293000Y-131011395D01*
X125177475Y-130126920D01*
X130386525Y-130126920D01*
X131271000Y-131011395D01*
X132155475Y-130126920D01*
X135386525Y-130126920D01*
X136271000Y-131011395D01*
X137155475Y-130126920D01*
X137071792Y-129872739D01*
X136799225Y-129741842D01*
X136506358Y-129666635D01*
X136204447Y-129650009D01*
X135905093Y-129692603D01*
X135619801Y-129792778D01*
X135470208Y-129872739D01*
X135386525Y-130126920D01*
X132155475Y-130126920D01*
X132071792Y-129872739D01*
X131799225Y-129741842D01*
X131506358Y-129666635D01*
X131204447Y-129650009D01*
X130905093Y-129692603D01*
X130619801Y-129792778D01*
X130470208Y-129872739D01*
X130386525Y-130126920D01*
X125177475Y-130126920D01*
X125093792Y-129872739D01*
X124821225Y-129741842D01*
X124528358Y-129666635D01*
X124226447Y-129650009D01*
X123927093Y-129692603D01*
X123641801Y-129792778D01*
X123492208Y-129872739D01*
X123408525Y-130126920D01*
X120399737Y-130126920D01*
X120271505Y-129998688D01*
X120020095Y-129830701D01*
X119740743Y-129714989D01*
X119444184Y-129656000D01*
X119141816Y-129656000D01*
X118845257Y-129714989D01*
X118565905Y-129830701D01*
X118314495Y-129998688D01*
X118100688Y-130212495D01*
X117932701Y-130463905D01*
X117816989Y-130743257D01*
X117758000Y-131039816D01*
X113449100Y-131039816D01*
X113449100Y-130899554D01*
X113335384Y-130327862D01*
X113112321Y-129789340D01*
X112788483Y-129304684D01*
X112376316Y-128892517D01*
X111891660Y-128568679D01*
X111353138Y-128345616D01*
X110781446Y-128231900D01*
X110198554Y-128231900D01*
X109626862Y-128345616D01*
X109088340Y-128568679D01*
X108603684Y-128892517D01*
X108191517Y-129304684D01*
X107867679Y-129789340D01*
X107644616Y-130327862D01*
X107530900Y-130899554D01*
X103605001Y-130899554D01*
X103605001Y-116829408D01*
X108381800Y-116829408D01*
X108381800Y-117104592D01*
X108435486Y-117374490D01*
X108540795Y-117628727D01*
X108693680Y-117857535D01*
X108888265Y-118052120D01*
X109117073Y-118205005D01*
X109371310Y-118310314D01*
X109641208Y-118364000D01*
X109916392Y-118364000D01*
X110186290Y-118310314D01*
X110440527Y-118205005D01*
X110669335Y-118052120D01*
X110863920Y-117857535D01*
X111016805Y-117628727D01*
X111122114Y-117374490D01*
X111175800Y-117104592D01*
X111175800Y-116829408D01*
X111122114Y-116559510D01*
X111016805Y-116305273D01*
X110863920Y-116076465D01*
X110669335Y-115881880D01*
X110440527Y-115728995D01*
X110186290Y-115623686D01*
X109916392Y-115570000D01*
X109641208Y-115570000D01*
X109371310Y-115623686D01*
X109117073Y-115728995D01*
X108888265Y-115881880D01*
X108693680Y-116076465D01*
X108540795Y-116305273D01*
X108435486Y-116559510D01*
X108381800Y-116829408D01*
X103605001Y-116829408D01*
X103605001Y-109209408D01*
X111836200Y-109209408D01*
X111836200Y-109484592D01*
X111889886Y-109754490D01*
X111995195Y-110008727D01*
X112148080Y-110237535D01*
X112342665Y-110432120D01*
X112571473Y-110585005D01*
X112825710Y-110690314D01*
X113095608Y-110744000D01*
X113370792Y-110744000D01*
X113640690Y-110690314D01*
X113894927Y-110585005D01*
X114123735Y-110432120D01*
X114318320Y-110237535D01*
X114471205Y-110008727D01*
X114576514Y-109754490D01*
X114630200Y-109484592D01*
X114630200Y-109209408D01*
X114576514Y-108939510D01*
X114471205Y-108685273D01*
X114318320Y-108456465D01*
X114123735Y-108261880D01*
X113894927Y-108108995D01*
X113640690Y-108003686D01*
X113370792Y-107950000D01*
X113095608Y-107950000D01*
X112825710Y-108003686D01*
X112571473Y-108108995D01*
X112342665Y-108261880D01*
X112148080Y-108456465D01*
X111995195Y-108685273D01*
X111889886Y-108939510D01*
X111836200Y-109209408D01*
X103605001Y-109209408D01*
X103605001Y-97588908D01*
X108381800Y-97588908D01*
X108381800Y-97864092D01*
X108435486Y-98133990D01*
X108540795Y-98388227D01*
X108693680Y-98617035D01*
X108888265Y-98811620D01*
X109117073Y-98964505D01*
X109371310Y-99069814D01*
X109641208Y-99123500D01*
X109916392Y-99123500D01*
X110186290Y-99069814D01*
X110440527Y-98964505D01*
X110669335Y-98811620D01*
X110863920Y-98617035D01*
X111016805Y-98388227D01*
X111122114Y-98133990D01*
X111175800Y-97864092D01*
X111175800Y-97588908D01*
X111122114Y-97319010D01*
X111016805Y-97064773D01*
X110863920Y-96835965D01*
X110669335Y-96641380D01*
X110440527Y-96488495D01*
X110186290Y-96383186D01*
X109916392Y-96329500D01*
X109641208Y-96329500D01*
X109371310Y-96383186D01*
X109117073Y-96488495D01*
X108888265Y-96641380D01*
X108693680Y-96835965D01*
X108540795Y-97064773D01*
X108435486Y-97319010D01*
X108381800Y-97588908D01*
X103605001Y-97588908D01*
X103605001Y-89968908D01*
X111836200Y-89968908D01*
X111836200Y-90244092D01*
X111889886Y-90513990D01*
X111995195Y-90768227D01*
X112148080Y-90997035D01*
X112342665Y-91191620D01*
X112571473Y-91344505D01*
X112825710Y-91449814D01*
X113095608Y-91503500D01*
X113370792Y-91503500D01*
X113640690Y-91449814D01*
X113894927Y-91344505D01*
X114123735Y-91191620D01*
X114318320Y-90997035D01*
X114471205Y-90768227D01*
X114576514Y-90513990D01*
X114576798Y-90512561D01*
X170415000Y-90512561D01*
X170415000Y-90716439D01*
X170454774Y-90916398D01*
X170532795Y-91104756D01*
X170646063Y-91274274D01*
X170790226Y-91418437D01*
X170959744Y-91531705D01*
X171148102Y-91609726D01*
X171348061Y-91649500D01*
X171551939Y-91649500D01*
X171751898Y-91609726D01*
X171940256Y-91531705D01*
X172109774Y-91418437D01*
X172253937Y-91274274D01*
X172367205Y-91104756D01*
X172445226Y-90916398D01*
X172485000Y-90716439D01*
X172485000Y-90512561D01*
X172445226Y-90312602D01*
X172367205Y-90124244D01*
X172339000Y-90082032D01*
X172339000Y-88315735D01*
X172845105Y-87809630D01*
X172894898Y-87799726D01*
X173083256Y-87721705D01*
X173252774Y-87608437D01*
X173396937Y-87464274D01*
X173510205Y-87294756D01*
X173588226Y-87106398D01*
X173628000Y-86906439D01*
X173628000Y-86702561D01*
X173588226Y-86502602D01*
X173510205Y-86314244D01*
X173396937Y-86144726D01*
X173252774Y-86000563D01*
X173083256Y-85887295D01*
X172894898Y-85809274D01*
X172694939Y-85769500D01*
X172491061Y-85769500D01*
X172291102Y-85809274D01*
X172102744Y-85887295D01*
X171933226Y-86000563D01*
X171789063Y-86144726D01*
X171675795Y-86314244D01*
X171597774Y-86502602D01*
X171587870Y-86552395D01*
X170852264Y-87288001D01*
X170818341Y-87315841D01*
X170707247Y-87451210D01*
X170624697Y-87605650D01*
X170573864Y-87773227D01*
X170561000Y-87903834D01*
X170561000Y-87903840D01*
X170556700Y-87947500D01*
X170561000Y-87991160D01*
X170561001Y-90082031D01*
X170532795Y-90124244D01*
X170454774Y-90312602D01*
X170415000Y-90512561D01*
X114576798Y-90512561D01*
X114630200Y-90244092D01*
X114630200Y-89968908D01*
X114576514Y-89699010D01*
X114471205Y-89444773D01*
X114318320Y-89215965D01*
X114123735Y-89021380D01*
X113894927Y-88868495D01*
X113640690Y-88763186D01*
X113370792Y-88709500D01*
X113095608Y-88709500D01*
X112825710Y-88763186D01*
X112571473Y-88868495D01*
X112342665Y-89021380D01*
X112148080Y-89215965D01*
X111995195Y-89444773D01*
X111889886Y-89699010D01*
X111836200Y-89968908D01*
X103605001Y-89968908D01*
X103605001Y-82352050D01*
X132660000Y-82352050D01*
X132660000Y-82747949D01*
X132681487Y-82966110D01*
X132766401Y-83246033D01*
X132904294Y-83504013D01*
X133089866Y-83730134D01*
X133315986Y-83915706D01*
X133573966Y-84053599D01*
X133853889Y-84138513D01*
X134145000Y-84167185D01*
X134436110Y-84138513D01*
X134716033Y-84053599D01*
X134974013Y-83915706D01*
X135200134Y-83730134D01*
X135385706Y-83504014D01*
X135395000Y-83486626D01*
X135404294Y-83504013D01*
X135589866Y-83730134D01*
X135815986Y-83915706D01*
X136073966Y-84053599D01*
X136353889Y-84138513D01*
X136645000Y-84167185D01*
X136936110Y-84138513D01*
X137216033Y-84053599D01*
X137474013Y-83915706D01*
X137700134Y-83730134D01*
X137885706Y-83504014D01*
X137895000Y-83486626D01*
X137904294Y-83504013D01*
X138089866Y-83730134D01*
X138315986Y-83915706D01*
X138573966Y-84053599D01*
X138853889Y-84138513D01*
X139145000Y-84167185D01*
X139436110Y-84138513D01*
X139716033Y-84053599D01*
X139974013Y-83915706D01*
X140200134Y-83730134D01*
X140385706Y-83504014D01*
X140395000Y-83486626D01*
X140404294Y-83504013D01*
X140589866Y-83730134D01*
X140815986Y-83915706D01*
X141073966Y-84053599D01*
X141353889Y-84138513D01*
X141645000Y-84167185D01*
X141936110Y-84138513D01*
X142216033Y-84053599D01*
X142474013Y-83915706D01*
X142700134Y-83730134D01*
X142752223Y-83666663D01*
X142806595Y-83768386D01*
X142917038Y-83902962D01*
X143051614Y-84013405D01*
X143205150Y-84095472D01*
X143371746Y-84146008D01*
X143545000Y-84163072D01*
X144745000Y-84163072D01*
X144918254Y-84146008D01*
X145084850Y-84095472D01*
X145238386Y-84013405D01*
X145372962Y-83902962D01*
X145483405Y-83768386D01*
X145565472Y-83614850D01*
X145584245Y-83552961D01*
X158248400Y-83552961D01*
X158248400Y-83756839D01*
X158288174Y-83956798D01*
X158366195Y-84145156D01*
X158479463Y-84314674D01*
X158623626Y-84458837D01*
X158793144Y-84572105D01*
X158981502Y-84650126D01*
X159181461Y-84689900D01*
X159385339Y-84689900D01*
X159585298Y-84650126D01*
X159773656Y-84572105D01*
X159815868Y-84543900D01*
X163805532Y-84543900D01*
X163847744Y-84572105D01*
X164036102Y-84650126D01*
X164236061Y-84689900D01*
X164439939Y-84689900D01*
X164639898Y-84650126D01*
X164828256Y-84572105D01*
X164997774Y-84458837D01*
X165141937Y-84314674D01*
X165255205Y-84145156D01*
X165333226Y-83956798D01*
X165373000Y-83756839D01*
X165373000Y-83552961D01*
X165333226Y-83353002D01*
X165255205Y-83164644D01*
X165141937Y-82995126D01*
X164997774Y-82850963D01*
X164828256Y-82737695D01*
X164639898Y-82659674D01*
X164439939Y-82619900D01*
X164357000Y-82619900D01*
X164357000Y-82511561D01*
X164317226Y-82311602D01*
X164239205Y-82123244D01*
X164125937Y-81953726D01*
X163981774Y-81809563D01*
X163812256Y-81696295D01*
X163623898Y-81618274D01*
X163462004Y-81586072D01*
X160920429Y-79044497D01*
X160888226Y-78882602D01*
X160810205Y-78694244D01*
X160701456Y-78531488D01*
X162074611Y-79904645D01*
X162100459Y-79936141D01*
X162131955Y-79961989D01*
X162131958Y-79961992D01*
X162226157Y-80039299D01*
X162320714Y-80089841D01*
X162369566Y-80115953D01*
X162525174Y-80163156D01*
X162643222Y-80174782D01*
X162780944Y-80266805D01*
X162969302Y-80344826D01*
X163169261Y-80384600D01*
X163373139Y-80384600D01*
X163573098Y-80344826D01*
X163761456Y-80266805D01*
X163930974Y-80153537D01*
X164075137Y-80009374D01*
X164188405Y-79839856D01*
X164266426Y-79651498D01*
X164306200Y-79451539D01*
X164306200Y-79247661D01*
X164266426Y-79047702D01*
X164188405Y-78859344D01*
X164075137Y-78689826D01*
X163930974Y-78545663D01*
X163761456Y-78432395D01*
X163573098Y-78354374D01*
X163373139Y-78314600D01*
X163169261Y-78314600D01*
X162969302Y-78354374D01*
X162891454Y-78386620D01*
X161047428Y-76542596D01*
X161015226Y-76380702D01*
X160937205Y-76192344D01*
X160823937Y-76022826D01*
X160679774Y-75878663D01*
X160532954Y-75780561D01*
X166541500Y-75780561D01*
X166541500Y-75984439D01*
X166581274Y-76184398D01*
X166659295Y-76372756D01*
X166751001Y-76510004D01*
X166751000Y-79001497D01*
X166659295Y-79138744D01*
X166581274Y-79327102D01*
X166541500Y-79527061D01*
X166541500Y-79730939D01*
X166581274Y-79930898D01*
X166659295Y-80119256D01*
X166772563Y-80288774D01*
X166916726Y-80432937D01*
X167086244Y-80546205D01*
X167274602Y-80624226D01*
X167474561Y-80664000D01*
X167678439Y-80664000D01*
X167878398Y-80624226D01*
X168066756Y-80546205D01*
X168236274Y-80432937D01*
X168380437Y-80288774D01*
X168493705Y-80119256D01*
X168571726Y-79930898D01*
X168611500Y-79730939D01*
X168611500Y-79527061D01*
X168571726Y-79327102D01*
X168493705Y-79138744D01*
X168402000Y-79001497D01*
X168402000Y-76510003D01*
X168493705Y-76372756D01*
X168571726Y-76184398D01*
X168611500Y-75984439D01*
X168611500Y-75780561D01*
X168571726Y-75580602D01*
X168493705Y-75392244D01*
X168380437Y-75222726D01*
X168236274Y-75078563D01*
X168066756Y-74965295D01*
X167878398Y-74887274D01*
X167678439Y-74847500D01*
X167474561Y-74847500D01*
X167274602Y-74887274D01*
X167086244Y-74965295D01*
X166916726Y-75078563D01*
X166772563Y-75222726D01*
X166659295Y-75392244D01*
X166581274Y-75580602D01*
X166541500Y-75780561D01*
X160532954Y-75780561D01*
X160510256Y-75765395D01*
X160321898Y-75687374D01*
X160121939Y-75647600D01*
X159918061Y-75647600D01*
X159718102Y-75687374D01*
X159529744Y-75765395D01*
X159360226Y-75878663D01*
X159216063Y-76022826D01*
X159102795Y-76192344D01*
X159024774Y-76380702D01*
X158985000Y-76580661D01*
X158985000Y-76784539D01*
X159024774Y-76984498D01*
X159102795Y-77172856D01*
X159216063Y-77342374D01*
X159360226Y-77486537D01*
X159529744Y-77599805D01*
X159718102Y-77677826D01*
X159879996Y-77710028D01*
X160546012Y-78376045D01*
X160383256Y-78267295D01*
X160194898Y-78189274D01*
X159994939Y-78149500D01*
X159791061Y-78149500D01*
X159591102Y-78189274D01*
X159402744Y-78267295D01*
X159233226Y-78380563D01*
X159089063Y-78524726D01*
X158975795Y-78694244D01*
X158897774Y-78882602D01*
X158858000Y-79082561D01*
X158858000Y-79286439D01*
X158897774Y-79486398D01*
X158975795Y-79674756D01*
X159089063Y-79844274D01*
X159233226Y-79988437D01*
X159402744Y-80101705D01*
X159591102Y-80179726D01*
X159752997Y-80211929D01*
X162294572Y-82753504D01*
X162297037Y-82765900D01*
X159815868Y-82765900D01*
X159773656Y-82737695D01*
X159585298Y-82659674D01*
X159385339Y-82619900D01*
X159181461Y-82619900D01*
X158981502Y-82659674D01*
X158793144Y-82737695D01*
X158623626Y-82850963D01*
X158479463Y-82995126D01*
X158366195Y-83164644D01*
X158288174Y-83353002D01*
X158248400Y-83552961D01*
X145584245Y-83552961D01*
X145616008Y-83448254D01*
X145633072Y-83275000D01*
X145633072Y-81825000D01*
X145616008Y-81651746D01*
X145565472Y-81485150D01*
X145483405Y-81331614D01*
X145372962Y-81197038D01*
X145238386Y-81086595D01*
X145084850Y-81004528D01*
X144918254Y-80953992D01*
X144745000Y-80936928D01*
X143545000Y-80936928D01*
X143371746Y-80953992D01*
X143205150Y-81004528D01*
X143051614Y-81086595D01*
X142917038Y-81197038D01*
X142806595Y-81331614D01*
X142752223Y-81433337D01*
X142700134Y-81369866D01*
X142474014Y-81184294D01*
X142216034Y-81046401D01*
X141936111Y-80961487D01*
X141645000Y-80932815D01*
X141353890Y-80961487D01*
X141073967Y-81046401D01*
X140815987Y-81184294D01*
X140589866Y-81369866D01*
X140404294Y-81595986D01*
X140395000Y-81613374D01*
X140385706Y-81595986D01*
X140200134Y-81369866D01*
X139974014Y-81184294D01*
X139716034Y-81046401D01*
X139436111Y-80961487D01*
X139145000Y-80932815D01*
X138853890Y-80961487D01*
X138573967Y-81046401D01*
X138315987Y-81184294D01*
X138089866Y-81369866D01*
X137904294Y-81595986D01*
X137895000Y-81613374D01*
X137885706Y-81595986D01*
X137700134Y-81369866D01*
X137474014Y-81184294D01*
X137216034Y-81046401D01*
X136936111Y-80961487D01*
X136645000Y-80932815D01*
X136353890Y-80961487D01*
X136073967Y-81046401D01*
X135815987Y-81184294D01*
X135589866Y-81369866D01*
X135404294Y-81595986D01*
X135395000Y-81613374D01*
X135385706Y-81595986D01*
X135200134Y-81369866D01*
X134974014Y-81184294D01*
X134716034Y-81046401D01*
X134436111Y-80961487D01*
X134145000Y-80932815D01*
X133853890Y-80961487D01*
X133573967Y-81046401D01*
X133315987Y-81184294D01*
X133089866Y-81369866D01*
X132904294Y-81595986D01*
X132766401Y-81853966D01*
X132681487Y-82133889D01*
X132660000Y-82352050D01*
X103605001Y-82352050D01*
X103605001Y-69658000D01*
X150934928Y-69658000D01*
X150934928Y-71058000D01*
X150947188Y-71182482D01*
X150983498Y-71302180D01*
X151042463Y-71412494D01*
X151121815Y-71509185D01*
X151218506Y-71588537D01*
X151328820Y-71647502D01*
X151448518Y-71683812D01*
X151573000Y-71696072D01*
X151686190Y-71696072D01*
X151640641Y-71714939D01*
X151421987Y-71861038D01*
X151236038Y-72046987D01*
X151089939Y-72265641D01*
X150989304Y-72508595D01*
X150938000Y-72766514D01*
X150938000Y-73029486D01*
X150989304Y-73287405D01*
X151089939Y-73530359D01*
X151236038Y-73749013D01*
X151421987Y-73934962D01*
X151640641Y-74081061D01*
X151850530Y-74168000D01*
X151640641Y-74254939D01*
X151421987Y-74401038D01*
X151236038Y-74586987D01*
X151089939Y-74805641D01*
X150989304Y-75048595D01*
X150938000Y-75306514D01*
X150938000Y-75569486D01*
X150989304Y-75827405D01*
X151089939Y-76070359D01*
X151236038Y-76289013D01*
X151421987Y-76474962D01*
X151640641Y-76621061D01*
X151883595Y-76721696D01*
X152141514Y-76773000D01*
X152404486Y-76773000D01*
X152662405Y-76721696D01*
X152905359Y-76621061D01*
X153124013Y-76474962D01*
X153239706Y-76359269D01*
X154071336Y-76359269D01*
X154130797Y-76593037D01*
X154369242Y-76703934D01*
X154624740Y-76766183D01*
X154887473Y-76777390D01*
X155147344Y-76737125D01*
X155394366Y-76646935D01*
X155495203Y-76593037D01*
X155554664Y-76359269D01*
X154813000Y-75617605D01*
X154071336Y-76359269D01*
X153239706Y-76359269D01*
X153309962Y-76289013D01*
X153456061Y-76070359D01*
X153544621Y-75856556D01*
X153604065Y-76019366D01*
X153657963Y-76120203D01*
X153891731Y-76179664D01*
X154633395Y-75438000D01*
X154992605Y-75438000D01*
X155734269Y-76179664D01*
X155968037Y-76120203D01*
X156078934Y-75881758D01*
X156141183Y-75626260D01*
X156152390Y-75363527D01*
X156112125Y-75103656D01*
X156021935Y-74856634D01*
X155968037Y-74755797D01*
X155734269Y-74696336D01*
X154992605Y-75438000D01*
X154633395Y-75438000D01*
X153891731Y-74696336D01*
X153657963Y-74755797D01*
X153547066Y-74994242D01*
X153542294Y-75013827D01*
X153456061Y-74805641D01*
X153309962Y-74586987D01*
X153124013Y-74401038D01*
X152905359Y-74254939D01*
X152695470Y-74168000D01*
X152905359Y-74081061D01*
X153124013Y-73934962D01*
X153309962Y-73749013D01*
X153456061Y-73530359D01*
X153543000Y-73320470D01*
X153629939Y-73530359D01*
X153776038Y-73749013D01*
X153961987Y-73934962D01*
X154180641Y-74081061D01*
X154394444Y-74169621D01*
X154231634Y-74229065D01*
X154130797Y-74282963D01*
X154071336Y-74516731D01*
X154813000Y-75258395D01*
X155554664Y-74516731D01*
X155495203Y-74282963D01*
X155256758Y-74172066D01*
X155237173Y-74167294D01*
X155445359Y-74081061D01*
X155664013Y-73934962D01*
X155849962Y-73749013D01*
X155996061Y-73530359D01*
X156096696Y-73287405D01*
X156148000Y-73029486D01*
X156148000Y-72766514D01*
X156096696Y-72508595D01*
X155996061Y-72265641D01*
X155849962Y-72046987D01*
X155664013Y-71861038D01*
X155445359Y-71714939D01*
X155235470Y-71628000D01*
X155445359Y-71541061D01*
X155664013Y-71394962D01*
X155849962Y-71209013D01*
X155996061Y-70990359D01*
X156037191Y-70891061D01*
X160191500Y-70891061D01*
X160191500Y-71094939D01*
X160231274Y-71294898D01*
X160309295Y-71483256D01*
X160422563Y-71652774D01*
X160566726Y-71796937D01*
X160736244Y-71910205D01*
X160924602Y-71988226D01*
X161124561Y-72028000D01*
X161328439Y-72028000D01*
X161528398Y-71988226D01*
X161716756Y-71910205D01*
X161854003Y-71818500D01*
X165678997Y-71818500D01*
X165816244Y-71910205D01*
X166004602Y-71988226D01*
X166204561Y-72028000D01*
X166408439Y-72028000D01*
X166608398Y-71988226D01*
X166796756Y-71910205D01*
X166966274Y-71796937D01*
X167110437Y-71652774D01*
X167223705Y-71483256D01*
X167301726Y-71294898D01*
X167341500Y-71094939D01*
X167341500Y-70891061D01*
X167301726Y-70691102D01*
X167223705Y-70502744D01*
X167110437Y-70333226D01*
X166966274Y-70189063D01*
X166796756Y-70075795D01*
X166608398Y-69997774D01*
X166408439Y-69958000D01*
X166204561Y-69958000D01*
X166004602Y-69997774D01*
X165816244Y-70075795D01*
X165678997Y-70167500D01*
X161854003Y-70167500D01*
X161716756Y-70075795D01*
X161528398Y-69997774D01*
X161328439Y-69958000D01*
X161124561Y-69958000D01*
X160924602Y-69997774D01*
X160736244Y-70075795D01*
X160566726Y-70189063D01*
X160422563Y-70333226D01*
X160309295Y-70502744D01*
X160231274Y-70691102D01*
X160191500Y-70891061D01*
X156037191Y-70891061D01*
X156096696Y-70747405D01*
X156148000Y-70489486D01*
X156148000Y-70226514D01*
X156096696Y-69968595D01*
X155996061Y-69725641D01*
X155849962Y-69506987D01*
X155664013Y-69321038D01*
X155445359Y-69174939D01*
X155202405Y-69074304D01*
X154944486Y-69023000D01*
X154681514Y-69023000D01*
X154423595Y-69074304D01*
X154180641Y-69174939D01*
X153961987Y-69321038D01*
X153776038Y-69506987D01*
X153629939Y-69725641D01*
X153611072Y-69771190D01*
X153611072Y-69658000D01*
X153598812Y-69533518D01*
X153562502Y-69413820D01*
X153503537Y-69303506D01*
X153424185Y-69206815D01*
X153327494Y-69127463D01*
X153217180Y-69068498D01*
X153097482Y-69032188D01*
X152973000Y-69019928D01*
X151573000Y-69019928D01*
X151448518Y-69032188D01*
X151328820Y-69068498D01*
X151218506Y-69127463D01*
X151121815Y-69206815D01*
X151042463Y-69303506D01*
X150983498Y-69413820D01*
X150947188Y-69533518D01*
X150934928Y-69658000D01*
X103605001Y-69658000D01*
X103605001Y-59861279D01*
X134772282Y-59861279D01*
X134772282Y-60065157D01*
X134812056Y-60265116D01*
X134890077Y-60453474D01*
X135003345Y-60622992D01*
X135147508Y-60767155D01*
X135317026Y-60880423D01*
X135505384Y-60958444D01*
X135705343Y-60998218D01*
X135909221Y-60998218D01*
X136109180Y-60958444D01*
X136297538Y-60880423D01*
X136463546Y-60769500D01*
X137421497Y-60769500D01*
X137558744Y-60861205D01*
X137747102Y-60939226D01*
X137947061Y-60979000D01*
X138150939Y-60979000D01*
X138350898Y-60939226D01*
X138539256Y-60861205D01*
X138708774Y-60747937D01*
X138852937Y-60603774D01*
X138966205Y-60434256D01*
X139044226Y-60245898D01*
X139084000Y-60045939D01*
X139084000Y-59842061D01*
X139044226Y-59642102D01*
X138966205Y-59453744D01*
X138852937Y-59284226D01*
X138708774Y-59140063D01*
X138539256Y-59026795D01*
X138350898Y-58948774D01*
X138150939Y-58909000D01*
X137947061Y-58909000D01*
X137747102Y-58948774D01*
X137558744Y-59026795D01*
X137421497Y-59118500D01*
X136406023Y-59118500D01*
X136297538Y-59046013D01*
X136109180Y-58967992D01*
X135909221Y-58928218D01*
X135705343Y-58928218D01*
X135505384Y-58967992D01*
X135317026Y-59046013D01*
X135147508Y-59159281D01*
X135003345Y-59303444D01*
X134890077Y-59472962D01*
X134812056Y-59661320D01*
X134772282Y-59861279D01*
X103605001Y-59861279D01*
X103605001Y-56604554D01*
X107530900Y-56604554D01*
X107530900Y-57187446D01*
X107644616Y-57759138D01*
X107867679Y-58297660D01*
X108191517Y-58782316D01*
X108603684Y-59194483D01*
X109088340Y-59518321D01*
X109626862Y-59741384D01*
X110198554Y-59855100D01*
X110781446Y-59855100D01*
X111353138Y-59741384D01*
X111891660Y-59518321D01*
X112376316Y-59194483D01*
X112788483Y-58782316D01*
X113112321Y-58297660D01*
X113335384Y-57759138D01*
X113449100Y-57187446D01*
X113449100Y-56952050D01*
X122660000Y-56952050D01*
X122660000Y-57347949D01*
X122681487Y-57566110D01*
X122766401Y-57846033D01*
X122904294Y-58104013D01*
X123089866Y-58330134D01*
X123315986Y-58515706D01*
X123573966Y-58653599D01*
X123853889Y-58738513D01*
X124145000Y-58767185D01*
X124436110Y-58738513D01*
X124716033Y-58653599D01*
X124974013Y-58515706D01*
X125200134Y-58330134D01*
X125385706Y-58104014D01*
X125395000Y-58086626D01*
X125404294Y-58104013D01*
X125589866Y-58330134D01*
X125815986Y-58515706D01*
X126073966Y-58653599D01*
X126353889Y-58738513D01*
X126645000Y-58767185D01*
X126936110Y-58738513D01*
X127216033Y-58653599D01*
X127474013Y-58515706D01*
X127700134Y-58330134D01*
X127885706Y-58104014D01*
X127895000Y-58086626D01*
X127904294Y-58104013D01*
X128089866Y-58330134D01*
X128315986Y-58515706D01*
X128573966Y-58653599D01*
X128853889Y-58738513D01*
X129145000Y-58767185D01*
X129436110Y-58738513D01*
X129716033Y-58653599D01*
X129974013Y-58515706D01*
X130200134Y-58330134D01*
X130385706Y-58104014D01*
X130395000Y-58086626D01*
X130404294Y-58104013D01*
X130589866Y-58330134D01*
X130815986Y-58515706D01*
X131073966Y-58653599D01*
X131353889Y-58738513D01*
X131645000Y-58767185D01*
X131936110Y-58738513D01*
X132216033Y-58653599D01*
X132474013Y-58515706D01*
X132700134Y-58330134D01*
X132885706Y-58104014D01*
X132895000Y-58086626D01*
X132904294Y-58104013D01*
X133089866Y-58330134D01*
X133315986Y-58515706D01*
X133573966Y-58653599D01*
X133853889Y-58738513D01*
X134145000Y-58767185D01*
X134436110Y-58738513D01*
X134716033Y-58653599D01*
X134974013Y-58515706D01*
X135200134Y-58330134D01*
X135385706Y-58104014D01*
X135395000Y-58086626D01*
X135404294Y-58104013D01*
X135589866Y-58330134D01*
X135815986Y-58515706D01*
X136073966Y-58653599D01*
X136353889Y-58738513D01*
X136645000Y-58767185D01*
X136936110Y-58738513D01*
X137216033Y-58653599D01*
X137474013Y-58515706D01*
X137700134Y-58330134D01*
X137885706Y-58104014D01*
X137895000Y-58086626D01*
X137904294Y-58104013D01*
X138089866Y-58330134D01*
X138315986Y-58515706D01*
X138573966Y-58653599D01*
X138853889Y-58738513D01*
X139145000Y-58767185D01*
X139436110Y-58738513D01*
X139716033Y-58653599D01*
X139974013Y-58515706D01*
X140200134Y-58330134D01*
X140385706Y-58104014D01*
X140399462Y-58078278D01*
X140555951Y-58284429D01*
X140773807Y-58477496D01*
X141025142Y-58624352D01*
X141288110Y-58716476D01*
X141518000Y-58595155D01*
X141518000Y-57277000D01*
X141498000Y-57277000D01*
X141498000Y-57023000D01*
X141518000Y-57023000D01*
X141518000Y-55704845D01*
X141772000Y-55704845D01*
X141772000Y-57023000D01*
X141792000Y-57023000D01*
X141792000Y-57277000D01*
X141772000Y-57277000D01*
X141772000Y-58595155D01*
X142001890Y-58716476D01*
X142264858Y-58624352D01*
X142516193Y-58477496D01*
X142734049Y-58284429D01*
X142750286Y-58263039D01*
X142806595Y-58368386D01*
X142917038Y-58502962D01*
X143051614Y-58613405D01*
X143205150Y-58695472D01*
X143371746Y-58746008D01*
X143545000Y-58763072D01*
X144745000Y-58763072D01*
X144918254Y-58746008D01*
X145084850Y-58695472D01*
X145238386Y-58613405D01*
X145372962Y-58502962D01*
X145483405Y-58368386D01*
X145565472Y-58214850D01*
X145616008Y-58048254D01*
X145633072Y-57875000D01*
X145633072Y-56794061D01*
X154159000Y-56794061D01*
X154159000Y-56997939D01*
X154198774Y-57197898D01*
X154276795Y-57386256D01*
X154368501Y-57523504D01*
X154368500Y-59506997D01*
X154276795Y-59644244D01*
X154198774Y-59832602D01*
X154159000Y-60032561D01*
X154159000Y-60236439D01*
X154198774Y-60436398D01*
X154276795Y-60624756D01*
X154390063Y-60794274D01*
X154534226Y-60938437D01*
X154703744Y-61051705D01*
X154892102Y-61129726D01*
X155092061Y-61169500D01*
X155295939Y-61169500D01*
X155495898Y-61129726D01*
X155684256Y-61051705D01*
X155853774Y-60938437D01*
X155997937Y-60794274D01*
X156111205Y-60624756D01*
X156189226Y-60436398D01*
X156203685Y-60363709D01*
X156230774Y-60499898D01*
X156308795Y-60688256D01*
X156422063Y-60857774D01*
X156566226Y-61001937D01*
X156735744Y-61115205D01*
X156924102Y-61193226D01*
X157124061Y-61233000D01*
X157327939Y-61233000D01*
X157527898Y-61193226D01*
X157716256Y-61115205D01*
X157885774Y-61001937D01*
X158029937Y-60857774D01*
X158143205Y-60688256D01*
X158221226Y-60499898D01*
X158261000Y-60299939D01*
X158261000Y-60096061D01*
X158221226Y-59896102D01*
X158143205Y-59707744D01*
X158051500Y-59570497D01*
X158051500Y-57523503D01*
X158143205Y-57386256D01*
X158221226Y-57197898D01*
X158261000Y-56997939D01*
X158261000Y-56794061D01*
X158223306Y-56604554D01*
X181444900Y-56604554D01*
X181444900Y-57187446D01*
X181558616Y-57759138D01*
X181781679Y-58297660D01*
X182105517Y-58782316D01*
X182517684Y-59194483D01*
X183002340Y-59518321D01*
X183540862Y-59741384D01*
X184112554Y-59855100D01*
X184695446Y-59855100D01*
X185267138Y-59741384D01*
X185805660Y-59518321D01*
X186290316Y-59194483D01*
X186702483Y-58782316D01*
X187026321Y-58297660D01*
X187249384Y-57759138D01*
X187363100Y-57187446D01*
X187363100Y-56604554D01*
X187249384Y-56032862D01*
X187026321Y-55494340D01*
X186702483Y-55009684D01*
X186290316Y-54597517D01*
X185805660Y-54273679D01*
X185267138Y-54050616D01*
X184695446Y-53936900D01*
X184112554Y-53936900D01*
X183540862Y-54050616D01*
X183002340Y-54273679D01*
X182517684Y-54597517D01*
X182105517Y-55009684D01*
X181781679Y-55494340D01*
X181558616Y-56032862D01*
X181444900Y-56604554D01*
X158223306Y-56604554D01*
X158221226Y-56594102D01*
X158143205Y-56405744D01*
X158029937Y-56236226D01*
X157885774Y-56092063D01*
X157716256Y-55978795D01*
X157527898Y-55900774D01*
X157327939Y-55861000D01*
X157124061Y-55861000D01*
X156924102Y-55900774D01*
X156735744Y-55978795D01*
X156566226Y-56092063D01*
X156422063Y-56236226D01*
X156308795Y-56405744D01*
X156230774Y-56594102D01*
X156210000Y-56698541D01*
X156189226Y-56594102D01*
X156111205Y-56405744D01*
X155997937Y-56236226D01*
X155853774Y-56092063D01*
X155684256Y-55978795D01*
X155495898Y-55900774D01*
X155295939Y-55861000D01*
X155092061Y-55861000D01*
X154892102Y-55900774D01*
X154703744Y-55978795D01*
X154534226Y-56092063D01*
X154390063Y-56236226D01*
X154276795Y-56405744D01*
X154198774Y-56594102D01*
X154159000Y-56794061D01*
X145633072Y-56794061D01*
X145633072Y-56425000D01*
X145616008Y-56251746D01*
X145565472Y-56085150D01*
X145483405Y-55931614D01*
X145372962Y-55797038D01*
X145238386Y-55686595D01*
X145084850Y-55604528D01*
X144918254Y-55553992D01*
X144745000Y-55536928D01*
X143545000Y-55536928D01*
X143371746Y-55553992D01*
X143205150Y-55604528D01*
X143051614Y-55686595D01*
X142917038Y-55797038D01*
X142806595Y-55931614D01*
X142750286Y-56036961D01*
X142734049Y-56015571D01*
X142516193Y-55822504D01*
X142264858Y-55675648D01*
X142001890Y-55583524D01*
X141772000Y-55704845D01*
X141518000Y-55704845D01*
X141288110Y-55583524D01*
X141025142Y-55675648D01*
X140773807Y-55822504D01*
X140555951Y-56015571D01*
X140399462Y-56221722D01*
X140385706Y-56195986D01*
X140200134Y-55969866D01*
X139974014Y-55784294D01*
X139716034Y-55646401D01*
X139436111Y-55561487D01*
X139145000Y-55532815D01*
X138853890Y-55561487D01*
X138573967Y-55646401D01*
X138315987Y-55784294D01*
X138089866Y-55969866D01*
X137904294Y-56195986D01*
X137895000Y-56213374D01*
X137885706Y-56195986D01*
X137700134Y-55969866D01*
X137474014Y-55784294D01*
X137216034Y-55646401D01*
X136936111Y-55561487D01*
X136645000Y-55532815D01*
X136353890Y-55561487D01*
X136073967Y-55646401D01*
X135815987Y-55784294D01*
X135589866Y-55969866D01*
X135404294Y-56195986D01*
X135395000Y-56213374D01*
X135385706Y-56195986D01*
X135200134Y-55969866D01*
X134974014Y-55784294D01*
X134716034Y-55646401D01*
X134436111Y-55561487D01*
X134145000Y-55532815D01*
X133853890Y-55561487D01*
X133573967Y-55646401D01*
X133315987Y-55784294D01*
X133089866Y-55969866D01*
X132904294Y-56195986D01*
X132895000Y-56213374D01*
X132885706Y-56195986D01*
X132700134Y-55969866D01*
X132474014Y-55784294D01*
X132216034Y-55646401D01*
X131936111Y-55561487D01*
X131645000Y-55532815D01*
X131353890Y-55561487D01*
X131073967Y-55646401D01*
X130815987Y-55784294D01*
X130589866Y-55969866D01*
X130404294Y-56195986D01*
X130395000Y-56213374D01*
X130385706Y-56195986D01*
X130200134Y-55969866D01*
X129974014Y-55784294D01*
X129716034Y-55646401D01*
X129436111Y-55561487D01*
X129145000Y-55532815D01*
X128853890Y-55561487D01*
X128573967Y-55646401D01*
X128315987Y-55784294D01*
X128089866Y-55969866D01*
X127904294Y-56195986D01*
X127895000Y-56213374D01*
X127885706Y-56195986D01*
X127700134Y-55969866D01*
X127474014Y-55784294D01*
X127216034Y-55646401D01*
X126936111Y-55561487D01*
X126645000Y-55532815D01*
X126353890Y-55561487D01*
X126073967Y-55646401D01*
X125815987Y-55784294D01*
X125589866Y-55969866D01*
X125404294Y-56195986D01*
X125395000Y-56213374D01*
X125385706Y-56195986D01*
X125200134Y-55969866D01*
X124974014Y-55784294D01*
X124716034Y-55646401D01*
X124436111Y-55561487D01*
X124145000Y-55532815D01*
X123853890Y-55561487D01*
X123573967Y-55646401D01*
X123315987Y-55784294D01*
X123089866Y-55969866D01*
X122904294Y-56195986D01*
X122766401Y-56453966D01*
X122681487Y-56733889D01*
X122660000Y-56952050D01*
X113449100Y-56952050D01*
X113449100Y-56604554D01*
X113335384Y-56032862D01*
X113112321Y-55494340D01*
X112788483Y-55009684D01*
X112376316Y-54597517D01*
X111891660Y-54273679D01*
X111353138Y-54050616D01*
X110781446Y-53936900D01*
X110198554Y-53936900D01*
X109626862Y-54050616D01*
X109088340Y-54273679D01*
X108603684Y-54597517D01*
X108191517Y-55009684D01*
X107867679Y-55494340D01*
X107644616Y-56032862D01*
X107530900Y-56604554D01*
X103605001Y-56604554D01*
X103605001Y-55908887D01*
X103676376Y-55001978D01*
X103881982Y-54145567D01*
X104219026Y-53331873D01*
X104679209Y-52580924D01*
X105251205Y-51911204D01*
X105920925Y-51339208D01*
X106671879Y-50879022D01*
X107485571Y-50541980D01*
X108341979Y-50336375D01*
X109248877Y-50265001D01*
X185391139Y-50265001D01*
X186298023Y-50336374D01*
M02*
