G04 #@! TF.GenerationSoftware,KiCad,Pcbnew,5.1.5-52549c5~84~ubuntu18.04.1*
G04 #@! TF.CreationDate,2020-02-07T16:49:07-05:00*
G04 #@! TF.ProjectId,solenoidTrigger,736f6c65-6e6f-4696-9454-726967676572,rev?*
G04 #@! TF.SameCoordinates,Original*
G04 #@! TF.FileFunction,Legend,Top*
G04 #@! TF.FilePolarity,Positive*
%FSLAX46Y46*%
G04 Gerber Fmt 4.6, Leading zero omitted, Abs format (unit mm)*
G04 Created by KiCad (PCBNEW 5.1.5-52549c5~84~ubuntu18.04.1) date 2020-02-07 16:49:07*
%MOMM*%
%LPD*%
G04 APERTURE LIST*
%ADD10C,0.300000*%
%ADD11C,0.010000*%
%ADD12C,0.152400*%
%ADD13C,0.120000*%
%ADD14C,0.100000*%
%ADD15C,0.150000*%
G04 APERTURE END LIST*
D10*
X113326628Y-65244685D02*
X114040914Y-64744685D01*
X113326628Y-64387542D02*
X114826628Y-64387542D01*
X114826628Y-64958971D01*
X114755200Y-65101828D01*
X114683771Y-65173257D01*
X114540914Y-65244685D01*
X114326628Y-65244685D01*
X114183771Y-65173257D01*
X114112342Y-65101828D01*
X114040914Y-64958971D01*
X114040914Y-64387542D01*
X113326628Y-66101828D02*
X113398057Y-65958971D01*
X113469485Y-65887542D01*
X113612342Y-65816114D01*
X114040914Y-65816114D01*
X114183771Y-65887542D01*
X114255200Y-65958971D01*
X114326628Y-66101828D01*
X114326628Y-66316114D01*
X114255200Y-66458971D01*
X114183771Y-66530400D01*
X114040914Y-66601828D01*
X113612342Y-66601828D01*
X113469485Y-66530400D01*
X113398057Y-66458971D01*
X113326628Y-66316114D01*
X113326628Y-66101828D01*
X113326628Y-67244685D02*
X114826628Y-67244685D01*
X113326628Y-67887542D02*
X114112342Y-67887542D01*
X114255200Y-67816114D01*
X114326628Y-67673257D01*
X114326628Y-67458971D01*
X114255200Y-67316114D01*
X114183771Y-67244685D01*
X113326628Y-68601828D02*
X114326628Y-68601828D01*
X114826628Y-68601828D02*
X114755200Y-68530400D01*
X114683771Y-68601828D01*
X114755200Y-68673257D01*
X114826628Y-68601828D01*
X114683771Y-68601828D01*
X113326628Y-69530400D02*
X113398057Y-69387542D01*
X113540914Y-69316114D01*
X114826628Y-69316114D01*
X113755200Y-71173257D02*
X113755200Y-71887542D01*
X113326628Y-71030400D02*
X114826628Y-71530400D01*
X113326628Y-72030400D01*
X114326628Y-73173257D02*
X113112342Y-73173257D01*
X112969485Y-73101828D01*
X112898057Y-73030400D01*
X112826628Y-72887542D01*
X112826628Y-72673257D01*
X112898057Y-72530400D01*
X113398057Y-73173257D02*
X113326628Y-73030400D01*
X113326628Y-72744685D01*
X113398057Y-72601828D01*
X113469485Y-72530400D01*
X113612342Y-72458971D01*
X114040914Y-72458971D01*
X114183771Y-72530400D01*
X114255200Y-72601828D01*
X114326628Y-72744685D01*
X114326628Y-73030400D01*
X114255200Y-73173257D01*
X113326628Y-74530400D02*
X114112342Y-74530400D01*
X114255200Y-74458971D01*
X114326628Y-74316114D01*
X114326628Y-74030400D01*
X114255200Y-73887542D01*
X113398057Y-74530400D02*
X113326628Y-74387542D01*
X113326628Y-74030400D01*
X113398057Y-73887542D01*
X113540914Y-73816114D01*
X113683771Y-73816114D01*
X113826628Y-73887542D01*
X113898057Y-74030400D01*
X113898057Y-74387542D01*
X113969485Y-74530400D01*
X113326628Y-75244685D02*
X114326628Y-75244685D01*
X114040914Y-75244685D02*
X114183771Y-75316114D01*
X114255200Y-75387542D01*
X114326628Y-75530400D01*
X114326628Y-75673257D01*
X114326628Y-76030400D02*
X113326628Y-76316114D01*
X114040914Y-76601828D01*
X113326628Y-76887542D01*
X114326628Y-77173257D01*
X113326628Y-78387542D02*
X114112342Y-78387542D01*
X114255200Y-78316114D01*
X114326628Y-78173257D01*
X114326628Y-77887542D01*
X114255200Y-77744685D01*
X113398057Y-78387542D02*
X113326628Y-78244685D01*
X113326628Y-77887542D01*
X113398057Y-77744685D01*
X113540914Y-77673257D01*
X113683771Y-77673257D01*
X113826628Y-77744685D01*
X113898057Y-77887542D01*
X113898057Y-78244685D01*
X113969485Y-78387542D01*
X113326628Y-79316114D02*
X113398057Y-79173257D01*
X113540914Y-79101828D01*
X114826628Y-79101828D01*
X112133771Y-67637542D02*
X112205200Y-67708971D01*
X112276628Y-67851828D01*
X112276628Y-68208971D01*
X112205200Y-68351828D01*
X112133771Y-68423257D01*
X111990914Y-68494685D01*
X111848057Y-68494685D01*
X111633771Y-68423257D01*
X110776628Y-67566114D01*
X110776628Y-68494685D01*
X112348057Y-70208971D02*
X110419485Y-68923257D01*
X112276628Y-70566114D02*
X112276628Y-71566114D01*
X110776628Y-70923257D01*
X112348057Y-73208971D02*
X110419485Y-71923257D01*
X112133771Y-73637542D02*
X112205200Y-73708971D01*
X112276628Y-73851828D01*
X112276628Y-74208971D01*
X112205200Y-74351828D01*
X112133771Y-74423257D01*
X111990914Y-74494685D01*
X111848057Y-74494685D01*
X111633771Y-74423257D01*
X110776628Y-73566114D01*
X110776628Y-74494685D01*
X112276628Y-75423257D02*
X112276628Y-75566114D01*
X112205200Y-75708971D01*
X112133771Y-75780400D01*
X111990914Y-75851828D01*
X111705200Y-75923257D01*
X111348057Y-75923257D01*
X111062342Y-75851828D01*
X110919485Y-75780400D01*
X110848057Y-75708971D01*
X110776628Y-75566114D01*
X110776628Y-75423257D01*
X110848057Y-75280400D01*
X110919485Y-75208971D01*
X111062342Y-75137542D01*
X111348057Y-75066114D01*
X111705200Y-75066114D01*
X111990914Y-75137542D01*
X112133771Y-75208971D01*
X112205200Y-75280400D01*
X112276628Y-75423257D01*
X109726628Y-66566114D02*
X108226628Y-67066114D01*
X109726628Y-67566114D01*
X108298057Y-68637542D02*
X108226628Y-68494685D01*
X108226628Y-68208971D01*
X108298057Y-68066114D01*
X108440914Y-67994685D01*
X109012342Y-67994685D01*
X109155200Y-68066114D01*
X109226628Y-68208971D01*
X109226628Y-68494685D01*
X109155200Y-68637542D01*
X109012342Y-68708971D01*
X108869485Y-68708971D01*
X108726628Y-67994685D01*
X108226628Y-69351828D02*
X109226628Y-69351828D01*
X108940914Y-69351828D02*
X109083771Y-69423257D01*
X109155200Y-69494685D01*
X109226628Y-69637542D01*
X109226628Y-69780400D01*
X108298057Y-70208971D02*
X108226628Y-70351828D01*
X108226628Y-70637542D01*
X108298057Y-70780400D01*
X108440914Y-70851828D01*
X108512342Y-70851828D01*
X108655200Y-70780400D01*
X108726628Y-70637542D01*
X108726628Y-70423257D01*
X108798057Y-70280400D01*
X108940914Y-70208971D01*
X109012342Y-70208971D01*
X109155200Y-70280400D01*
X109226628Y-70423257D01*
X109226628Y-70637542D01*
X109155200Y-70780400D01*
X108226628Y-71494685D02*
X109226628Y-71494685D01*
X109726628Y-71494685D02*
X109655200Y-71423257D01*
X109583771Y-71494685D01*
X109655200Y-71566114D01*
X109726628Y-71494685D01*
X109583771Y-71494685D01*
X108226628Y-72423257D02*
X108298057Y-72280400D01*
X108369485Y-72208971D01*
X108512342Y-72137542D01*
X108940914Y-72137542D01*
X109083771Y-72208971D01*
X109155200Y-72280400D01*
X109226628Y-72423257D01*
X109226628Y-72637542D01*
X109155200Y-72780400D01*
X109083771Y-72851828D01*
X108940914Y-72923257D01*
X108512342Y-72923257D01*
X108369485Y-72851828D01*
X108298057Y-72780400D01*
X108226628Y-72637542D01*
X108226628Y-72423257D01*
X109226628Y-73566114D02*
X108226628Y-73566114D01*
X109083771Y-73566114D02*
X109155200Y-73637542D01*
X109226628Y-73780400D01*
X109226628Y-73994685D01*
X109155200Y-74137542D01*
X109012342Y-74208971D01*
X108226628Y-74208971D01*
X108226628Y-76851828D02*
X108226628Y-75994685D01*
X108226628Y-76423257D02*
X109726628Y-76423257D01*
X109512342Y-76280400D01*
X109369485Y-76137542D01*
X109298057Y-75994685D01*
D11*
G36*
X136120270Y-91325674D02*
G01*
X135628369Y-91656109D01*
X135081546Y-92089495D01*
X134520200Y-92588827D01*
X133984729Y-93117100D01*
X133515533Y-93637309D01*
X133295163Y-93913469D01*
X132837896Y-94580064D01*
X132465057Y-95245945D01*
X132182673Y-95891452D01*
X131996770Y-96496923D01*
X131913375Y-97042697D01*
X131938513Y-97509111D01*
X132078211Y-97876504D01*
X132079749Y-97878900D01*
X132161928Y-98016594D01*
X132179319Y-98065237D01*
X132092843Y-98043485D01*
X131879968Y-97988569D01*
X131578116Y-97910166D01*
X131394200Y-97862227D01*
X130401397Y-97560684D01*
X129569083Y-97215254D01*
X128893625Y-96823739D01*
X128371392Y-96383943D01*
X127998751Y-95893666D01*
X127930340Y-95766576D01*
X127748608Y-95235833D01*
X127726947Y-94710432D01*
X127856097Y-94196126D01*
X128126797Y-93698669D01*
X128529784Y-93223815D01*
X129055799Y-92777318D01*
X129695580Y-92364931D01*
X130439866Y-91992409D01*
X131279395Y-91665506D01*
X132204907Y-91389974D01*
X133207140Y-91171569D01*
X134276833Y-91016045D01*
X135404726Y-90929154D01*
X135734682Y-90917782D01*
X136857831Y-90889615D01*
X136120270Y-91325674D01*
G37*
X136120270Y-91325674D02*
X135628369Y-91656109D01*
X135081546Y-92089495D01*
X134520200Y-92588827D01*
X133984729Y-93117100D01*
X133515533Y-93637309D01*
X133295163Y-93913469D01*
X132837896Y-94580064D01*
X132465057Y-95245945D01*
X132182673Y-95891452D01*
X131996770Y-96496923D01*
X131913375Y-97042697D01*
X131938513Y-97509111D01*
X132078211Y-97876504D01*
X132079749Y-97878900D01*
X132161928Y-98016594D01*
X132179319Y-98065237D01*
X132092843Y-98043485D01*
X131879968Y-97988569D01*
X131578116Y-97910166D01*
X131394200Y-97862227D01*
X130401397Y-97560684D01*
X129569083Y-97215254D01*
X128893625Y-96823739D01*
X128371392Y-96383943D01*
X127998751Y-95893666D01*
X127930340Y-95766576D01*
X127748608Y-95235833D01*
X127726947Y-94710432D01*
X127856097Y-94196126D01*
X128126797Y-93698669D01*
X128529784Y-93223815D01*
X129055799Y-92777318D01*
X129695580Y-92364931D01*
X130439866Y-91992409D01*
X131279395Y-91665506D01*
X132204907Y-91389974D01*
X133207140Y-91171569D01*
X134276833Y-91016045D01*
X135404726Y-90929154D01*
X135734682Y-90917782D01*
X136857831Y-90889615D01*
X136120270Y-91325674D01*
G36*
X138774183Y-91070257D02*
G01*
X138924657Y-91110271D01*
X139190828Y-91178576D01*
X139524029Y-91262725D01*
X139649200Y-91294047D01*
X140281723Y-91487988D01*
X140920366Y-91748034D01*
X141518909Y-92051326D01*
X142031128Y-92375001D01*
X142337664Y-92623769D01*
X142758928Y-93106850D01*
X143018410Y-93603695D01*
X143122408Y-94107517D01*
X143077221Y-94611528D01*
X142889149Y-95108941D01*
X142564490Y-95592969D01*
X142109543Y-96056826D01*
X141530608Y-96493724D01*
X140833983Y-96896876D01*
X140025967Y-97259496D01*
X139112860Y-97574795D01*
X138100959Y-97835988D01*
X137368725Y-97977698D01*
X136911189Y-98051273D01*
X136594427Y-98091652D01*
X136393488Y-98100426D01*
X136283425Y-98079183D01*
X136248188Y-98049088D01*
X136189274Y-97995328D01*
X136179163Y-98039133D01*
X136097519Y-98098804D01*
X135868725Y-98138373D01*
X135648700Y-98151238D01*
X135281819Y-98162454D01*
X134910667Y-98174666D01*
X134717342Y-98181506D01*
X134483024Y-98178714D01*
X134338063Y-98154898D01*
X134315175Y-98135557D01*
X134249494Y-98105779D01*
X134167034Y-98121397D01*
X134159537Y-98108262D01*
X134276323Y-98030553D01*
X134492798Y-97904385D01*
X134529918Y-97883627D01*
X135322252Y-97373540D01*
X136105164Y-96726976D01*
X136687672Y-96154166D01*
X137364745Y-95388663D01*
X137909275Y-94643063D01*
X138347951Y-93879656D01*
X138457349Y-93653485D01*
X138745404Y-92947434D01*
X138904157Y-92342050D01*
X138934505Y-91829735D01*
X138837350Y-91402892D01*
X138744705Y-91224581D01*
X138665694Y-91085995D01*
X138689777Y-91051175D01*
X138774183Y-91070257D01*
G37*
X138774183Y-91070257D02*
X138924657Y-91110271D01*
X139190828Y-91178576D01*
X139524029Y-91262725D01*
X139649200Y-91294047D01*
X140281723Y-91487988D01*
X140920366Y-91748034D01*
X141518909Y-92051326D01*
X142031128Y-92375001D01*
X142337664Y-92623769D01*
X142758928Y-93106850D01*
X143018410Y-93603695D01*
X143122408Y-94107517D01*
X143077221Y-94611528D01*
X142889149Y-95108941D01*
X142564490Y-95592969D01*
X142109543Y-96056826D01*
X141530608Y-96493724D01*
X140833983Y-96896876D01*
X140025967Y-97259496D01*
X139112860Y-97574795D01*
X138100959Y-97835988D01*
X137368725Y-97977698D01*
X136911189Y-98051273D01*
X136594427Y-98091652D01*
X136393488Y-98100426D01*
X136283425Y-98079183D01*
X136248188Y-98049088D01*
X136189274Y-97995328D01*
X136179163Y-98039133D01*
X136097519Y-98098804D01*
X135868725Y-98138373D01*
X135648700Y-98151238D01*
X135281819Y-98162454D01*
X134910667Y-98174666D01*
X134717342Y-98181506D01*
X134483024Y-98178714D01*
X134338063Y-98154898D01*
X134315175Y-98135557D01*
X134249494Y-98105779D01*
X134167034Y-98121397D01*
X134159537Y-98108262D01*
X134276323Y-98030553D01*
X134492798Y-97904385D01*
X134529918Y-97883627D01*
X135322252Y-97373540D01*
X136105164Y-96726976D01*
X136687672Y-96154166D01*
X137364745Y-95388663D01*
X137909275Y-94643063D01*
X138347951Y-93879656D01*
X138457349Y-93653485D01*
X138745404Y-92947434D01*
X138904157Y-92342050D01*
X138934505Y-91829735D01*
X138837350Y-91402892D01*
X138744705Y-91224581D01*
X138665694Y-91085995D01*
X138689777Y-91051175D01*
X138774183Y-91070257D01*
D12*
X174713900Y-110617000D02*
G75*
G03X174713900Y-110617000I-76200J0D01*
G01*
X181864000Y-109715300D02*
X175260000Y-109715300D01*
X175260000Y-115328700D02*
X181864000Y-115328700D01*
X174713900Y-119570500D02*
G75*
G03X174713900Y-119570500I-76200J0D01*
G01*
X181864000Y-118668800D02*
X175260000Y-118668800D01*
X175260000Y-124282200D02*
X181864000Y-124282200D01*
D13*
X178407000Y-127441000D02*
X162207000Y-127441000D01*
X178407000Y-134941000D02*
X162207000Y-134941000D01*
X178407000Y-127441000D02*
X178407000Y-134941000D01*
X162207000Y-127441000D02*
X162207000Y-134941000D01*
X173066000Y-115307000D02*
X171866000Y-115307000D01*
X171866000Y-113547000D02*
X173066000Y-113547000D01*
X173066000Y-124260500D02*
X171866000Y-124260500D01*
X171866000Y-122500500D02*
X173066000Y-122500500D01*
X178222000Y-118030500D02*
X174372000Y-118030500D01*
X178222000Y-116030500D02*
X174372000Y-116030500D01*
X178222000Y-118030500D02*
X178222000Y-116030500D01*
D14*
X176222000Y-115780500D02*
X176222000Y-115280500D01*
X176222000Y-115530500D02*
X176222000Y-115780500D01*
X176622000Y-115530500D02*
X176222000Y-115530500D01*
X175922000Y-115330500D02*
X176222000Y-115530500D01*
X175922000Y-115730500D02*
X175922000Y-115330500D01*
X176222000Y-115530500D02*
X175922000Y-115730500D01*
X175922000Y-115530500D02*
X175522000Y-115530500D01*
D13*
X147055000Y-79940000D02*
X144555000Y-79940000D01*
X147055000Y-82440000D02*
X147055000Y-79940000D01*
X132535000Y-81740000D02*
X132535000Y-80240000D01*
X131535000Y-81740000D02*
X132535000Y-81740000D01*
X145755000Y-81740000D02*
X145755000Y-80240000D01*
X146755000Y-81740000D02*
X145755000Y-81740000D01*
X132035000Y-82550000D02*
X131535000Y-82550000D01*
X132035000Y-83760000D02*
X132035000Y-82550000D01*
X146255000Y-83760000D02*
X132035000Y-83760000D01*
X146255000Y-82550000D02*
X146255000Y-83760000D01*
X146755000Y-82550000D02*
X146255000Y-82550000D01*
X131535000Y-84260000D02*
X146755000Y-84260000D01*
X131535000Y-80240000D02*
X131535000Y-84260000D01*
X146755000Y-80240000D02*
X131535000Y-80240000D01*
X146755000Y-84260000D02*
X146755000Y-80240000D01*
X144371000Y-127441000D02*
X128171000Y-127441000D01*
X144371000Y-134941000D02*
X128171000Y-134941000D01*
X144371000Y-127441000D02*
X144371000Y-134941000D01*
X128171000Y-127441000D02*
X128171000Y-134941000D01*
X120468500Y-115281000D02*
X120468500Y-114081000D01*
X122228500Y-114081000D02*
X122228500Y-115281000D01*
X120648500Y-121180000D02*
X120648500Y-118380000D01*
X122048500Y-121180000D02*
X122048500Y-118380000D01*
X120648500Y-121180000D02*
X122048500Y-121180000D01*
D14*
X121348500Y-119580000D02*
X121048500Y-119280000D01*
X121048500Y-119280000D02*
X120998500Y-119230000D01*
X120998500Y-119230000D02*
X121648500Y-119230000D01*
X121698500Y-119230000D02*
X121648500Y-119230000D01*
X121648500Y-119230000D02*
X121698500Y-119230000D01*
X121698500Y-119230000D02*
X121348500Y-119580000D01*
X121348500Y-119580000D02*
X120998500Y-119580000D01*
X121698500Y-119580000D02*
X121348500Y-119580000D01*
D13*
X147055000Y-54540000D02*
X144555000Y-54540000D01*
X147055000Y-57040000D02*
X147055000Y-54540000D01*
X122535000Y-56340000D02*
X122535000Y-54840000D01*
X121535000Y-56340000D02*
X122535000Y-56340000D01*
X145755000Y-56340000D02*
X145755000Y-54840000D01*
X146755000Y-56340000D02*
X145755000Y-56340000D01*
X122035000Y-57150000D02*
X121535000Y-57150000D01*
X122035000Y-58360000D02*
X122035000Y-57150000D01*
X146255000Y-58360000D02*
X122035000Y-58360000D01*
X146255000Y-57150000D02*
X146255000Y-58360000D01*
X146755000Y-57150000D02*
X146255000Y-57150000D01*
X121535000Y-58860000D02*
X146755000Y-58860000D01*
X121535000Y-54840000D02*
X121535000Y-58860000D01*
X146755000Y-54840000D02*
X121535000Y-54840000D01*
X146755000Y-58860000D02*
X146755000Y-54840000D01*
D14*
X151480000Y-99260000D02*
X151130000Y-99260000D01*
X151130000Y-99260000D02*
X150780000Y-99260000D01*
X151480000Y-98910000D02*
X151130000Y-99260000D01*
X151430000Y-98910000D02*
X151480000Y-98910000D01*
X151480000Y-98910000D02*
X151430000Y-98910000D01*
X150780000Y-98910000D02*
X151430000Y-98910000D01*
X150830000Y-98960000D02*
X150780000Y-98910000D01*
X151130000Y-99260000D02*
X150830000Y-98960000D01*
D13*
X150430000Y-100860000D02*
X151830000Y-100860000D01*
X151830000Y-100860000D02*
X151830000Y-98060000D01*
X150430000Y-100860000D02*
X150430000Y-98060000D01*
X137633000Y-115307000D02*
X136433000Y-115307000D01*
X136433000Y-113547000D02*
X137633000Y-113547000D01*
X107696000Y-104521000D02*
X115316000Y-104521000D01*
X115316000Y-104521000D02*
X115316000Y-121793000D01*
X107696000Y-104521000D02*
X107696000Y-121793000D01*
X107696000Y-121793000D02*
X115316000Y-121793000D01*
X113398300Y-113157000D02*
G75*
G03X113398300Y-113157000I-1892300J0D01*
G01*
D14*
X140298500Y-115530500D02*
X139898500Y-115530500D01*
X140598500Y-115530500D02*
X140298500Y-115730500D01*
X140298500Y-115730500D02*
X140298500Y-115330500D01*
X140298500Y-115330500D02*
X140598500Y-115530500D01*
X140998500Y-115530500D02*
X140598500Y-115530500D01*
X140598500Y-115530500D02*
X140598500Y-115780500D01*
X140598500Y-115780500D02*
X140598500Y-115280500D01*
D13*
X142598500Y-118030500D02*
X142598500Y-116030500D01*
X142598500Y-116030500D02*
X138748500Y-116030500D01*
X142598500Y-118030500D02*
X138748500Y-118030500D01*
D14*
X158142000Y-115530500D02*
X157742000Y-115530500D01*
X158442000Y-115530500D02*
X158142000Y-115730500D01*
X158142000Y-115730500D02*
X158142000Y-115330500D01*
X158142000Y-115330500D02*
X158442000Y-115530500D01*
X158842000Y-115530500D02*
X158442000Y-115530500D01*
X158442000Y-115530500D02*
X158442000Y-115780500D01*
X158442000Y-115780500D02*
X158442000Y-115280500D01*
D13*
X160442000Y-118030500D02*
X160442000Y-116030500D01*
X160442000Y-116030500D02*
X156592000Y-116030500D01*
X160442000Y-118030500D02*
X156592000Y-118030500D01*
X155202000Y-87083000D02*
X156202000Y-87083000D01*
X156202000Y-85383000D02*
X155202000Y-85383000D01*
X113398300Y-93916500D02*
G75*
G03X113398300Y-93916500I-1892300J0D01*
G01*
X107696000Y-102552500D02*
X115316000Y-102552500D01*
X107696000Y-85280500D02*
X107696000Y-102552500D01*
X115316000Y-85280500D02*
X115316000Y-102552500D01*
X107696000Y-85280500D02*
X115316000Y-85280500D01*
D15*
X151003000Y-71628000D02*
X151003000Y-76708000D01*
X150723000Y-68808000D02*
X152273000Y-68808000D01*
X153543000Y-69088000D02*
X153543000Y-71628000D01*
X153543000Y-71628000D02*
X151003000Y-71628000D01*
X151003000Y-76708000D02*
X156083000Y-76708000D01*
X156083000Y-76708000D02*
X156083000Y-71628000D01*
X150723000Y-68808000D02*
X150723000Y-70358000D01*
X156083000Y-69088000D02*
X153543000Y-69088000D01*
X156083000Y-71628000D02*
X156083000Y-69088000D01*
D13*
X161389000Y-127441000D02*
X145189000Y-127441000D01*
X161389000Y-134941000D02*
X145189000Y-134941000D01*
X161389000Y-127441000D02*
X161389000Y-134941000D01*
X145189000Y-127441000D02*
X145189000Y-134941000D01*
X116193000Y-134941000D02*
X116193000Y-127441000D01*
X127393000Y-134941000D02*
X127393000Y-127441000D01*
X116193000Y-127441000D02*
X127393000Y-127441000D01*
X116193000Y-134941000D02*
X127393000Y-134941000D01*
D12*
X157480000Y-115328700D02*
X164084000Y-115328700D01*
X164084000Y-109715300D02*
X157480000Y-109715300D01*
X156933900Y-110617000D02*
G75*
G03X156933900Y-110617000I-76200J0D01*
G01*
X139153900Y-110617000D02*
G75*
G03X139153900Y-110617000I-76200J0D01*
G01*
X146304000Y-109715300D02*
X139700000Y-109715300D01*
X139700000Y-115328700D02*
X146304000Y-115328700D01*
X157480000Y-124282200D02*
X164084000Y-124282200D01*
X164084000Y-118668800D02*
X157480000Y-118668800D01*
X156933900Y-119570500D02*
G75*
G03X156933900Y-119570500I-76200J0D01*
G01*
X139700000Y-124282200D02*
X146304000Y-124282200D01*
X146304000Y-118668800D02*
X139700000Y-118668800D01*
X139153900Y-119570500D02*
G75*
G03X139153900Y-119570500I-76200J0D01*
G01*
D13*
X153505800Y-94162500D02*
X153505800Y-95162500D01*
X155205800Y-95162500D02*
X155205800Y-94162500D01*
X153201000Y-103878000D02*
X153201000Y-104878000D01*
X154901000Y-104878000D02*
X154901000Y-103878000D01*
X175833660Y-83472920D02*
X174833660Y-83472920D01*
X174833660Y-85172920D02*
X175833660Y-85172920D01*
X176030000Y-77636000D02*
X175030000Y-77636000D01*
X175030000Y-79336000D02*
X176030000Y-79336000D01*
X155202000Y-81876000D02*
X156202000Y-81876000D01*
X156202000Y-80176000D02*
X155202000Y-80176000D01*
X107737500Y-123252000D02*
X110537500Y-123252000D01*
X107737500Y-124652000D02*
X110537500Y-124652000D01*
X107737500Y-123252000D02*
X107737500Y-124652000D01*
D14*
X109337500Y-123952000D02*
X109637500Y-123652000D01*
X109637500Y-123652000D02*
X109687500Y-123602000D01*
X109687500Y-123602000D02*
X109687500Y-124252000D01*
X109687500Y-124302000D02*
X109687500Y-124252000D01*
X109687500Y-124252000D02*
X109687500Y-124302000D01*
X109687500Y-124302000D02*
X109337500Y-123952000D01*
X109337500Y-123952000D02*
X109337500Y-123602000D01*
X109337500Y-124302000D02*
X109337500Y-123952000D01*
X177388000Y-100403000D02*
X177038000Y-100403000D01*
X177038000Y-100403000D02*
X176688000Y-100403000D01*
X177388000Y-100053000D02*
X177038000Y-100403000D01*
X177338000Y-100053000D02*
X177388000Y-100053000D01*
X177388000Y-100053000D02*
X177338000Y-100053000D01*
X176688000Y-100053000D02*
X177338000Y-100053000D01*
X176738000Y-100103000D02*
X176688000Y-100053000D01*
X177038000Y-100403000D02*
X176738000Y-100103000D01*
D13*
X176338000Y-102003000D02*
X177738000Y-102003000D01*
X177738000Y-102003000D02*
X177738000Y-99203000D01*
X176338000Y-102003000D02*
X176338000Y-99203000D01*
X179275501Y-102020499D02*
X179275501Y-99220499D01*
X180675501Y-102020499D02*
X180675501Y-99220499D01*
X179275501Y-102020499D02*
X180675501Y-102020499D01*
D14*
X179975501Y-100420499D02*
X179675501Y-100120499D01*
X179675501Y-100120499D02*
X179625501Y-100070499D01*
X179625501Y-100070499D02*
X180275501Y-100070499D01*
X180325501Y-100070499D02*
X180275501Y-100070499D01*
X180275501Y-100070499D02*
X180325501Y-100070499D01*
X180325501Y-100070499D02*
X179975501Y-100420499D01*
X179975501Y-100420499D02*
X179625501Y-100420499D01*
X180325501Y-100420499D02*
X179975501Y-100420499D01*
X183230000Y-100403000D02*
X182880000Y-100403000D01*
X182880000Y-100403000D02*
X182530000Y-100403000D01*
X183230000Y-100053000D02*
X182880000Y-100403000D01*
X183180000Y-100053000D02*
X183230000Y-100053000D01*
X183230000Y-100053000D02*
X183180000Y-100053000D01*
X182530000Y-100053000D02*
X183180000Y-100053000D01*
X182580000Y-100103000D02*
X182530000Y-100053000D01*
X182880000Y-100403000D02*
X182580000Y-100103000D01*
D13*
X182180000Y-102003000D02*
X183580000Y-102003000D01*
X183580000Y-102003000D02*
X183580000Y-99203000D01*
X182180000Y-102003000D02*
X182180000Y-99203000D01*
X136435500Y-122500500D02*
X137635500Y-122500500D01*
X137635500Y-124260500D02*
X136435500Y-124260500D01*
X154086000Y-122500500D02*
X155286000Y-122500500D01*
X155286000Y-124260500D02*
X154086000Y-124260500D01*
X155286000Y-115307000D02*
X154086000Y-115307000D01*
X154086000Y-113547000D02*
X155286000Y-113547000D01*
X173237000Y-94326000D02*
X173237000Y-93126000D01*
X174997000Y-93126000D02*
X174997000Y-94326000D01*
X157318000Y-84509500D02*
X156118000Y-84509500D01*
X156118000Y-82749500D02*
X157318000Y-82749500D01*
X113446000Y-123072000D02*
X114646000Y-123072000D01*
X114646000Y-124832000D02*
X113446000Y-124832000D01*
X152010000Y-94015000D02*
X152010000Y-95215000D01*
X150250000Y-95215000D02*
X150250000Y-94015000D01*
X176158000Y-94326000D02*
X176158000Y-93126000D01*
X177918000Y-93126000D02*
X177918000Y-94326000D01*
X180839000Y-93126000D02*
X180839000Y-94326000D01*
X179079000Y-94326000D02*
X179079000Y-93126000D01*
X182000000Y-94326000D02*
X182000000Y-93126000D01*
X183760000Y-93126000D02*
X183760000Y-94326000D01*
D12*
X163095501Y-95564960D02*
X163095501Y-94856300D01*
X158595499Y-95564960D02*
X158595499Y-94856300D01*
X162206501Y-95564960D02*
X162206501Y-94856300D01*
X157706499Y-95564960D02*
X157706499Y-94856300D01*
D15*
X169487000Y-85667000D02*
X169487000Y-85442000D01*
X162237000Y-85667000D02*
X162237000Y-85342000D01*
X162237000Y-78417000D02*
X162237000Y-78742000D01*
X169487000Y-78417000D02*
X169487000Y-78742000D01*
X169487000Y-85667000D02*
X169162000Y-85667000D01*
X169487000Y-78417000D02*
X169162000Y-78417000D01*
X162237000Y-78417000D02*
X162562000Y-78417000D01*
X162237000Y-85667000D02*
X162562000Y-85667000D01*
X169487000Y-85442000D02*
X170912000Y-85442000D01*
D14*
X177430000Y-83007000D02*
X175430000Y-83007000D01*
X177430000Y-83007000D02*
X177430000Y-81407000D01*
D15*
X175182638Y-113247514D02*
X175563590Y-113247514D01*
X175325495Y-112914180D02*
X175325495Y-113771323D01*
X175373114Y-113866561D01*
X175468352Y-113914180D01*
X175563590Y-113914180D01*
X175896923Y-113914180D02*
X175896923Y-113247514D01*
X175896923Y-113437990D02*
X175944542Y-113342752D01*
X175992161Y-113295133D01*
X176087400Y-113247514D01*
X176182638Y-113247514D01*
X176896923Y-113866561D02*
X176801685Y-113914180D01*
X176611209Y-113914180D01*
X176515971Y-113866561D01*
X176468352Y-113771323D01*
X176468352Y-113390371D01*
X176515971Y-113295133D01*
X176611209Y-113247514D01*
X176801685Y-113247514D01*
X176896923Y-113295133D01*
X176944542Y-113390371D01*
X176944542Y-113485609D01*
X176468352Y-113580847D01*
X177325495Y-113866561D02*
X177420733Y-113914180D01*
X177611209Y-113914180D01*
X177706447Y-113866561D01*
X177754066Y-113771323D01*
X177754066Y-113723704D01*
X177706447Y-113628466D01*
X177611209Y-113580847D01*
X177468352Y-113580847D01*
X177373114Y-113533228D01*
X177325495Y-113437990D01*
X177325495Y-113390371D01*
X177373114Y-113295133D01*
X177468352Y-113247514D01*
X177611209Y-113247514D01*
X177706447Y-113295133D01*
X178135019Y-113009419D02*
X178182638Y-112961800D01*
X178277876Y-112914180D01*
X178515971Y-112914180D01*
X178611209Y-112961800D01*
X178658828Y-113009419D01*
X178706447Y-113104657D01*
X178706447Y-113199895D01*
X178658828Y-113342752D01*
X178087400Y-113914180D01*
X178706447Y-113914180D01*
X179087400Y-113866561D02*
X179182638Y-113914180D01*
X179373114Y-113914180D01*
X179468352Y-113866561D01*
X179515971Y-113771323D01*
X179515971Y-113723704D01*
X179468352Y-113628466D01*
X179373114Y-113580847D01*
X179230257Y-113580847D01*
X179135019Y-113533228D01*
X179087400Y-113437990D01*
X179087400Y-113390371D01*
X179135019Y-113295133D01*
X179230257Y-113247514D01*
X179373114Y-113247514D01*
X179468352Y-113295133D01*
X180087400Y-113914180D02*
X179992161Y-113866561D01*
X179944542Y-113818942D01*
X179896923Y-113723704D01*
X179896923Y-113437990D01*
X179944542Y-113342752D01*
X179992161Y-113295133D01*
X180087400Y-113247514D01*
X180230257Y-113247514D01*
X180325495Y-113295133D01*
X180373114Y-113342752D01*
X180420733Y-113437990D01*
X180420733Y-113723704D01*
X180373114Y-113818942D01*
X180325495Y-113866561D01*
X180230257Y-113914180D01*
X180087400Y-113914180D01*
X180992161Y-113914180D02*
X180896923Y-113866561D01*
X180849304Y-113771323D01*
X180849304Y-112914180D01*
X181277876Y-112914180D02*
X181896923Y-112914180D01*
X181563590Y-113295133D01*
X181706447Y-113295133D01*
X181801685Y-113342752D01*
X181849304Y-113390371D01*
X181896923Y-113485609D01*
X181896923Y-113723704D01*
X181849304Y-113818942D01*
X181801685Y-113866561D01*
X181706447Y-113914180D01*
X181420733Y-113914180D01*
X181325495Y-113866561D01*
X181277876Y-113818942D01*
X173869933Y-112059980D02*
X173869933Y-111059980D01*
X174441361Y-112059980D01*
X174441361Y-111059980D01*
X174917552Y-112059980D02*
X174917552Y-111059980D01*
X175250885Y-111774266D01*
X175584219Y-111059980D01*
X175584219Y-112059980D01*
X176250885Y-111059980D02*
X176441361Y-111059980D01*
X176536600Y-111107600D01*
X176631838Y-111202838D01*
X176679457Y-111393314D01*
X176679457Y-111726647D01*
X176631838Y-111917123D01*
X176536600Y-112012361D01*
X176441361Y-112059980D01*
X176250885Y-112059980D01*
X176155647Y-112012361D01*
X176060409Y-111917123D01*
X176012790Y-111726647D01*
X176012790Y-111393314D01*
X176060409Y-111202838D01*
X176155647Y-111107600D01*
X176250885Y-111059980D01*
X177060409Y-112012361D02*
X177203266Y-112059980D01*
X177441361Y-112059980D01*
X177536600Y-112012361D01*
X177584219Y-111964742D01*
X177631838Y-111869504D01*
X177631838Y-111774266D01*
X177584219Y-111679028D01*
X177536600Y-111631409D01*
X177441361Y-111583790D01*
X177250885Y-111536171D01*
X177155647Y-111488552D01*
X177108028Y-111440933D01*
X177060409Y-111345695D01*
X177060409Y-111250457D01*
X177108028Y-111155219D01*
X177155647Y-111107600D01*
X177250885Y-111059980D01*
X177488980Y-111059980D01*
X177631838Y-111107600D01*
X177822314Y-112155219D02*
X178584219Y-112155219D01*
X179393742Y-111964742D02*
X179346123Y-112012361D01*
X179203266Y-112059980D01*
X179108028Y-112059980D01*
X178965171Y-112012361D01*
X178869933Y-111917123D01*
X178822314Y-111821885D01*
X178774695Y-111631409D01*
X178774695Y-111488552D01*
X178822314Y-111298076D01*
X178869933Y-111202838D01*
X178965171Y-111107600D01*
X179108028Y-111059980D01*
X179203266Y-111059980D01*
X179346123Y-111107600D01*
X179393742Y-111155219D01*
X179822314Y-112059980D02*
X179822314Y-111059980D01*
X180060409Y-111059980D01*
X180203266Y-111107600D01*
X180298504Y-111202838D01*
X180346123Y-111298076D01*
X180393742Y-111488552D01*
X180393742Y-111631409D01*
X180346123Y-111821885D01*
X180298504Y-111917123D01*
X180203266Y-112012361D01*
X180060409Y-112059980D01*
X179822314Y-112059980D01*
X180774695Y-112012361D02*
X180917552Y-112059980D01*
X181155647Y-112059980D01*
X181250885Y-112012361D01*
X181298504Y-111964742D01*
X181346123Y-111869504D01*
X181346123Y-111774266D01*
X181298504Y-111679028D01*
X181250885Y-111631409D01*
X181155647Y-111583790D01*
X180965171Y-111536171D01*
X180869933Y-111488552D01*
X180822314Y-111440933D01*
X180774695Y-111345695D01*
X180774695Y-111250457D01*
X180822314Y-111155219D01*
X180869933Y-111107600D01*
X180965171Y-111059980D01*
X181203266Y-111059980D01*
X181346123Y-111107600D01*
X182298504Y-112059980D02*
X181727076Y-112059980D01*
X182012790Y-112059980D02*
X182012790Y-111059980D01*
X181917552Y-111202838D01*
X181822314Y-111298076D01*
X181727076Y-111345695D01*
X183155647Y-111059980D02*
X182965171Y-111059980D01*
X182869933Y-111107600D01*
X182822314Y-111155219D01*
X182727076Y-111298076D01*
X182679457Y-111488552D01*
X182679457Y-111869504D01*
X182727076Y-111964742D01*
X182774695Y-112012361D01*
X182869933Y-112059980D01*
X183060409Y-112059980D01*
X183155647Y-112012361D01*
X183203266Y-111964742D01*
X183250885Y-111869504D01*
X183250885Y-111631409D01*
X183203266Y-111536171D01*
X183155647Y-111488552D01*
X183060409Y-111440933D01*
X182869933Y-111440933D01*
X182774695Y-111488552D01*
X182727076Y-111536171D01*
X182679457Y-111631409D01*
X175131838Y-122010514D02*
X175512790Y-122010514D01*
X175274695Y-121677180D02*
X175274695Y-122534323D01*
X175322314Y-122629561D01*
X175417552Y-122677180D01*
X175512790Y-122677180D01*
X175846123Y-122677180D02*
X175846123Y-122010514D01*
X175846123Y-122200990D02*
X175893742Y-122105752D01*
X175941361Y-122058133D01*
X176036600Y-122010514D01*
X176131838Y-122010514D01*
X176846123Y-122629561D02*
X176750885Y-122677180D01*
X176560409Y-122677180D01*
X176465171Y-122629561D01*
X176417552Y-122534323D01*
X176417552Y-122153371D01*
X176465171Y-122058133D01*
X176560409Y-122010514D01*
X176750885Y-122010514D01*
X176846123Y-122058133D01*
X176893742Y-122153371D01*
X176893742Y-122248609D01*
X176417552Y-122343847D01*
X177274695Y-122629561D02*
X177369933Y-122677180D01*
X177560409Y-122677180D01*
X177655647Y-122629561D01*
X177703266Y-122534323D01*
X177703266Y-122486704D01*
X177655647Y-122391466D01*
X177560409Y-122343847D01*
X177417552Y-122343847D01*
X177322314Y-122296228D01*
X177274695Y-122200990D01*
X177274695Y-122153371D01*
X177322314Y-122058133D01*
X177417552Y-122010514D01*
X177560409Y-122010514D01*
X177655647Y-122058133D01*
X178655647Y-122677180D02*
X178084219Y-122677180D01*
X178369933Y-122677180D02*
X178369933Y-121677180D01*
X178274695Y-121820038D01*
X178179457Y-121915276D01*
X178084219Y-121962895D01*
X179036600Y-122629561D02*
X179131838Y-122677180D01*
X179322314Y-122677180D01*
X179417552Y-122629561D01*
X179465171Y-122534323D01*
X179465171Y-122486704D01*
X179417552Y-122391466D01*
X179322314Y-122343847D01*
X179179457Y-122343847D01*
X179084219Y-122296228D01*
X179036600Y-122200990D01*
X179036600Y-122153371D01*
X179084219Y-122058133D01*
X179179457Y-122010514D01*
X179322314Y-122010514D01*
X179417552Y-122058133D01*
X180036600Y-122677180D02*
X179941361Y-122629561D01*
X179893742Y-122581942D01*
X179846123Y-122486704D01*
X179846123Y-122200990D01*
X179893742Y-122105752D01*
X179941361Y-122058133D01*
X180036600Y-122010514D01*
X180179457Y-122010514D01*
X180274695Y-122058133D01*
X180322314Y-122105752D01*
X180369933Y-122200990D01*
X180369933Y-122486704D01*
X180322314Y-122581942D01*
X180274695Y-122629561D01*
X180179457Y-122677180D01*
X180036600Y-122677180D01*
X180941361Y-122677180D02*
X180846123Y-122629561D01*
X180798504Y-122534323D01*
X180798504Y-121677180D01*
X181227076Y-121677180D02*
X181846123Y-121677180D01*
X181512790Y-122058133D01*
X181655647Y-122058133D01*
X181750885Y-122105752D01*
X181798504Y-122153371D01*
X181846123Y-122248609D01*
X181846123Y-122486704D01*
X181798504Y-122581942D01*
X181750885Y-122629561D01*
X181655647Y-122677180D01*
X181369933Y-122677180D01*
X181274695Y-122629561D01*
X181227076Y-122581942D01*
X173869933Y-121203980D02*
X173869933Y-120203980D01*
X174441361Y-121203980D01*
X174441361Y-120203980D01*
X174917552Y-121203980D02*
X174917552Y-120203980D01*
X175250885Y-120918266D01*
X175584219Y-120203980D01*
X175584219Y-121203980D01*
X176250885Y-120203980D02*
X176441361Y-120203980D01*
X176536600Y-120251600D01*
X176631838Y-120346838D01*
X176679457Y-120537314D01*
X176679457Y-120870647D01*
X176631838Y-121061123D01*
X176536600Y-121156361D01*
X176441361Y-121203980D01*
X176250885Y-121203980D01*
X176155647Y-121156361D01*
X176060409Y-121061123D01*
X176012790Y-120870647D01*
X176012790Y-120537314D01*
X176060409Y-120346838D01*
X176155647Y-120251600D01*
X176250885Y-120203980D01*
X177060409Y-121156361D02*
X177203266Y-121203980D01*
X177441361Y-121203980D01*
X177536600Y-121156361D01*
X177584219Y-121108742D01*
X177631838Y-121013504D01*
X177631838Y-120918266D01*
X177584219Y-120823028D01*
X177536600Y-120775409D01*
X177441361Y-120727790D01*
X177250885Y-120680171D01*
X177155647Y-120632552D01*
X177108028Y-120584933D01*
X177060409Y-120489695D01*
X177060409Y-120394457D01*
X177108028Y-120299219D01*
X177155647Y-120251600D01*
X177250885Y-120203980D01*
X177488980Y-120203980D01*
X177631838Y-120251600D01*
X177822314Y-121299219D02*
X178584219Y-121299219D01*
X179393742Y-121108742D02*
X179346123Y-121156361D01*
X179203266Y-121203980D01*
X179108028Y-121203980D01*
X178965171Y-121156361D01*
X178869933Y-121061123D01*
X178822314Y-120965885D01*
X178774695Y-120775409D01*
X178774695Y-120632552D01*
X178822314Y-120442076D01*
X178869933Y-120346838D01*
X178965171Y-120251600D01*
X179108028Y-120203980D01*
X179203266Y-120203980D01*
X179346123Y-120251600D01*
X179393742Y-120299219D01*
X179822314Y-121203980D02*
X179822314Y-120203980D01*
X180060409Y-120203980D01*
X180203266Y-120251600D01*
X180298504Y-120346838D01*
X180346123Y-120442076D01*
X180393742Y-120632552D01*
X180393742Y-120775409D01*
X180346123Y-120965885D01*
X180298504Y-121061123D01*
X180203266Y-121156361D01*
X180060409Y-121203980D01*
X179822314Y-121203980D01*
X180774695Y-121156361D02*
X180917552Y-121203980D01*
X181155647Y-121203980D01*
X181250885Y-121156361D01*
X181298504Y-121108742D01*
X181346123Y-121013504D01*
X181346123Y-120918266D01*
X181298504Y-120823028D01*
X181250885Y-120775409D01*
X181155647Y-120727790D01*
X180965171Y-120680171D01*
X180869933Y-120632552D01*
X180822314Y-120584933D01*
X180774695Y-120489695D01*
X180774695Y-120394457D01*
X180822314Y-120299219D01*
X180869933Y-120251600D01*
X180965171Y-120203980D01*
X181203266Y-120203980D01*
X181346123Y-120251600D01*
X182298504Y-121203980D02*
X181727076Y-121203980D01*
X182012790Y-121203980D02*
X182012790Y-120203980D01*
X181917552Y-120346838D01*
X181822314Y-120442076D01*
X181727076Y-120489695D01*
X183155647Y-120203980D02*
X182965171Y-120203980D01*
X182869933Y-120251600D01*
X182822314Y-120299219D01*
X182727076Y-120442076D01*
X182679457Y-120632552D01*
X182679457Y-121013504D01*
X182727076Y-121108742D01*
X182774695Y-121156361D01*
X182869933Y-121203980D01*
X183060409Y-121203980D01*
X183155647Y-121156361D01*
X183203266Y-121108742D01*
X183250885Y-121013504D01*
X183250885Y-120775409D01*
X183203266Y-120680171D01*
X183155647Y-120632552D01*
X183060409Y-120584933D01*
X182869933Y-120584933D01*
X182774695Y-120632552D01*
X182727076Y-120680171D01*
X182679457Y-120775409D01*
X178562000Y-120927880D02*
X178562000Y-121165976D01*
X178323904Y-121070738D02*
X178562000Y-121165976D01*
X178800095Y-121070738D01*
X178419142Y-121356452D02*
X178562000Y-121165976D01*
X178704857Y-121356452D01*
X168902238Y-129690761D02*
X168997476Y-129738380D01*
X169187952Y-129738380D01*
X169283190Y-129690761D01*
X169330809Y-129595523D01*
X169330809Y-129547904D01*
X169283190Y-129452666D01*
X169187952Y-129405047D01*
X169045095Y-129405047D01*
X168949857Y-129357428D01*
X168902238Y-129262190D01*
X168902238Y-129214571D01*
X168949857Y-129119333D01*
X169045095Y-129071714D01*
X169187952Y-129071714D01*
X169283190Y-129119333D01*
X169902238Y-129738380D02*
X169807000Y-129690761D01*
X169759380Y-129643142D01*
X169711761Y-129547904D01*
X169711761Y-129262190D01*
X169759380Y-129166952D01*
X169807000Y-129119333D01*
X169902238Y-129071714D01*
X170045095Y-129071714D01*
X170140333Y-129119333D01*
X170187952Y-129166952D01*
X170235571Y-129262190D01*
X170235571Y-129547904D01*
X170187952Y-129643142D01*
X170140333Y-129690761D01*
X170045095Y-129738380D01*
X169902238Y-129738380D01*
X170807000Y-129738380D02*
X170711761Y-129690761D01*
X170664142Y-129595523D01*
X170664142Y-128738380D01*
X171092714Y-128738380D02*
X171711761Y-128738380D01*
X171378428Y-129119333D01*
X171521285Y-129119333D01*
X171616523Y-129166952D01*
X171664142Y-129214571D01*
X171711761Y-129309809D01*
X171711761Y-129547904D01*
X171664142Y-129643142D01*
X171616523Y-129690761D01*
X171521285Y-129738380D01*
X171235571Y-129738380D01*
X171140333Y-129690761D01*
X171092714Y-129643142D01*
X168539019Y-113202980D02*
X168539019Y-112536314D01*
X168539019Y-112726790D02*
X168586638Y-112631552D01*
X168634257Y-112583933D01*
X168729495Y-112536314D01*
X168824733Y-112536314D01*
X168919971Y-113298219D02*
X169681876Y-113298219D01*
X169777114Y-112536314D02*
X170158066Y-112536314D01*
X169919971Y-112202980D02*
X169919971Y-113060123D01*
X169967590Y-113155361D01*
X170062828Y-113202980D01*
X170158066Y-113202980D01*
X170491400Y-113202980D02*
X170491400Y-112536314D01*
X170491400Y-112726790D02*
X170539019Y-112631552D01*
X170586638Y-112583933D01*
X170681876Y-112536314D01*
X170777114Y-112536314D01*
X171491400Y-113155361D02*
X171396161Y-113202980D01*
X171205685Y-113202980D01*
X171110447Y-113155361D01*
X171062828Y-113060123D01*
X171062828Y-112679171D01*
X171110447Y-112583933D01*
X171205685Y-112536314D01*
X171396161Y-112536314D01*
X171491400Y-112583933D01*
X171539019Y-112679171D01*
X171539019Y-112774409D01*
X171062828Y-112869647D01*
X171919971Y-113155361D02*
X172015209Y-113202980D01*
X172205685Y-113202980D01*
X172300923Y-113155361D01*
X172348542Y-113060123D01*
X172348542Y-113012504D01*
X172300923Y-112917266D01*
X172205685Y-112869647D01*
X172062828Y-112869647D01*
X171967590Y-112822028D01*
X171919971Y-112726790D01*
X171919971Y-112679171D01*
X171967590Y-112583933D01*
X172062828Y-112536314D01*
X172205685Y-112536314D01*
X172300923Y-112583933D01*
X172729495Y-112298219D02*
X172777114Y-112250600D01*
X172872352Y-112202980D01*
X173110447Y-112202980D01*
X173205685Y-112250600D01*
X173253304Y-112298219D01*
X173300923Y-112393457D01*
X173300923Y-112488695D01*
X173253304Y-112631552D01*
X172681876Y-113202980D01*
X173300923Y-113202980D01*
X173681876Y-113155361D02*
X173777114Y-113202980D01*
X173967590Y-113202980D01*
X174062828Y-113155361D01*
X174110447Y-113060123D01*
X174110447Y-113012504D01*
X174062828Y-112917266D01*
X173967590Y-112869647D01*
X173824733Y-112869647D01*
X173729495Y-112822028D01*
X173681876Y-112726790D01*
X173681876Y-112679171D01*
X173729495Y-112583933D01*
X173824733Y-112536314D01*
X173967590Y-112536314D01*
X174062828Y-112583933D01*
X174681876Y-113202980D02*
X174586638Y-113155361D01*
X174539019Y-113107742D01*
X174491400Y-113012504D01*
X174491400Y-112726790D01*
X174539019Y-112631552D01*
X174586638Y-112583933D01*
X174681876Y-112536314D01*
X174824733Y-112536314D01*
X174919971Y-112583933D01*
X174967590Y-112631552D01*
X175015209Y-112726790D01*
X175015209Y-113012504D01*
X174967590Y-113107742D01*
X174919971Y-113155361D01*
X174824733Y-113202980D01*
X174681876Y-113202980D01*
X175586638Y-113202980D02*
X175491400Y-113155361D01*
X175443780Y-113060123D01*
X175443780Y-112202980D01*
X175872352Y-112202980D02*
X176491400Y-112202980D01*
X176158066Y-112583933D01*
X176300923Y-112583933D01*
X176396161Y-112631552D01*
X176443780Y-112679171D01*
X176491400Y-112774409D01*
X176491400Y-113012504D01*
X176443780Y-113107742D01*
X176396161Y-113155361D01*
X176300923Y-113202980D01*
X176015209Y-113202980D01*
X175919971Y-113155361D01*
X175872352Y-113107742D01*
X168513619Y-125482880D02*
X168513619Y-124816214D01*
X168513619Y-125006690D02*
X168561238Y-124911452D01*
X168608857Y-124863833D01*
X168704095Y-124816214D01*
X168799333Y-124816214D01*
X168894571Y-125578119D02*
X169656476Y-125578119D01*
X169751714Y-124816214D02*
X170132666Y-124816214D01*
X169894571Y-124482880D02*
X169894571Y-125340023D01*
X169942190Y-125435261D01*
X170037428Y-125482880D01*
X170132666Y-125482880D01*
X170466000Y-125482880D02*
X170466000Y-124816214D01*
X170466000Y-125006690D02*
X170513619Y-124911452D01*
X170561238Y-124863833D01*
X170656476Y-124816214D01*
X170751714Y-124816214D01*
X171466000Y-125435261D02*
X171370761Y-125482880D01*
X171180285Y-125482880D01*
X171085047Y-125435261D01*
X171037428Y-125340023D01*
X171037428Y-124959071D01*
X171085047Y-124863833D01*
X171180285Y-124816214D01*
X171370761Y-124816214D01*
X171466000Y-124863833D01*
X171513619Y-124959071D01*
X171513619Y-125054309D01*
X171037428Y-125149547D01*
X171894571Y-125435261D02*
X171989809Y-125482880D01*
X172180285Y-125482880D01*
X172275523Y-125435261D01*
X172323142Y-125340023D01*
X172323142Y-125292404D01*
X172275523Y-125197166D01*
X172180285Y-125149547D01*
X172037428Y-125149547D01*
X171942190Y-125101928D01*
X171894571Y-125006690D01*
X171894571Y-124959071D01*
X171942190Y-124863833D01*
X172037428Y-124816214D01*
X172180285Y-124816214D01*
X172275523Y-124863833D01*
X173275523Y-125482880D02*
X172704095Y-125482880D01*
X172989809Y-125482880D02*
X172989809Y-124482880D01*
X172894571Y-124625738D01*
X172799333Y-124720976D01*
X172704095Y-124768595D01*
X173656476Y-125435261D02*
X173751714Y-125482880D01*
X173942190Y-125482880D01*
X174037428Y-125435261D01*
X174085047Y-125340023D01*
X174085047Y-125292404D01*
X174037428Y-125197166D01*
X173942190Y-125149547D01*
X173799333Y-125149547D01*
X173704095Y-125101928D01*
X173656476Y-125006690D01*
X173656476Y-124959071D01*
X173704095Y-124863833D01*
X173799333Y-124816214D01*
X173942190Y-124816214D01*
X174037428Y-124863833D01*
X174656476Y-125482880D02*
X174561238Y-125435261D01*
X174513619Y-125387642D01*
X174466000Y-125292404D01*
X174466000Y-125006690D01*
X174513619Y-124911452D01*
X174561238Y-124863833D01*
X174656476Y-124816214D01*
X174799333Y-124816214D01*
X174894571Y-124863833D01*
X174942190Y-124911452D01*
X174989809Y-125006690D01*
X174989809Y-125292404D01*
X174942190Y-125387642D01*
X174894571Y-125435261D01*
X174799333Y-125482880D01*
X174656476Y-125482880D01*
X175561238Y-125482880D02*
X175466000Y-125435261D01*
X175418380Y-125340023D01*
X175418380Y-124482880D01*
X175846952Y-124482880D02*
X176466000Y-124482880D01*
X176132666Y-124863833D01*
X176275523Y-124863833D01*
X176370761Y-124911452D01*
X176418380Y-124959071D01*
X176466000Y-125054309D01*
X176466000Y-125292404D01*
X176418380Y-125387642D01*
X176370761Y-125435261D01*
X176275523Y-125482880D01*
X175989809Y-125482880D01*
X175894571Y-125435261D01*
X175846952Y-125387642D01*
X178935333Y-116997171D02*
X178602000Y-116997171D01*
X178602000Y-117520980D02*
X178602000Y-116520980D01*
X179078190Y-116520980D01*
X179602000Y-117520980D02*
X179506761Y-117473361D01*
X179459142Y-117378123D01*
X179459142Y-116520980D01*
X179887714Y-116854314D02*
X180125809Y-117520980D01*
X180363904Y-116854314D02*
X180125809Y-117520980D01*
X180030571Y-117759076D01*
X179982952Y-117806695D01*
X179887714Y-117854314D01*
X180697238Y-117473361D02*
X180840095Y-117520980D01*
X181078190Y-117520980D01*
X181173428Y-117473361D01*
X181221047Y-117425742D01*
X181268666Y-117330504D01*
X181268666Y-117235266D01*
X181221047Y-117140028D01*
X181173428Y-117092409D01*
X181078190Y-117044790D01*
X180887714Y-116997171D01*
X180792476Y-116949552D01*
X180744857Y-116901933D01*
X180697238Y-116806695D01*
X180697238Y-116711457D01*
X180744857Y-116616219D01*
X180792476Y-116568600D01*
X180887714Y-116520980D01*
X181125809Y-116520980D01*
X181268666Y-116568600D01*
X181840095Y-117520980D02*
X181744857Y-117473361D01*
X181697238Y-117425742D01*
X181649619Y-117330504D01*
X181649619Y-117044790D01*
X181697238Y-116949552D01*
X181744857Y-116901933D01*
X181840095Y-116854314D01*
X181982952Y-116854314D01*
X182078190Y-116901933D01*
X182125809Y-116949552D01*
X182173428Y-117044790D01*
X182173428Y-117330504D01*
X182125809Y-117425742D01*
X182078190Y-117473361D01*
X181982952Y-117520980D01*
X181840095Y-117520980D01*
X182744857Y-117520980D02*
X182649619Y-117473361D01*
X182602000Y-117378123D01*
X182602000Y-116520980D01*
X183030571Y-116520980D02*
X183649619Y-116520980D01*
X183316285Y-116901933D01*
X183459142Y-116901933D01*
X183554380Y-116949552D01*
X183602000Y-116997171D01*
X183649619Y-117092409D01*
X183649619Y-117330504D01*
X183602000Y-117425742D01*
X183554380Y-117473361D01*
X183459142Y-117520980D01*
X183173428Y-117520980D01*
X183078190Y-117473361D01*
X183030571Y-117425742D01*
X138811666Y-84802380D02*
X138811666Y-85516666D01*
X138764047Y-85659523D01*
X138668809Y-85754761D01*
X138525952Y-85802380D01*
X138430714Y-85802380D01*
X139811666Y-85802380D02*
X139240238Y-85802380D01*
X139525952Y-85802380D02*
X139525952Y-84802380D01*
X139430714Y-84945238D01*
X139335476Y-85040476D01*
X139240238Y-85088095D01*
X134866238Y-129690761D02*
X134961476Y-129738380D01*
X135151952Y-129738380D01*
X135247190Y-129690761D01*
X135294809Y-129595523D01*
X135294809Y-129547904D01*
X135247190Y-129452666D01*
X135151952Y-129405047D01*
X135009095Y-129405047D01*
X134913857Y-129357428D01*
X134866238Y-129262190D01*
X134866238Y-129214571D01*
X134913857Y-129119333D01*
X135009095Y-129071714D01*
X135151952Y-129071714D01*
X135247190Y-129119333D01*
X135866238Y-129738380D02*
X135771000Y-129690761D01*
X135723380Y-129643142D01*
X135675761Y-129547904D01*
X135675761Y-129262190D01*
X135723380Y-129166952D01*
X135771000Y-129119333D01*
X135866238Y-129071714D01*
X136009095Y-129071714D01*
X136104333Y-129119333D01*
X136151952Y-129166952D01*
X136199571Y-129262190D01*
X136199571Y-129547904D01*
X136151952Y-129643142D01*
X136104333Y-129690761D01*
X136009095Y-129738380D01*
X135866238Y-129738380D01*
X136771000Y-129738380D02*
X136675761Y-129690761D01*
X136628142Y-129595523D01*
X136628142Y-128738380D01*
X137675761Y-129738380D02*
X137104333Y-129738380D01*
X137390047Y-129738380D02*
X137390047Y-128738380D01*
X137294809Y-128881238D01*
X137199571Y-128976476D01*
X137104333Y-129024095D01*
X121737380Y-112206066D02*
X121261190Y-112539400D01*
X121737380Y-112777495D02*
X120737380Y-112777495D01*
X120737380Y-112396542D01*
X120785000Y-112301304D01*
X120832619Y-112253685D01*
X120927857Y-112206066D01*
X121070714Y-112206066D01*
X121165952Y-112253685D01*
X121213571Y-112301304D01*
X121261190Y-112396542D01*
X121261190Y-112777495D01*
X120737380Y-111872733D02*
X120737380Y-111253685D01*
X121118333Y-111587019D01*
X121118333Y-111444161D01*
X121165952Y-111348923D01*
X121213571Y-111301304D01*
X121308809Y-111253685D01*
X121546904Y-111253685D01*
X121642142Y-111301304D01*
X121689761Y-111348923D01*
X121737380Y-111444161D01*
X121737380Y-111729876D01*
X121689761Y-111825114D01*
X121642142Y-111872733D01*
X123451880Y-121927619D02*
X122451880Y-121927619D01*
X122928071Y-121927619D02*
X122928071Y-121356190D01*
X123451880Y-121356190D02*
X122451880Y-121356190D01*
X122928071Y-120546666D02*
X122928071Y-120880000D01*
X123451880Y-120880000D02*
X122451880Y-120880000D01*
X122451880Y-120403809D01*
X123451880Y-119546666D02*
X123451880Y-120022857D01*
X122451880Y-120022857D01*
X122928071Y-119213333D02*
X122928071Y-118880000D01*
X123451880Y-118737142D02*
X123451880Y-119213333D01*
X122451880Y-119213333D01*
X122451880Y-118737142D01*
X123451880Y-118308571D02*
X122451880Y-118308571D01*
X122451880Y-118070476D01*
X122499500Y-117927619D01*
X122594738Y-117832380D01*
X122689976Y-117784761D01*
X122880452Y-117737142D01*
X123023309Y-117737142D01*
X123213785Y-117784761D01*
X123309023Y-117832380D01*
X123404261Y-117927619D01*
X123451880Y-118070476D01*
X123451880Y-118308571D01*
X123451880Y-116784761D02*
X123451880Y-117356190D01*
X123451880Y-117070476D02*
X122451880Y-117070476D01*
X122594738Y-117165714D01*
X122689976Y-117260952D01*
X122737595Y-117356190D01*
X132002142Y-60402380D02*
X132002142Y-59735714D01*
X132002142Y-59926190D02*
X132049761Y-59830952D01*
X132097380Y-59783333D01*
X132192619Y-59735714D01*
X132287857Y-59735714D01*
X133049761Y-60402380D02*
X133049761Y-59878571D01*
X133002142Y-59783333D01*
X132906904Y-59735714D01*
X132716428Y-59735714D01*
X132621190Y-59783333D01*
X133049761Y-60354761D02*
X132954523Y-60402380D01*
X132716428Y-60402380D01*
X132621190Y-60354761D01*
X132573571Y-60259523D01*
X132573571Y-60164285D01*
X132621190Y-60069047D01*
X132716428Y-60021428D01*
X132954523Y-60021428D01*
X133049761Y-59973809D01*
X133954523Y-60402380D02*
X133954523Y-59402380D01*
X133954523Y-60354761D02*
X133859285Y-60402380D01*
X133668809Y-60402380D01*
X133573571Y-60354761D01*
X133525952Y-60307142D01*
X133478333Y-60211904D01*
X133478333Y-59926190D01*
X133525952Y-59830952D01*
X133573571Y-59783333D01*
X133668809Y-59735714D01*
X133859285Y-59735714D01*
X133954523Y-59783333D01*
X134430714Y-60402380D02*
X134430714Y-59735714D01*
X134430714Y-59402380D02*
X134383095Y-59450000D01*
X134430714Y-59497619D01*
X134478333Y-59450000D01*
X134430714Y-59402380D01*
X134430714Y-59497619D01*
X135049761Y-60402380D02*
X134954523Y-60354761D01*
X134906904Y-60307142D01*
X134859285Y-60211904D01*
X134859285Y-59926190D01*
X134906904Y-59830952D01*
X134954523Y-59783333D01*
X135049761Y-59735714D01*
X135192619Y-59735714D01*
X135287857Y-59783333D01*
X135335476Y-59830952D01*
X135383095Y-59926190D01*
X135383095Y-60211904D01*
X135335476Y-60307142D01*
X135287857Y-60354761D01*
X135192619Y-60402380D01*
X135049761Y-60402380D01*
X136335476Y-60402380D02*
X135764047Y-60402380D01*
X136049761Y-60402380D02*
X136049761Y-59402380D01*
X135954523Y-59545238D01*
X135859285Y-59640476D01*
X135764047Y-59688095D01*
X149058380Y-102226666D02*
X150058380Y-101893333D01*
X149058380Y-101560000D01*
X149963142Y-100655238D02*
X150010761Y-100702857D01*
X150058380Y-100845714D01*
X150058380Y-100940952D01*
X150010761Y-101083809D01*
X149915523Y-101179047D01*
X149820285Y-101226666D01*
X149629809Y-101274285D01*
X149486952Y-101274285D01*
X149296476Y-101226666D01*
X149201238Y-101179047D01*
X149106000Y-101083809D01*
X149058380Y-100940952D01*
X149058380Y-100845714D01*
X149106000Y-100702857D01*
X149153619Y-100655238D01*
X149963142Y-99655238D02*
X150010761Y-99702857D01*
X150058380Y-99845714D01*
X150058380Y-99940952D01*
X150010761Y-100083809D01*
X149915523Y-100179047D01*
X149820285Y-100226666D01*
X149629809Y-100274285D01*
X149486952Y-100274285D01*
X149296476Y-100226666D01*
X149201238Y-100179047D01*
X149106000Y-100083809D01*
X149058380Y-99940952D01*
X149058380Y-99845714D01*
X149106000Y-99702857D01*
X149153619Y-99655238D01*
X150058380Y-98750476D02*
X150058380Y-99226666D01*
X149058380Y-99226666D01*
X149534571Y-98417142D02*
X149534571Y-98083809D01*
X150058380Y-97940952D02*
X150058380Y-98417142D01*
X149058380Y-98417142D01*
X149058380Y-97940952D01*
X150058380Y-97512380D02*
X149058380Y-97512380D01*
X149058380Y-97274285D01*
X149106000Y-97131428D01*
X149201238Y-97036190D01*
X149296476Y-96988571D01*
X149486952Y-96940952D01*
X149629809Y-96940952D01*
X149820285Y-96988571D01*
X149915523Y-97036190D01*
X150010761Y-97131428D01*
X150058380Y-97274285D01*
X150058380Y-97512380D01*
X150058380Y-95988571D02*
X150058380Y-96560000D01*
X150058380Y-96274285D02*
X149058380Y-96274285D01*
X149201238Y-96369523D01*
X149296476Y-96464761D01*
X149344095Y-96560000D01*
X133080619Y-113228380D02*
X133080619Y-112561714D01*
X133080619Y-112752190D02*
X133128238Y-112656952D01*
X133175857Y-112609333D01*
X133271095Y-112561714D01*
X133366333Y-112561714D01*
X133461571Y-113323619D02*
X134223476Y-113323619D01*
X134318714Y-112561714D02*
X134699666Y-112561714D01*
X134461571Y-112228380D02*
X134461571Y-113085523D01*
X134509190Y-113180761D01*
X134604428Y-113228380D01*
X134699666Y-113228380D01*
X135033000Y-113228380D02*
X135033000Y-112561714D01*
X135033000Y-112752190D02*
X135080619Y-112656952D01*
X135128238Y-112609333D01*
X135223476Y-112561714D01*
X135318714Y-112561714D01*
X136033000Y-113180761D02*
X135937761Y-113228380D01*
X135747285Y-113228380D01*
X135652047Y-113180761D01*
X135604428Y-113085523D01*
X135604428Y-112704571D01*
X135652047Y-112609333D01*
X135747285Y-112561714D01*
X135937761Y-112561714D01*
X136033000Y-112609333D01*
X136080619Y-112704571D01*
X136080619Y-112799809D01*
X135604428Y-112895047D01*
X136461571Y-113180761D02*
X136556809Y-113228380D01*
X136747285Y-113228380D01*
X136842523Y-113180761D01*
X136890142Y-113085523D01*
X136890142Y-113037904D01*
X136842523Y-112942666D01*
X136747285Y-112895047D01*
X136604428Y-112895047D01*
X136509190Y-112847428D01*
X136461571Y-112752190D01*
X136461571Y-112704571D01*
X136509190Y-112609333D01*
X136604428Y-112561714D01*
X136747285Y-112561714D01*
X136842523Y-112609333D01*
X137271095Y-112323619D02*
X137318714Y-112276000D01*
X137413952Y-112228380D01*
X137652047Y-112228380D01*
X137747285Y-112276000D01*
X137794904Y-112323619D01*
X137842523Y-112418857D01*
X137842523Y-112514095D01*
X137794904Y-112656952D01*
X137223476Y-113228380D01*
X137842523Y-113228380D01*
X138223476Y-113180761D02*
X138318714Y-113228380D01*
X138509190Y-113228380D01*
X138604428Y-113180761D01*
X138652047Y-113085523D01*
X138652047Y-113037904D01*
X138604428Y-112942666D01*
X138509190Y-112895047D01*
X138366333Y-112895047D01*
X138271095Y-112847428D01*
X138223476Y-112752190D01*
X138223476Y-112704571D01*
X138271095Y-112609333D01*
X138366333Y-112561714D01*
X138509190Y-112561714D01*
X138604428Y-112609333D01*
X139223476Y-113228380D02*
X139128238Y-113180761D01*
X139080619Y-113133142D01*
X139033000Y-113037904D01*
X139033000Y-112752190D01*
X139080619Y-112656952D01*
X139128238Y-112609333D01*
X139223476Y-112561714D01*
X139366333Y-112561714D01*
X139461571Y-112609333D01*
X139509190Y-112656952D01*
X139556809Y-112752190D01*
X139556809Y-113037904D01*
X139509190Y-113133142D01*
X139461571Y-113180761D01*
X139366333Y-113228380D01*
X139223476Y-113228380D01*
X140128238Y-113228380D02*
X140033000Y-113180761D01*
X139985380Y-113085523D01*
X139985380Y-112228380D01*
X141033000Y-113228380D02*
X140461571Y-113228380D01*
X140747285Y-113228380D02*
X140747285Y-112228380D01*
X140652047Y-112371238D01*
X140556809Y-112466476D01*
X140461571Y-112514095D01*
X107386380Y-115633190D02*
X106386380Y-115633190D01*
X106862571Y-115633190D02*
X106862571Y-115061761D01*
X107386380Y-115061761D02*
X106386380Y-115061761D01*
X106862571Y-114252238D02*
X106862571Y-114585571D01*
X107386380Y-114585571D02*
X106386380Y-114585571D01*
X106386380Y-114109380D01*
X106719714Y-113299857D02*
X107386380Y-113299857D01*
X106719714Y-113728428D02*
X107243523Y-113728428D01*
X107338761Y-113680809D01*
X107386380Y-113585571D01*
X107386380Y-113442714D01*
X107338761Y-113347476D01*
X107291142Y-113299857D01*
X107338761Y-112871285D02*
X107386380Y-112776047D01*
X107386380Y-112585571D01*
X107338761Y-112490333D01*
X107243523Y-112442714D01*
X107195904Y-112442714D01*
X107100666Y-112490333D01*
X107053047Y-112585571D01*
X107053047Y-112728428D01*
X107005428Y-112823666D01*
X106910190Y-112871285D01*
X106862571Y-112871285D01*
X106767333Y-112823666D01*
X106719714Y-112728428D01*
X106719714Y-112585571D01*
X106767333Y-112490333D01*
X107338761Y-111633190D02*
X107386380Y-111728428D01*
X107386380Y-111918904D01*
X107338761Y-112014142D01*
X107243523Y-112061761D01*
X106862571Y-112061761D01*
X106767333Y-112014142D01*
X106719714Y-111918904D01*
X106719714Y-111728428D01*
X106767333Y-111633190D01*
X106862571Y-111585571D01*
X106957809Y-111585571D01*
X107053047Y-112061761D01*
X107386380Y-110633190D02*
X107386380Y-111204619D01*
X107386380Y-110918904D02*
X106386380Y-110918904D01*
X106529238Y-111014142D01*
X106624476Y-111109380D01*
X106672095Y-111204619D01*
X143299133Y-116971771D02*
X142965800Y-116971771D01*
X142965800Y-117495580D02*
X142965800Y-116495580D01*
X143441990Y-116495580D01*
X143965800Y-117495580D02*
X143870561Y-117447961D01*
X143822942Y-117352723D01*
X143822942Y-116495580D01*
X144251514Y-116828914D02*
X144489609Y-117495580D01*
X144727704Y-116828914D02*
X144489609Y-117495580D01*
X144394371Y-117733676D01*
X144346752Y-117781295D01*
X144251514Y-117828914D01*
X145061038Y-117447961D02*
X145203895Y-117495580D01*
X145441990Y-117495580D01*
X145537228Y-117447961D01*
X145584847Y-117400342D01*
X145632466Y-117305104D01*
X145632466Y-117209866D01*
X145584847Y-117114628D01*
X145537228Y-117067009D01*
X145441990Y-117019390D01*
X145251514Y-116971771D01*
X145156276Y-116924152D01*
X145108657Y-116876533D01*
X145061038Y-116781295D01*
X145061038Y-116686057D01*
X145108657Y-116590819D01*
X145156276Y-116543200D01*
X145251514Y-116495580D01*
X145489609Y-116495580D01*
X145632466Y-116543200D01*
X146203895Y-117495580D02*
X146108657Y-117447961D01*
X146061038Y-117400342D01*
X146013419Y-117305104D01*
X146013419Y-117019390D01*
X146061038Y-116924152D01*
X146108657Y-116876533D01*
X146203895Y-116828914D01*
X146346752Y-116828914D01*
X146441990Y-116876533D01*
X146489609Y-116924152D01*
X146537228Y-117019390D01*
X146537228Y-117305104D01*
X146489609Y-117400342D01*
X146441990Y-117447961D01*
X146346752Y-117495580D01*
X146203895Y-117495580D01*
X147108657Y-117495580D02*
X147013419Y-117447961D01*
X146965800Y-117352723D01*
X146965800Y-116495580D01*
X148013419Y-117495580D02*
X147441990Y-117495580D01*
X147727704Y-117495580D02*
X147727704Y-116495580D01*
X147632466Y-116638438D01*
X147537228Y-116733676D01*
X147441990Y-116781295D01*
X161129933Y-116895571D02*
X160796600Y-116895571D01*
X160796600Y-117419380D02*
X160796600Y-116419380D01*
X161272790Y-116419380D01*
X161796600Y-117419380D02*
X161701361Y-117371761D01*
X161653742Y-117276523D01*
X161653742Y-116419380D01*
X162082314Y-116752714D02*
X162320409Y-117419380D01*
X162558504Y-116752714D02*
X162320409Y-117419380D01*
X162225171Y-117657476D01*
X162177552Y-117705095D01*
X162082314Y-117752714D01*
X162891838Y-117371761D02*
X163034695Y-117419380D01*
X163272790Y-117419380D01*
X163368028Y-117371761D01*
X163415647Y-117324142D01*
X163463266Y-117228904D01*
X163463266Y-117133666D01*
X163415647Y-117038428D01*
X163368028Y-116990809D01*
X163272790Y-116943190D01*
X163082314Y-116895571D01*
X162987076Y-116847952D01*
X162939457Y-116800333D01*
X162891838Y-116705095D01*
X162891838Y-116609857D01*
X162939457Y-116514619D01*
X162987076Y-116467000D01*
X163082314Y-116419380D01*
X163320409Y-116419380D01*
X163463266Y-116467000D01*
X164034695Y-117419380D02*
X163939457Y-117371761D01*
X163891838Y-117324142D01*
X163844219Y-117228904D01*
X163844219Y-116943190D01*
X163891838Y-116847952D01*
X163939457Y-116800333D01*
X164034695Y-116752714D01*
X164177552Y-116752714D01*
X164272790Y-116800333D01*
X164320409Y-116847952D01*
X164368028Y-116943190D01*
X164368028Y-117228904D01*
X164320409Y-117324142D01*
X164272790Y-117371761D01*
X164177552Y-117419380D01*
X164034695Y-117419380D01*
X164939457Y-117419380D02*
X164844219Y-117371761D01*
X164796600Y-117276523D01*
X164796600Y-116419380D01*
X165272790Y-116514619D02*
X165320409Y-116467000D01*
X165415647Y-116419380D01*
X165653742Y-116419380D01*
X165748980Y-116467000D01*
X165796600Y-116514619D01*
X165844219Y-116609857D01*
X165844219Y-116705095D01*
X165796600Y-116847952D01*
X165225171Y-117419380D01*
X165844219Y-117419380D01*
X155059142Y-88177642D02*
X155011523Y-88225261D01*
X154868666Y-88272880D01*
X154773428Y-88272880D01*
X154630571Y-88225261D01*
X154535333Y-88130023D01*
X154487714Y-88034785D01*
X154440095Y-87844309D01*
X154440095Y-87701452D01*
X154487714Y-87510976D01*
X154535333Y-87415738D01*
X154630571Y-87320500D01*
X154773428Y-87272880D01*
X154868666Y-87272880D01*
X155011523Y-87320500D01*
X155059142Y-87368119D01*
X156011523Y-88272880D02*
X155440095Y-88272880D01*
X155725809Y-88272880D02*
X155725809Y-87272880D01*
X155630571Y-87415738D01*
X155535333Y-87510976D01*
X155440095Y-87558595D01*
X156392476Y-87368119D02*
X156440095Y-87320500D01*
X156535333Y-87272880D01*
X156773428Y-87272880D01*
X156868666Y-87320500D01*
X156916285Y-87368119D01*
X156963904Y-87463357D01*
X156963904Y-87558595D01*
X156916285Y-87701452D01*
X156344857Y-88272880D01*
X156963904Y-88272880D01*
X107386380Y-95797452D02*
X107386380Y-96273642D01*
X106386380Y-96273642D01*
X106862571Y-95130785D02*
X106862571Y-95464119D01*
X107386380Y-95464119D02*
X106386380Y-95464119D01*
X106386380Y-94987928D01*
X106719714Y-94178404D02*
X107386380Y-94178404D01*
X106719714Y-94606976D02*
X107243523Y-94606976D01*
X107338761Y-94559357D01*
X107386380Y-94464119D01*
X107386380Y-94321261D01*
X107338761Y-94226023D01*
X107291142Y-94178404D01*
X107338761Y-93749833D02*
X107386380Y-93654595D01*
X107386380Y-93464119D01*
X107338761Y-93368880D01*
X107243523Y-93321261D01*
X107195904Y-93321261D01*
X107100666Y-93368880D01*
X107053047Y-93464119D01*
X107053047Y-93606976D01*
X107005428Y-93702214D01*
X106910190Y-93749833D01*
X106862571Y-93749833D01*
X106767333Y-93702214D01*
X106719714Y-93606976D01*
X106719714Y-93464119D01*
X106767333Y-93368880D01*
X107338761Y-92511738D02*
X107386380Y-92606976D01*
X107386380Y-92797452D01*
X107338761Y-92892690D01*
X107243523Y-92940309D01*
X106862571Y-92940309D01*
X106767333Y-92892690D01*
X106719714Y-92797452D01*
X106719714Y-92606976D01*
X106767333Y-92511738D01*
X106862571Y-92464119D01*
X106957809Y-92464119D01*
X107053047Y-92940309D01*
X107386380Y-91511738D02*
X107386380Y-92083166D01*
X107386380Y-91797452D02*
X106386380Y-91797452D01*
X106529238Y-91892690D01*
X106624476Y-91987928D01*
X106672095Y-92083166D01*
X152146238Y-67603714D02*
X152146238Y-68603714D01*
X152146238Y-67651333D02*
X152241476Y-67603714D01*
X152431952Y-67603714D01*
X152527190Y-67651333D01*
X152574809Y-67698952D01*
X152622428Y-67794190D01*
X152622428Y-68079904D01*
X152574809Y-68175142D01*
X152527190Y-68222761D01*
X152431952Y-68270380D01*
X152241476Y-68270380D01*
X152146238Y-68222761D01*
X153051000Y-68270380D02*
X153051000Y-67603714D01*
X153051000Y-67794190D02*
X153098619Y-67698952D01*
X153146238Y-67651333D01*
X153241476Y-67603714D01*
X153336714Y-67603714D01*
X153812904Y-68270380D02*
X153717666Y-68222761D01*
X153670047Y-68175142D01*
X153622428Y-68079904D01*
X153622428Y-67794190D01*
X153670047Y-67698952D01*
X153717666Y-67651333D01*
X153812904Y-67603714D01*
X153955761Y-67603714D01*
X154051000Y-67651333D01*
X154098619Y-67698952D01*
X154146238Y-67794190D01*
X154146238Y-68079904D01*
X154098619Y-68175142D01*
X154051000Y-68222761D01*
X153955761Y-68270380D01*
X153812904Y-68270380D01*
X155003380Y-67603714D02*
X155003380Y-68413238D01*
X154955761Y-68508476D01*
X154908142Y-68556095D01*
X154812904Y-68603714D01*
X154670047Y-68603714D01*
X154574809Y-68556095D01*
X155003380Y-68222761D02*
X154908142Y-68270380D01*
X154717666Y-68270380D01*
X154622428Y-68222761D01*
X154574809Y-68175142D01*
X154527190Y-68079904D01*
X154527190Y-67794190D01*
X154574809Y-67698952D01*
X154622428Y-67651333D01*
X154717666Y-67603714D01*
X154908142Y-67603714D01*
X155003380Y-67651333D01*
X156003380Y-68270380D02*
X155431952Y-68270380D01*
X155717666Y-68270380D02*
X155717666Y-67270380D01*
X155622428Y-67413238D01*
X155527190Y-67508476D01*
X155431952Y-67556095D01*
X151884238Y-129690761D02*
X151979476Y-129738380D01*
X152169952Y-129738380D01*
X152265190Y-129690761D01*
X152312809Y-129595523D01*
X152312809Y-129547904D01*
X152265190Y-129452666D01*
X152169952Y-129405047D01*
X152027095Y-129405047D01*
X151931857Y-129357428D01*
X151884238Y-129262190D01*
X151884238Y-129214571D01*
X151931857Y-129119333D01*
X152027095Y-129071714D01*
X152169952Y-129071714D01*
X152265190Y-129119333D01*
X152884238Y-129738380D02*
X152789000Y-129690761D01*
X152741380Y-129643142D01*
X152693761Y-129547904D01*
X152693761Y-129262190D01*
X152741380Y-129166952D01*
X152789000Y-129119333D01*
X152884238Y-129071714D01*
X153027095Y-129071714D01*
X153122333Y-129119333D01*
X153169952Y-129166952D01*
X153217571Y-129262190D01*
X153217571Y-129547904D01*
X153169952Y-129643142D01*
X153122333Y-129690761D01*
X153027095Y-129738380D01*
X152884238Y-129738380D01*
X153789000Y-129738380D02*
X153693761Y-129690761D01*
X153646142Y-129595523D01*
X153646142Y-128738380D01*
X154122333Y-128833619D02*
X154169952Y-128786000D01*
X154265190Y-128738380D01*
X154503285Y-128738380D01*
X154598523Y-128786000D01*
X154646142Y-128833619D01*
X154693761Y-128928857D01*
X154693761Y-129024095D01*
X154646142Y-129166952D01*
X154074714Y-129738380D01*
X154693761Y-129738380D01*
X118959666Y-129738380D02*
X118959666Y-128738380D01*
X118959666Y-129119333D02*
X119054904Y-129071714D01*
X119245380Y-129071714D01*
X119340619Y-129119333D01*
X119388238Y-129166952D01*
X119435857Y-129262190D01*
X119435857Y-129547904D01*
X119388238Y-129643142D01*
X119340619Y-129690761D01*
X119245380Y-129738380D01*
X119054904Y-129738380D01*
X118959666Y-129690761D01*
X120293000Y-129738380D02*
X120293000Y-129214571D01*
X120245380Y-129119333D01*
X120150142Y-129071714D01*
X119959666Y-129071714D01*
X119864428Y-129119333D01*
X120293000Y-129690761D02*
X120197761Y-129738380D01*
X119959666Y-129738380D01*
X119864428Y-129690761D01*
X119816809Y-129595523D01*
X119816809Y-129500285D01*
X119864428Y-129405047D01*
X119959666Y-129357428D01*
X120197761Y-129357428D01*
X120293000Y-129309809D01*
X120626333Y-129071714D02*
X121007285Y-129071714D01*
X120769190Y-128738380D02*
X120769190Y-129595523D01*
X120816809Y-129690761D01*
X120912047Y-129738380D01*
X121007285Y-129738380D01*
X121197761Y-129071714D02*
X121578714Y-129071714D01*
X121340619Y-128738380D02*
X121340619Y-129595523D01*
X121388238Y-129690761D01*
X121483476Y-129738380D01*
X121578714Y-129738380D01*
X122293000Y-129690761D02*
X122197761Y-129738380D01*
X122007285Y-129738380D01*
X121912047Y-129690761D01*
X121864428Y-129595523D01*
X121864428Y-129214571D01*
X121912047Y-129119333D01*
X122007285Y-129071714D01*
X122197761Y-129071714D01*
X122293000Y-129119333D01*
X122340619Y-129214571D01*
X122340619Y-129309809D01*
X121864428Y-129405047D01*
X122769190Y-129738380D02*
X122769190Y-129071714D01*
X122769190Y-129262190D02*
X122816809Y-129166952D01*
X122864428Y-129119333D01*
X122959666Y-129071714D01*
X123054904Y-129071714D01*
X123293000Y-129071714D02*
X123531095Y-129738380D01*
X123769190Y-129071714D02*
X123531095Y-129738380D01*
X123435857Y-129976476D01*
X123388238Y-130024095D01*
X123293000Y-130071714D01*
X124673952Y-129738380D02*
X124102523Y-129738380D01*
X124388238Y-129738380D02*
X124388238Y-128738380D01*
X124293000Y-128881238D01*
X124197761Y-128976476D01*
X124102523Y-129024095D01*
X157377238Y-113476114D02*
X157758190Y-113476114D01*
X157520095Y-113142780D02*
X157520095Y-113999923D01*
X157567714Y-114095161D01*
X157662952Y-114142780D01*
X157758190Y-114142780D01*
X158091523Y-114142780D02*
X158091523Y-113476114D01*
X158091523Y-113666590D02*
X158139142Y-113571352D01*
X158186761Y-113523733D01*
X158282000Y-113476114D01*
X158377238Y-113476114D01*
X159091523Y-114095161D02*
X158996285Y-114142780D01*
X158805809Y-114142780D01*
X158710571Y-114095161D01*
X158662952Y-113999923D01*
X158662952Y-113618971D01*
X158710571Y-113523733D01*
X158805809Y-113476114D01*
X158996285Y-113476114D01*
X159091523Y-113523733D01*
X159139142Y-113618971D01*
X159139142Y-113714209D01*
X158662952Y-113809447D01*
X159520095Y-114095161D02*
X159615333Y-114142780D01*
X159805809Y-114142780D01*
X159901047Y-114095161D01*
X159948666Y-113999923D01*
X159948666Y-113952304D01*
X159901047Y-113857066D01*
X159805809Y-113809447D01*
X159662952Y-113809447D01*
X159567714Y-113761828D01*
X159520095Y-113666590D01*
X159520095Y-113618971D01*
X159567714Y-113523733D01*
X159662952Y-113476114D01*
X159805809Y-113476114D01*
X159901047Y-113523733D01*
X160329619Y-113238019D02*
X160377238Y-113190400D01*
X160472476Y-113142780D01*
X160710571Y-113142780D01*
X160805809Y-113190400D01*
X160853428Y-113238019D01*
X160901047Y-113333257D01*
X160901047Y-113428495D01*
X160853428Y-113571352D01*
X160282000Y-114142780D01*
X160901047Y-114142780D01*
X161282000Y-114095161D02*
X161377238Y-114142780D01*
X161567714Y-114142780D01*
X161662952Y-114095161D01*
X161710571Y-113999923D01*
X161710571Y-113952304D01*
X161662952Y-113857066D01*
X161567714Y-113809447D01*
X161424857Y-113809447D01*
X161329619Y-113761828D01*
X161282000Y-113666590D01*
X161282000Y-113618971D01*
X161329619Y-113523733D01*
X161424857Y-113476114D01*
X161567714Y-113476114D01*
X161662952Y-113523733D01*
X162282000Y-114142780D02*
X162186761Y-114095161D01*
X162139142Y-114047542D01*
X162091523Y-113952304D01*
X162091523Y-113666590D01*
X162139142Y-113571352D01*
X162186761Y-113523733D01*
X162282000Y-113476114D01*
X162424857Y-113476114D01*
X162520095Y-113523733D01*
X162567714Y-113571352D01*
X162615333Y-113666590D01*
X162615333Y-113952304D01*
X162567714Y-114047542D01*
X162520095Y-114095161D01*
X162424857Y-114142780D01*
X162282000Y-114142780D01*
X163186761Y-114142780D02*
X163091523Y-114095161D01*
X163043904Y-113999923D01*
X163043904Y-113142780D01*
X163520095Y-113238019D02*
X163567714Y-113190400D01*
X163662952Y-113142780D01*
X163901047Y-113142780D01*
X163996285Y-113190400D01*
X164043904Y-113238019D01*
X164091523Y-113333257D01*
X164091523Y-113428495D01*
X164043904Y-113571352D01*
X163472476Y-114142780D01*
X164091523Y-114142780D01*
X156115333Y-112034580D02*
X156115333Y-111034580D01*
X156686761Y-112034580D01*
X156686761Y-111034580D01*
X157162952Y-112034580D02*
X157162952Y-111034580D01*
X157496285Y-111748866D01*
X157829619Y-111034580D01*
X157829619Y-112034580D01*
X158496285Y-111034580D02*
X158686761Y-111034580D01*
X158782000Y-111082200D01*
X158877238Y-111177438D01*
X158924857Y-111367914D01*
X158924857Y-111701247D01*
X158877238Y-111891723D01*
X158782000Y-111986961D01*
X158686761Y-112034580D01*
X158496285Y-112034580D01*
X158401047Y-111986961D01*
X158305809Y-111891723D01*
X158258190Y-111701247D01*
X158258190Y-111367914D01*
X158305809Y-111177438D01*
X158401047Y-111082200D01*
X158496285Y-111034580D01*
X159305809Y-111986961D02*
X159448666Y-112034580D01*
X159686761Y-112034580D01*
X159782000Y-111986961D01*
X159829619Y-111939342D01*
X159877238Y-111844104D01*
X159877238Y-111748866D01*
X159829619Y-111653628D01*
X159782000Y-111606009D01*
X159686761Y-111558390D01*
X159496285Y-111510771D01*
X159401047Y-111463152D01*
X159353428Y-111415533D01*
X159305809Y-111320295D01*
X159305809Y-111225057D01*
X159353428Y-111129819D01*
X159401047Y-111082200D01*
X159496285Y-111034580D01*
X159734380Y-111034580D01*
X159877238Y-111082200D01*
X160067714Y-112129819D02*
X160829619Y-112129819D01*
X161639142Y-111939342D02*
X161591523Y-111986961D01*
X161448666Y-112034580D01*
X161353428Y-112034580D01*
X161210571Y-111986961D01*
X161115333Y-111891723D01*
X161067714Y-111796485D01*
X161020095Y-111606009D01*
X161020095Y-111463152D01*
X161067714Y-111272676D01*
X161115333Y-111177438D01*
X161210571Y-111082200D01*
X161353428Y-111034580D01*
X161448666Y-111034580D01*
X161591523Y-111082200D01*
X161639142Y-111129819D01*
X162067714Y-112034580D02*
X162067714Y-111034580D01*
X162305809Y-111034580D01*
X162448666Y-111082200D01*
X162543904Y-111177438D01*
X162591523Y-111272676D01*
X162639142Y-111463152D01*
X162639142Y-111606009D01*
X162591523Y-111796485D01*
X162543904Y-111891723D01*
X162448666Y-111986961D01*
X162305809Y-112034580D01*
X162067714Y-112034580D01*
X163020095Y-111986961D02*
X163162952Y-112034580D01*
X163401047Y-112034580D01*
X163496285Y-111986961D01*
X163543904Y-111939342D01*
X163591523Y-111844104D01*
X163591523Y-111748866D01*
X163543904Y-111653628D01*
X163496285Y-111606009D01*
X163401047Y-111558390D01*
X163210571Y-111510771D01*
X163115333Y-111463152D01*
X163067714Y-111415533D01*
X163020095Y-111320295D01*
X163020095Y-111225057D01*
X163067714Y-111129819D01*
X163115333Y-111082200D01*
X163210571Y-111034580D01*
X163448666Y-111034580D01*
X163591523Y-111082200D01*
X164543904Y-112034580D02*
X163972476Y-112034580D01*
X164258190Y-112034580D02*
X164258190Y-111034580D01*
X164162952Y-111177438D01*
X164067714Y-111272676D01*
X163972476Y-111320295D01*
X165401047Y-111034580D02*
X165210571Y-111034580D01*
X165115333Y-111082200D01*
X165067714Y-111129819D01*
X164972476Y-111272676D01*
X164924857Y-111463152D01*
X164924857Y-111844104D01*
X164972476Y-111939342D01*
X165020095Y-111986961D01*
X165115333Y-112034580D01*
X165305809Y-112034580D01*
X165401047Y-111986961D01*
X165448666Y-111939342D01*
X165496285Y-111844104D01*
X165496285Y-111606009D01*
X165448666Y-111510771D01*
X165401047Y-111463152D01*
X165305809Y-111415533D01*
X165115333Y-111415533D01*
X165020095Y-111463152D01*
X164972476Y-111510771D01*
X164924857Y-111606009D01*
X139597238Y-112815714D02*
X139978190Y-112815714D01*
X139740095Y-112482380D02*
X139740095Y-113339523D01*
X139787714Y-113434761D01*
X139882952Y-113482380D01*
X139978190Y-113482380D01*
X140311523Y-113482380D02*
X140311523Y-112815714D01*
X140311523Y-113006190D02*
X140359142Y-112910952D01*
X140406761Y-112863333D01*
X140502000Y-112815714D01*
X140597238Y-112815714D01*
X141311523Y-113434761D02*
X141216285Y-113482380D01*
X141025809Y-113482380D01*
X140930571Y-113434761D01*
X140882952Y-113339523D01*
X140882952Y-112958571D01*
X140930571Y-112863333D01*
X141025809Y-112815714D01*
X141216285Y-112815714D01*
X141311523Y-112863333D01*
X141359142Y-112958571D01*
X141359142Y-113053809D01*
X140882952Y-113149047D01*
X141740095Y-113434761D02*
X141835333Y-113482380D01*
X142025809Y-113482380D01*
X142121047Y-113434761D01*
X142168666Y-113339523D01*
X142168666Y-113291904D01*
X142121047Y-113196666D01*
X142025809Y-113149047D01*
X141882952Y-113149047D01*
X141787714Y-113101428D01*
X141740095Y-113006190D01*
X141740095Y-112958571D01*
X141787714Y-112863333D01*
X141882952Y-112815714D01*
X142025809Y-112815714D01*
X142121047Y-112863333D01*
X142549619Y-112577619D02*
X142597238Y-112530000D01*
X142692476Y-112482380D01*
X142930571Y-112482380D01*
X143025809Y-112530000D01*
X143073428Y-112577619D01*
X143121047Y-112672857D01*
X143121047Y-112768095D01*
X143073428Y-112910952D01*
X142502000Y-113482380D01*
X143121047Y-113482380D01*
X143502000Y-113434761D02*
X143597238Y-113482380D01*
X143787714Y-113482380D01*
X143882952Y-113434761D01*
X143930571Y-113339523D01*
X143930571Y-113291904D01*
X143882952Y-113196666D01*
X143787714Y-113149047D01*
X143644857Y-113149047D01*
X143549619Y-113101428D01*
X143502000Y-113006190D01*
X143502000Y-112958571D01*
X143549619Y-112863333D01*
X143644857Y-112815714D01*
X143787714Y-112815714D01*
X143882952Y-112863333D01*
X144502000Y-113482380D02*
X144406761Y-113434761D01*
X144359142Y-113387142D01*
X144311523Y-113291904D01*
X144311523Y-113006190D01*
X144359142Y-112910952D01*
X144406761Y-112863333D01*
X144502000Y-112815714D01*
X144644857Y-112815714D01*
X144740095Y-112863333D01*
X144787714Y-112910952D01*
X144835333Y-113006190D01*
X144835333Y-113291904D01*
X144787714Y-113387142D01*
X144740095Y-113434761D01*
X144644857Y-113482380D01*
X144502000Y-113482380D01*
X145406761Y-113482380D02*
X145311523Y-113434761D01*
X145263904Y-113339523D01*
X145263904Y-112482380D01*
X146311523Y-113482380D02*
X145740095Y-113482380D01*
X146025809Y-113482380D02*
X146025809Y-112482380D01*
X145930571Y-112625238D01*
X145835333Y-112720476D01*
X145740095Y-112768095D01*
X138335333Y-111831380D02*
X138335333Y-110831380D01*
X138906761Y-111831380D01*
X138906761Y-110831380D01*
X139382952Y-111831380D02*
X139382952Y-110831380D01*
X139716285Y-111545666D01*
X140049619Y-110831380D01*
X140049619Y-111831380D01*
X140716285Y-110831380D02*
X140906761Y-110831380D01*
X141002000Y-110879000D01*
X141097238Y-110974238D01*
X141144857Y-111164714D01*
X141144857Y-111498047D01*
X141097238Y-111688523D01*
X141002000Y-111783761D01*
X140906761Y-111831380D01*
X140716285Y-111831380D01*
X140621047Y-111783761D01*
X140525809Y-111688523D01*
X140478190Y-111498047D01*
X140478190Y-111164714D01*
X140525809Y-110974238D01*
X140621047Y-110879000D01*
X140716285Y-110831380D01*
X141525809Y-111783761D02*
X141668666Y-111831380D01*
X141906761Y-111831380D01*
X142002000Y-111783761D01*
X142049619Y-111736142D01*
X142097238Y-111640904D01*
X142097238Y-111545666D01*
X142049619Y-111450428D01*
X142002000Y-111402809D01*
X141906761Y-111355190D01*
X141716285Y-111307571D01*
X141621047Y-111259952D01*
X141573428Y-111212333D01*
X141525809Y-111117095D01*
X141525809Y-111021857D01*
X141573428Y-110926619D01*
X141621047Y-110879000D01*
X141716285Y-110831380D01*
X141954380Y-110831380D01*
X142097238Y-110879000D01*
X142287714Y-111926619D02*
X143049619Y-111926619D01*
X143859142Y-111736142D02*
X143811523Y-111783761D01*
X143668666Y-111831380D01*
X143573428Y-111831380D01*
X143430571Y-111783761D01*
X143335333Y-111688523D01*
X143287714Y-111593285D01*
X143240095Y-111402809D01*
X143240095Y-111259952D01*
X143287714Y-111069476D01*
X143335333Y-110974238D01*
X143430571Y-110879000D01*
X143573428Y-110831380D01*
X143668666Y-110831380D01*
X143811523Y-110879000D01*
X143859142Y-110926619D01*
X144287714Y-111831380D02*
X144287714Y-110831380D01*
X144525809Y-110831380D01*
X144668666Y-110879000D01*
X144763904Y-110974238D01*
X144811523Y-111069476D01*
X144859142Y-111259952D01*
X144859142Y-111402809D01*
X144811523Y-111593285D01*
X144763904Y-111688523D01*
X144668666Y-111783761D01*
X144525809Y-111831380D01*
X144287714Y-111831380D01*
X145240095Y-111783761D02*
X145382952Y-111831380D01*
X145621047Y-111831380D01*
X145716285Y-111783761D01*
X145763904Y-111736142D01*
X145811523Y-111640904D01*
X145811523Y-111545666D01*
X145763904Y-111450428D01*
X145716285Y-111402809D01*
X145621047Y-111355190D01*
X145430571Y-111307571D01*
X145335333Y-111259952D01*
X145287714Y-111212333D01*
X145240095Y-111117095D01*
X145240095Y-111021857D01*
X145287714Y-110926619D01*
X145335333Y-110879000D01*
X145430571Y-110831380D01*
X145668666Y-110831380D01*
X145811523Y-110879000D01*
X146763904Y-111831380D02*
X146192476Y-111831380D01*
X146478190Y-111831380D02*
X146478190Y-110831380D01*
X146382952Y-110974238D01*
X146287714Y-111069476D01*
X146192476Y-111117095D01*
X147621047Y-110831380D02*
X147430571Y-110831380D01*
X147335333Y-110879000D01*
X147287714Y-110926619D01*
X147192476Y-111069476D01*
X147144857Y-111259952D01*
X147144857Y-111640904D01*
X147192476Y-111736142D01*
X147240095Y-111783761D01*
X147335333Y-111831380D01*
X147525809Y-111831380D01*
X147621047Y-111783761D01*
X147668666Y-111736142D01*
X147716285Y-111640904D01*
X147716285Y-111402809D01*
X147668666Y-111307571D01*
X147621047Y-111259952D01*
X147525809Y-111212333D01*
X147335333Y-111212333D01*
X147240095Y-111259952D01*
X147192476Y-111307571D01*
X147144857Y-111402809D01*
X143002000Y-111974380D02*
X143002000Y-112212476D01*
X142763904Y-112117238D02*
X143002000Y-112212476D01*
X143240095Y-112117238D01*
X142859142Y-112402952D02*
X143002000Y-112212476D01*
X143144857Y-112402952D01*
X157377238Y-121769214D02*
X157758190Y-121769214D01*
X157520095Y-121435880D02*
X157520095Y-122293023D01*
X157567714Y-122388261D01*
X157662952Y-122435880D01*
X157758190Y-122435880D01*
X158091523Y-122435880D02*
X158091523Y-121769214D01*
X158091523Y-121959690D02*
X158139142Y-121864452D01*
X158186761Y-121816833D01*
X158282000Y-121769214D01*
X158377238Y-121769214D01*
X159091523Y-122388261D02*
X158996285Y-122435880D01*
X158805809Y-122435880D01*
X158710571Y-122388261D01*
X158662952Y-122293023D01*
X158662952Y-121912071D01*
X158710571Y-121816833D01*
X158805809Y-121769214D01*
X158996285Y-121769214D01*
X159091523Y-121816833D01*
X159139142Y-121912071D01*
X159139142Y-122007309D01*
X158662952Y-122102547D01*
X159520095Y-122388261D02*
X159615333Y-122435880D01*
X159805809Y-122435880D01*
X159901047Y-122388261D01*
X159948666Y-122293023D01*
X159948666Y-122245404D01*
X159901047Y-122150166D01*
X159805809Y-122102547D01*
X159662952Y-122102547D01*
X159567714Y-122054928D01*
X159520095Y-121959690D01*
X159520095Y-121912071D01*
X159567714Y-121816833D01*
X159662952Y-121769214D01*
X159805809Y-121769214D01*
X159901047Y-121816833D01*
X160901047Y-122435880D02*
X160329619Y-122435880D01*
X160615333Y-122435880D02*
X160615333Y-121435880D01*
X160520095Y-121578738D01*
X160424857Y-121673976D01*
X160329619Y-121721595D01*
X161282000Y-122388261D02*
X161377238Y-122435880D01*
X161567714Y-122435880D01*
X161662952Y-122388261D01*
X161710571Y-122293023D01*
X161710571Y-122245404D01*
X161662952Y-122150166D01*
X161567714Y-122102547D01*
X161424857Y-122102547D01*
X161329619Y-122054928D01*
X161282000Y-121959690D01*
X161282000Y-121912071D01*
X161329619Y-121816833D01*
X161424857Y-121769214D01*
X161567714Y-121769214D01*
X161662952Y-121816833D01*
X162282000Y-122435880D02*
X162186761Y-122388261D01*
X162139142Y-122340642D01*
X162091523Y-122245404D01*
X162091523Y-121959690D01*
X162139142Y-121864452D01*
X162186761Y-121816833D01*
X162282000Y-121769214D01*
X162424857Y-121769214D01*
X162520095Y-121816833D01*
X162567714Y-121864452D01*
X162615333Y-121959690D01*
X162615333Y-122245404D01*
X162567714Y-122340642D01*
X162520095Y-122388261D01*
X162424857Y-122435880D01*
X162282000Y-122435880D01*
X163186761Y-122435880D02*
X163091523Y-122388261D01*
X163043904Y-122293023D01*
X163043904Y-121435880D01*
X163520095Y-121531119D02*
X163567714Y-121483500D01*
X163662952Y-121435880D01*
X163901047Y-121435880D01*
X163996285Y-121483500D01*
X164043904Y-121531119D01*
X164091523Y-121626357D01*
X164091523Y-121721595D01*
X164043904Y-121864452D01*
X163472476Y-122435880D01*
X164091523Y-122435880D01*
X156115333Y-120975380D02*
X156115333Y-119975380D01*
X156686761Y-120975380D01*
X156686761Y-119975380D01*
X157162952Y-120975380D02*
X157162952Y-119975380D01*
X157496285Y-120689666D01*
X157829619Y-119975380D01*
X157829619Y-120975380D01*
X158496285Y-119975380D02*
X158686761Y-119975380D01*
X158782000Y-120023000D01*
X158877238Y-120118238D01*
X158924857Y-120308714D01*
X158924857Y-120642047D01*
X158877238Y-120832523D01*
X158782000Y-120927761D01*
X158686761Y-120975380D01*
X158496285Y-120975380D01*
X158401047Y-120927761D01*
X158305809Y-120832523D01*
X158258190Y-120642047D01*
X158258190Y-120308714D01*
X158305809Y-120118238D01*
X158401047Y-120023000D01*
X158496285Y-119975380D01*
X159305809Y-120927761D02*
X159448666Y-120975380D01*
X159686761Y-120975380D01*
X159782000Y-120927761D01*
X159829619Y-120880142D01*
X159877238Y-120784904D01*
X159877238Y-120689666D01*
X159829619Y-120594428D01*
X159782000Y-120546809D01*
X159686761Y-120499190D01*
X159496285Y-120451571D01*
X159401047Y-120403952D01*
X159353428Y-120356333D01*
X159305809Y-120261095D01*
X159305809Y-120165857D01*
X159353428Y-120070619D01*
X159401047Y-120023000D01*
X159496285Y-119975380D01*
X159734380Y-119975380D01*
X159877238Y-120023000D01*
X160067714Y-121070619D02*
X160829619Y-121070619D01*
X161639142Y-120880142D02*
X161591523Y-120927761D01*
X161448666Y-120975380D01*
X161353428Y-120975380D01*
X161210571Y-120927761D01*
X161115333Y-120832523D01*
X161067714Y-120737285D01*
X161020095Y-120546809D01*
X161020095Y-120403952D01*
X161067714Y-120213476D01*
X161115333Y-120118238D01*
X161210571Y-120023000D01*
X161353428Y-119975380D01*
X161448666Y-119975380D01*
X161591523Y-120023000D01*
X161639142Y-120070619D01*
X162067714Y-120975380D02*
X162067714Y-119975380D01*
X162305809Y-119975380D01*
X162448666Y-120023000D01*
X162543904Y-120118238D01*
X162591523Y-120213476D01*
X162639142Y-120403952D01*
X162639142Y-120546809D01*
X162591523Y-120737285D01*
X162543904Y-120832523D01*
X162448666Y-120927761D01*
X162305809Y-120975380D01*
X162067714Y-120975380D01*
X163020095Y-120927761D02*
X163162952Y-120975380D01*
X163401047Y-120975380D01*
X163496285Y-120927761D01*
X163543904Y-120880142D01*
X163591523Y-120784904D01*
X163591523Y-120689666D01*
X163543904Y-120594428D01*
X163496285Y-120546809D01*
X163401047Y-120499190D01*
X163210571Y-120451571D01*
X163115333Y-120403952D01*
X163067714Y-120356333D01*
X163020095Y-120261095D01*
X163020095Y-120165857D01*
X163067714Y-120070619D01*
X163115333Y-120023000D01*
X163210571Y-119975380D01*
X163448666Y-119975380D01*
X163591523Y-120023000D01*
X164543904Y-120975380D02*
X163972476Y-120975380D01*
X164258190Y-120975380D02*
X164258190Y-119975380D01*
X164162952Y-120118238D01*
X164067714Y-120213476D01*
X163972476Y-120261095D01*
X165401047Y-119975380D02*
X165210571Y-119975380D01*
X165115333Y-120023000D01*
X165067714Y-120070619D01*
X164972476Y-120213476D01*
X164924857Y-120403952D01*
X164924857Y-120784904D01*
X164972476Y-120880142D01*
X165020095Y-120927761D01*
X165115333Y-120975380D01*
X165305809Y-120975380D01*
X165401047Y-120927761D01*
X165448666Y-120880142D01*
X165496285Y-120784904D01*
X165496285Y-120546809D01*
X165448666Y-120451571D01*
X165401047Y-120403952D01*
X165305809Y-120356333D01*
X165115333Y-120356333D01*
X165020095Y-120403952D01*
X164972476Y-120451571D01*
X164924857Y-120546809D01*
X139597238Y-121769214D02*
X139978190Y-121769214D01*
X139740095Y-121435880D02*
X139740095Y-122293023D01*
X139787714Y-122388261D01*
X139882952Y-122435880D01*
X139978190Y-122435880D01*
X140311523Y-122435880D02*
X140311523Y-121769214D01*
X140311523Y-121959690D02*
X140359142Y-121864452D01*
X140406761Y-121816833D01*
X140502000Y-121769214D01*
X140597238Y-121769214D01*
X141311523Y-122388261D02*
X141216285Y-122435880D01*
X141025809Y-122435880D01*
X140930571Y-122388261D01*
X140882952Y-122293023D01*
X140882952Y-121912071D01*
X140930571Y-121816833D01*
X141025809Y-121769214D01*
X141216285Y-121769214D01*
X141311523Y-121816833D01*
X141359142Y-121912071D01*
X141359142Y-122007309D01*
X140882952Y-122102547D01*
X141740095Y-122388261D02*
X141835333Y-122435880D01*
X142025809Y-122435880D01*
X142121047Y-122388261D01*
X142168666Y-122293023D01*
X142168666Y-122245404D01*
X142121047Y-122150166D01*
X142025809Y-122102547D01*
X141882952Y-122102547D01*
X141787714Y-122054928D01*
X141740095Y-121959690D01*
X141740095Y-121912071D01*
X141787714Y-121816833D01*
X141882952Y-121769214D01*
X142025809Y-121769214D01*
X142121047Y-121816833D01*
X143121047Y-122435880D02*
X142549619Y-122435880D01*
X142835333Y-122435880D02*
X142835333Y-121435880D01*
X142740095Y-121578738D01*
X142644857Y-121673976D01*
X142549619Y-121721595D01*
X143502000Y-122388261D02*
X143597238Y-122435880D01*
X143787714Y-122435880D01*
X143882952Y-122388261D01*
X143930571Y-122293023D01*
X143930571Y-122245404D01*
X143882952Y-122150166D01*
X143787714Y-122102547D01*
X143644857Y-122102547D01*
X143549619Y-122054928D01*
X143502000Y-121959690D01*
X143502000Y-121912071D01*
X143549619Y-121816833D01*
X143644857Y-121769214D01*
X143787714Y-121769214D01*
X143882952Y-121816833D01*
X144502000Y-122435880D02*
X144406761Y-122388261D01*
X144359142Y-122340642D01*
X144311523Y-122245404D01*
X144311523Y-121959690D01*
X144359142Y-121864452D01*
X144406761Y-121816833D01*
X144502000Y-121769214D01*
X144644857Y-121769214D01*
X144740095Y-121816833D01*
X144787714Y-121864452D01*
X144835333Y-121959690D01*
X144835333Y-122245404D01*
X144787714Y-122340642D01*
X144740095Y-122388261D01*
X144644857Y-122435880D01*
X144502000Y-122435880D01*
X145406761Y-122435880D02*
X145311523Y-122388261D01*
X145263904Y-122293023D01*
X145263904Y-121435880D01*
X146311523Y-122435880D02*
X145740095Y-122435880D01*
X146025809Y-122435880D02*
X146025809Y-121435880D01*
X145930571Y-121578738D01*
X145835333Y-121673976D01*
X145740095Y-121721595D01*
X138335333Y-120975380D02*
X138335333Y-119975380D01*
X138906761Y-120975380D01*
X138906761Y-119975380D01*
X139382952Y-120975380D02*
X139382952Y-119975380D01*
X139716285Y-120689666D01*
X140049619Y-119975380D01*
X140049619Y-120975380D01*
X140716285Y-119975380D02*
X140906761Y-119975380D01*
X141002000Y-120023000D01*
X141097238Y-120118238D01*
X141144857Y-120308714D01*
X141144857Y-120642047D01*
X141097238Y-120832523D01*
X141002000Y-120927761D01*
X140906761Y-120975380D01*
X140716285Y-120975380D01*
X140621047Y-120927761D01*
X140525809Y-120832523D01*
X140478190Y-120642047D01*
X140478190Y-120308714D01*
X140525809Y-120118238D01*
X140621047Y-120023000D01*
X140716285Y-119975380D01*
X141525809Y-120927761D02*
X141668666Y-120975380D01*
X141906761Y-120975380D01*
X142002000Y-120927761D01*
X142049619Y-120880142D01*
X142097238Y-120784904D01*
X142097238Y-120689666D01*
X142049619Y-120594428D01*
X142002000Y-120546809D01*
X141906761Y-120499190D01*
X141716285Y-120451571D01*
X141621047Y-120403952D01*
X141573428Y-120356333D01*
X141525809Y-120261095D01*
X141525809Y-120165857D01*
X141573428Y-120070619D01*
X141621047Y-120023000D01*
X141716285Y-119975380D01*
X141954380Y-119975380D01*
X142097238Y-120023000D01*
X142287714Y-121070619D02*
X143049619Y-121070619D01*
X143859142Y-120880142D02*
X143811523Y-120927761D01*
X143668666Y-120975380D01*
X143573428Y-120975380D01*
X143430571Y-120927761D01*
X143335333Y-120832523D01*
X143287714Y-120737285D01*
X143240095Y-120546809D01*
X143240095Y-120403952D01*
X143287714Y-120213476D01*
X143335333Y-120118238D01*
X143430571Y-120023000D01*
X143573428Y-119975380D01*
X143668666Y-119975380D01*
X143811523Y-120023000D01*
X143859142Y-120070619D01*
X144287714Y-120975380D02*
X144287714Y-119975380D01*
X144525809Y-119975380D01*
X144668666Y-120023000D01*
X144763904Y-120118238D01*
X144811523Y-120213476D01*
X144859142Y-120403952D01*
X144859142Y-120546809D01*
X144811523Y-120737285D01*
X144763904Y-120832523D01*
X144668666Y-120927761D01*
X144525809Y-120975380D01*
X144287714Y-120975380D01*
X145240095Y-120927761D02*
X145382952Y-120975380D01*
X145621047Y-120975380D01*
X145716285Y-120927761D01*
X145763904Y-120880142D01*
X145811523Y-120784904D01*
X145811523Y-120689666D01*
X145763904Y-120594428D01*
X145716285Y-120546809D01*
X145621047Y-120499190D01*
X145430571Y-120451571D01*
X145335333Y-120403952D01*
X145287714Y-120356333D01*
X145240095Y-120261095D01*
X145240095Y-120165857D01*
X145287714Y-120070619D01*
X145335333Y-120023000D01*
X145430571Y-119975380D01*
X145668666Y-119975380D01*
X145811523Y-120023000D01*
X146763904Y-120975380D02*
X146192476Y-120975380D01*
X146478190Y-120975380D02*
X146478190Y-119975380D01*
X146382952Y-120118238D01*
X146287714Y-120213476D01*
X146192476Y-120261095D01*
X147621047Y-119975380D02*
X147430571Y-119975380D01*
X147335333Y-120023000D01*
X147287714Y-120070619D01*
X147192476Y-120213476D01*
X147144857Y-120403952D01*
X147144857Y-120784904D01*
X147192476Y-120880142D01*
X147240095Y-120927761D01*
X147335333Y-120975380D01*
X147525809Y-120975380D01*
X147621047Y-120927761D01*
X147668666Y-120880142D01*
X147716285Y-120784904D01*
X147716285Y-120546809D01*
X147668666Y-120451571D01*
X147621047Y-120403952D01*
X147525809Y-120356333D01*
X147335333Y-120356333D01*
X147240095Y-120403952D01*
X147192476Y-120451571D01*
X147144857Y-120546809D01*
X154712942Y-92159057D02*
X154760561Y-92206676D01*
X154808180Y-92349533D01*
X154808180Y-92444771D01*
X154760561Y-92587628D01*
X154665323Y-92682866D01*
X154570085Y-92730485D01*
X154379609Y-92778104D01*
X154236752Y-92778104D01*
X154046276Y-92730485D01*
X153951038Y-92682866D01*
X153855800Y-92587628D01*
X153808180Y-92444771D01*
X153808180Y-92349533D01*
X153855800Y-92206676D01*
X153903419Y-92159057D01*
X154808180Y-91206676D02*
X154808180Y-91778104D01*
X154808180Y-91492390D02*
X153808180Y-91492390D01*
X153951038Y-91587628D01*
X154046276Y-91682866D01*
X154093895Y-91778104D01*
X153808180Y-90873342D02*
X153808180Y-90254295D01*
X154189133Y-90587628D01*
X154189133Y-90444771D01*
X154236752Y-90349533D01*
X154284371Y-90301914D01*
X154379609Y-90254295D01*
X154617704Y-90254295D01*
X154712942Y-90301914D01*
X154760561Y-90349533D01*
X154808180Y-90444771D01*
X154808180Y-90730485D01*
X154760561Y-90825723D01*
X154712942Y-90873342D01*
X154408142Y-101750666D02*
X154455761Y-101798285D01*
X154503380Y-101941142D01*
X154503380Y-102036380D01*
X154455761Y-102179238D01*
X154360523Y-102274476D01*
X154265285Y-102322095D01*
X154074809Y-102369714D01*
X153931952Y-102369714D01*
X153741476Y-102322095D01*
X153646238Y-102274476D01*
X153551000Y-102179238D01*
X153503380Y-102036380D01*
X153503380Y-101941142D01*
X153551000Y-101798285D01*
X153598619Y-101750666D01*
X153503380Y-100845904D02*
X153503380Y-101322095D01*
X153979571Y-101369714D01*
X153931952Y-101322095D01*
X153884333Y-101226857D01*
X153884333Y-100988761D01*
X153931952Y-100893523D01*
X153979571Y-100845904D01*
X154074809Y-100798285D01*
X154312904Y-100798285D01*
X154408142Y-100845904D01*
X154455761Y-100893523D01*
X154503380Y-100988761D01*
X154503380Y-101226857D01*
X154455761Y-101322095D01*
X154408142Y-101369714D01*
X175166993Y-86331062D02*
X175119374Y-86378681D01*
X174976517Y-86426300D01*
X174881279Y-86426300D01*
X174738421Y-86378681D01*
X174643183Y-86283443D01*
X174595564Y-86188205D01*
X174547945Y-85997729D01*
X174547945Y-85854872D01*
X174595564Y-85664396D01*
X174643183Y-85569158D01*
X174738421Y-85473920D01*
X174881279Y-85426300D01*
X174976517Y-85426300D01*
X175119374Y-85473920D01*
X175166993Y-85521539D01*
X176024136Y-85426300D02*
X175833660Y-85426300D01*
X175738421Y-85473920D01*
X175690802Y-85521539D01*
X175595564Y-85664396D01*
X175547945Y-85854872D01*
X175547945Y-86235824D01*
X175595564Y-86331062D01*
X175643183Y-86378681D01*
X175738421Y-86426300D01*
X175928898Y-86426300D01*
X176024136Y-86378681D01*
X176071755Y-86331062D01*
X176119374Y-86235824D01*
X176119374Y-85997729D01*
X176071755Y-85902491D01*
X176024136Y-85854872D01*
X175928898Y-85807253D01*
X175738421Y-85807253D01*
X175643183Y-85854872D01*
X175595564Y-85902491D01*
X175547945Y-85997729D01*
X175363333Y-77255642D02*
X175315714Y-77303261D01*
X175172857Y-77350880D01*
X175077619Y-77350880D01*
X174934761Y-77303261D01*
X174839523Y-77208023D01*
X174791904Y-77112785D01*
X174744285Y-76922309D01*
X174744285Y-76779452D01*
X174791904Y-76588976D01*
X174839523Y-76493738D01*
X174934761Y-76398500D01*
X175077619Y-76350880D01*
X175172857Y-76350880D01*
X175315714Y-76398500D01*
X175363333Y-76446119D01*
X175934761Y-76779452D02*
X175839523Y-76731833D01*
X175791904Y-76684214D01*
X175744285Y-76588976D01*
X175744285Y-76541357D01*
X175791904Y-76446119D01*
X175839523Y-76398500D01*
X175934761Y-76350880D01*
X176125238Y-76350880D01*
X176220476Y-76398500D01*
X176268095Y-76446119D01*
X176315714Y-76541357D01*
X176315714Y-76588976D01*
X176268095Y-76684214D01*
X176220476Y-76731833D01*
X176125238Y-76779452D01*
X175934761Y-76779452D01*
X175839523Y-76827071D01*
X175791904Y-76874690D01*
X175744285Y-76969928D01*
X175744285Y-77160404D01*
X175791904Y-77255642D01*
X175839523Y-77303261D01*
X175934761Y-77350880D01*
X176125238Y-77350880D01*
X176220476Y-77303261D01*
X176268095Y-77255642D01*
X176315714Y-77160404D01*
X176315714Y-76969928D01*
X176268095Y-76874690D01*
X176220476Y-76827071D01*
X176125238Y-76779452D01*
X155059142Y-79795642D02*
X155011523Y-79843261D01*
X154868666Y-79890880D01*
X154773428Y-79890880D01*
X154630571Y-79843261D01*
X154535333Y-79748023D01*
X154487714Y-79652785D01*
X154440095Y-79462309D01*
X154440095Y-79319452D01*
X154487714Y-79128976D01*
X154535333Y-79033738D01*
X154630571Y-78938500D01*
X154773428Y-78890880D01*
X154868666Y-78890880D01*
X155011523Y-78938500D01*
X155059142Y-78986119D01*
X156011523Y-79890880D02*
X155440095Y-79890880D01*
X155725809Y-79890880D02*
X155725809Y-78890880D01*
X155630571Y-79033738D01*
X155535333Y-79128976D01*
X155440095Y-79176595D01*
X156963904Y-79890880D02*
X156392476Y-79890880D01*
X156678190Y-79890880D02*
X156678190Y-78890880D01*
X156582952Y-79033738D01*
X156487714Y-79128976D01*
X156392476Y-79176595D01*
X107775595Y-125468071D02*
X107918452Y-125515690D01*
X107966071Y-125563309D01*
X108013690Y-125658547D01*
X108013690Y-125801404D01*
X107966071Y-125896642D01*
X107918452Y-125944261D01*
X107823214Y-125991880D01*
X107442261Y-125991880D01*
X107442261Y-124991880D01*
X107775595Y-124991880D01*
X107870833Y-125039500D01*
X107918452Y-125087119D01*
X107966071Y-125182357D01*
X107966071Y-125277595D01*
X107918452Y-125372833D01*
X107870833Y-125420452D01*
X107775595Y-125468071D01*
X107442261Y-125468071D01*
X108918452Y-125991880D02*
X108442261Y-125991880D01*
X108442261Y-124991880D01*
X109251785Y-125468071D02*
X109585119Y-125468071D01*
X109727976Y-125991880D02*
X109251785Y-125991880D01*
X109251785Y-124991880D01*
X109727976Y-124991880D01*
X110156547Y-125991880D02*
X110156547Y-124991880D01*
X110394642Y-124991880D01*
X110537500Y-125039500D01*
X110632738Y-125134738D01*
X110680357Y-125229976D01*
X110727976Y-125420452D01*
X110727976Y-125563309D01*
X110680357Y-125753785D01*
X110632738Y-125849023D01*
X110537500Y-125944261D01*
X110394642Y-125991880D01*
X110156547Y-125991880D01*
X111680357Y-125991880D02*
X111108928Y-125991880D01*
X111394642Y-125991880D02*
X111394642Y-124991880D01*
X111299404Y-125134738D01*
X111204166Y-125229976D01*
X111108928Y-125277595D01*
X177490380Y-107171785D02*
X176490380Y-107171785D01*
X176490380Y-106790833D01*
X176538000Y-106695595D01*
X176585619Y-106647976D01*
X176680857Y-106600357D01*
X176823714Y-106600357D01*
X176918952Y-106647976D01*
X176966571Y-106695595D01*
X177014190Y-106790833D01*
X177014190Y-107171785D01*
X177490380Y-105695595D02*
X177490380Y-106171785D01*
X176490380Y-106171785D01*
X176966571Y-105362261D02*
X176966571Y-105028928D01*
X177490380Y-104886071D02*
X177490380Y-105362261D01*
X176490380Y-105362261D01*
X176490380Y-104886071D01*
X177490380Y-104457500D02*
X176490380Y-104457500D01*
X176490380Y-104219404D01*
X176538000Y-104076547D01*
X176633238Y-103981309D01*
X176728476Y-103933690D01*
X176918952Y-103886071D01*
X177061809Y-103886071D01*
X177252285Y-103933690D01*
X177347523Y-103981309D01*
X177442761Y-104076547D01*
X177490380Y-104219404D01*
X177490380Y-104457500D01*
X177109428Y-103457500D02*
X177109428Y-102695595D01*
X177490380Y-101695595D02*
X177490380Y-102267023D01*
X177490380Y-101981309D02*
X176490380Y-101981309D01*
X176633238Y-102076547D01*
X176728476Y-102171785D01*
X176776095Y-102267023D01*
X180474880Y-107171785D02*
X179474880Y-107171785D01*
X179474880Y-106790833D01*
X179522500Y-106695595D01*
X179570119Y-106647976D01*
X179665357Y-106600357D01*
X179808214Y-106600357D01*
X179903452Y-106647976D01*
X179951071Y-106695595D01*
X179998690Y-106790833D01*
X179998690Y-107171785D01*
X180474880Y-105695595D02*
X180474880Y-106171785D01*
X179474880Y-106171785D01*
X179951071Y-105362261D02*
X179951071Y-105028928D01*
X180474880Y-104886071D02*
X180474880Y-105362261D01*
X179474880Y-105362261D01*
X179474880Y-104886071D01*
X180474880Y-104457500D02*
X179474880Y-104457500D01*
X179474880Y-104219404D01*
X179522500Y-104076547D01*
X179617738Y-103981309D01*
X179712976Y-103933690D01*
X179903452Y-103886071D01*
X180046309Y-103886071D01*
X180236785Y-103933690D01*
X180332023Y-103981309D01*
X180427261Y-104076547D01*
X180474880Y-104219404D01*
X180474880Y-104457500D01*
X180093928Y-103457500D02*
X180093928Y-102695595D01*
X179570119Y-102267023D02*
X179522500Y-102219404D01*
X179474880Y-102124166D01*
X179474880Y-101886071D01*
X179522500Y-101790833D01*
X179570119Y-101743214D01*
X179665357Y-101695595D01*
X179760595Y-101695595D01*
X179903452Y-101743214D01*
X180474880Y-102314642D01*
X180474880Y-101695595D01*
X183332380Y-107171785D02*
X182332380Y-107171785D01*
X182332380Y-106790833D01*
X182380000Y-106695595D01*
X182427619Y-106647976D01*
X182522857Y-106600357D01*
X182665714Y-106600357D01*
X182760952Y-106647976D01*
X182808571Y-106695595D01*
X182856190Y-106790833D01*
X182856190Y-107171785D01*
X183332380Y-105695595D02*
X183332380Y-106171785D01*
X182332380Y-106171785D01*
X182808571Y-105362261D02*
X182808571Y-105028928D01*
X183332380Y-104886071D02*
X183332380Y-105362261D01*
X182332380Y-105362261D01*
X182332380Y-104886071D01*
X183332380Y-104457500D02*
X182332380Y-104457500D01*
X182332380Y-104219404D01*
X182380000Y-104076547D01*
X182475238Y-103981309D01*
X182570476Y-103933690D01*
X182760952Y-103886071D01*
X182903809Y-103886071D01*
X183094285Y-103933690D01*
X183189523Y-103981309D01*
X183284761Y-104076547D01*
X183332380Y-104219404D01*
X183332380Y-104457500D01*
X182951428Y-103457500D02*
X182951428Y-102695595D01*
X182332380Y-102314642D02*
X182332380Y-101695595D01*
X182713333Y-102028928D01*
X182713333Y-101886071D01*
X182760952Y-101790833D01*
X182808571Y-101743214D01*
X182903809Y-101695595D01*
X183141904Y-101695595D01*
X183237142Y-101743214D01*
X183284761Y-101790833D01*
X183332380Y-101886071D01*
X183332380Y-102171785D01*
X183284761Y-102267023D01*
X183237142Y-102314642D01*
X133080619Y-125445780D02*
X133080619Y-124779114D01*
X133080619Y-124969590D02*
X133128238Y-124874352D01*
X133175857Y-124826733D01*
X133271095Y-124779114D01*
X133366333Y-124779114D01*
X133461571Y-125541019D02*
X134223476Y-125541019D01*
X134318714Y-124779114D02*
X134699666Y-124779114D01*
X134461571Y-124445780D02*
X134461571Y-125302923D01*
X134509190Y-125398161D01*
X134604428Y-125445780D01*
X134699666Y-125445780D01*
X135033000Y-125445780D02*
X135033000Y-124779114D01*
X135033000Y-124969590D02*
X135080619Y-124874352D01*
X135128238Y-124826733D01*
X135223476Y-124779114D01*
X135318714Y-124779114D01*
X136033000Y-125398161D02*
X135937761Y-125445780D01*
X135747285Y-125445780D01*
X135652047Y-125398161D01*
X135604428Y-125302923D01*
X135604428Y-124921971D01*
X135652047Y-124826733D01*
X135747285Y-124779114D01*
X135937761Y-124779114D01*
X136033000Y-124826733D01*
X136080619Y-124921971D01*
X136080619Y-125017209D01*
X135604428Y-125112447D01*
X136461571Y-125398161D02*
X136556809Y-125445780D01*
X136747285Y-125445780D01*
X136842523Y-125398161D01*
X136890142Y-125302923D01*
X136890142Y-125255304D01*
X136842523Y-125160066D01*
X136747285Y-125112447D01*
X136604428Y-125112447D01*
X136509190Y-125064828D01*
X136461571Y-124969590D01*
X136461571Y-124921971D01*
X136509190Y-124826733D01*
X136604428Y-124779114D01*
X136747285Y-124779114D01*
X136842523Y-124826733D01*
X137842523Y-125445780D02*
X137271095Y-125445780D01*
X137556809Y-125445780D02*
X137556809Y-124445780D01*
X137461571Y-124588638D01*
X137366333Y-124683876D01*
X137271095Y-124731495D01*
X138223476Y-125398161D02*
X138318714Y-125445780D01*
X138509190Y-125445780D01*
X138604428Y-125398161D01*
X138652047Y-125302923D01*
X138652047Y-125255304D01*
X138604428Y-125160066D01*
X138509190Y-125112447D01*
X138366333Y-125112447D01*
X138271095Y-125064828D01*
X138223476Y-124969590D01*
X138223476Y-124921971D01*
X138271095Y-124826733D01*
X138366333Y-124779114D01*
X138509190Y-124779114D01*
X138604428Y-124826733D01*
X139223476Y-125445780D02*
X139128238Y-125398161D01*
X139080619Y-125350542D01*
X139033000Y-125255304D01*
X139033000Y-124969590D01*
X139080619Y-124874352D01*
X139128238Y-124826733D01*
X139223476Y-124779114D01*
X139366333Y-124779114D01*
X139461571Y-124826733D01*
X139509190Y-124874352D01*
X139556809Y-124969590D01*
X139556809Y-125255304D01*
X139509190Y-125350542D01*
X139461571Y-125398161D01*
X139366333Y-125445780D01*
X139223476Y-125445780D01*
X140128238Y-125445780D02*
X140033000Y-125398161D01*
X139985380Y-125302923D01*
X139985380Y-124445780D01*
X141033000Y-125445780D02*
X140461571Y-125445780D01*
X140747285Y-125445780D02*
X140747285Y-124445780D01*
X140652047Y-124588638D01*
X140556809Y-124683876D01*
X140461571Y-124731495D01*
X150733619Y-125482880D02*
X150733619Y-124816214D01*
X150733619Y-125006690D02*
X150781238Y-124911452D01*
X150828857Y-124863833D01*
X150924095Y-124816214D01*
X151019333Y-124816214D01*
X151114571Y-125578119D02*
X151876476Y-125578119D01*
X151971714Y-124816214D02*
X152352666Y-124816214D01*
X152114571Y-124482880D02*
X152114571Y-125340023D01*
X152162190Y-125435261D01*
X152257428Y-125482880D01*
X152352666Y-125482880D01*
X152686000Y-125482880D02*
X152686000Y-124816214D01*
X152686000Y-125006690D02*
X152733619Y-124911452D01*
X152781238Y-124863833D01*
X152876476Y-124816214D01*
X152971714Y-124816214D01*
X153686000Y-125435261D02*
X153590761Y-125482880D01*
X153400285Y-125482880D01*
X153305047Y-125435261D01*
X153257428Y-125340023D01*
X153257428Y-124959071D01*
X153305047Y-124863833D01*
X153400285Y-124816214D01*
X153590761Y-124816214D01*
X153686000Y-124863833D01*
X153733619Y-124959071D01*
X153733619Y-125054309D01*
X153257428Y-125149547D01*
X154114571Y-125435261D02*
X154209809Y-125482880D01*
X154400285Y-125482880D01*
X154495523Y-125435261D01*
X154543142Y-125340023D01*
X154543142Y-125292404D01*
X154495523Y-125197166D01*
X154400285Y-125149547D01*
X154257428Y-125149547D01*
X154162190Y-125101928D01*
X154114571Y-125006690D01*
X154114571Y-124959071D01*
X154162190Y-124863833D01*
X154257428Y-124816214D01*
X154400285Y-124816214D01*
X154495523Y-124863833D01*
X155495523Y-125482880D02*
X154924095Y-125482880D01*
X155209809Y-125482880D02*
X155209809Y-124482880D01*
X155114571Y-124625738D01*
X155019333Y-124720976D01*
X154924095Y-124768595D01*
X155876476Y-125435261D02*
X155971714Y-125482880D01*
X156162190Y-125482880D01*
X156257428Y-125435261D01*
X156305047Y-125340023D01*
X156305047Y-125292404D01*
X156257428Y-125197166D01*
X156162190Y-125149547D01*
X156019333Y-125149547D01*
X155924095Y-125101928D01*
X155876476Y-125006690D01*
X155876476Y-124959071D01*
X155924095Y-124863833D01*
X156019333Y-124816214D01*
X156162190Y-124816214D01*
X156257428Y-124863833D01*
X156876476Y-125482880D02*
X156781238Y-125435261D01*
X156733619Y-125387642D01*
X156686000Y-125292404D01*
X156686000Y-125006690D01*
X156733619Y-124911452D01*
X156781238Y-124863833D01*
X156876476Y-124816214D01*
X157019333Y-124816214D01*
X157114571Y-124863833D01*
X157162190Y-124911452D01*
X157209809Y-125006690D01*
X157209809Y-125292404D01*
X157162190Y-125387642D01*
X157114571Y-125435261D01*
X157019333Y-125482880D01*
X156876476Y-125482880D01*
X157781238Y-125482880D02*
X157686000Y-125435261D01*
X157638380Y-125340023D01*
X157638380Y-124482880D01*
X158114571Y-124578119D02*
X158162190Y-124530500D01*
X158257428Y-124482880D01*
X158495523Y-124482880D01*
X158590761Y-124530500D01*
X158638380Y-124578119D01*
X158686000Y-124673357D01*
X158686000Y-124768595D01*
X158638380Y-124911452D01*
X158066952Y-125482880D01*
X158686000Y-125482880D01*
X150670119Y-113291880D02*
X150670119Y-112625214D01*
X150670119Y-112815690D02*
X150717738Y-112720452D01*
X150765357Y-112672833D01*
X150860595Y-112625214D01*
X150955833Y-112625214D01*
X151051071Y-113387119D02*
X151812976Y-113387119D01*
X151908214Y-112625214D02*
X152289166Y-112625214D01*
X152051071Y-112291880D02*
X152051071Y-113149023D01*
X152098690Y-113244261D01*
X152193928Y-113291880D01*
X152289166Y-113291880D01*
X152622500Y-113291880D02*
X152622500Y-112625214D01*
X152622500Y-112815690D02*
X152670119Y-112720452D01*
X152717738Y-112672833D01*
X152812976Y-112625214D01*
X152908214Y-112625214D01*
X153622500Y-113244261D02*
X153527261Y-113291880D01*
X153336785Y-113291880D01*
X153241547Y-113244261D01*
X153193928Y-113149023D01*
X153193928Y-112768071D01*
X153241547Y-112672833D01*
X153336785Y-112625214D01*
X153527261Y-112625214D01*
X153622500Y-112672833D01*
X153670119Y-112768071D01*
X153670119Y-112863309D01*
X153193928Y-112958547D01*
X154051071Y-113244261D02*
X154146309Y-113291880D01*
X154336785Y-113291880D01*
X154432023Y-113244261D01*
X154479642Y-113149023D01*
X154479642Y-113101404D01*
X154432023Y-113006166D01*
X154336785Y-112958547D01*
X154193928Y-112958547D01*
X154098690Y-112910928D01*
X154051071Y-112815690D01*
X154051071Y-112768071D01*
X154098690Y-112672833D01*
X154193928Y-112625214D01*
X154336785Y-112625214D01*
X154432023Y-112672833D01*
X154860595Y-112387119D02*
X154908214Y-112339500D01*
X155003452Y-112291880D01*
X155241547Y-112291880D01*
X155336785Y-112339500D01*
X155384404Y-112387119D01*
X155432023Y-112482357D01*
X155432023Y-112577595D01*
X155384404Y-112720452D01*
X154812976Y-113291880D01*
X155432023Y-113291880D01*
X155812976Y-113244261D02*
X155908214Y-113291880D01*
X156098690Y-113291880D01*
X156193928Y-113244261D01*
X156241547Y-113149023D01*
X156241547Y-113101404D01*
X156193928Y-113006166D01*
X156098690Y-112958547D01*
X155955833Y-112958547D01*
X155860595Y-112910928D01*
X155812976Y-112815690D01*
X155812976Y-112768071D01*
X155860595Y-112672833D01*
X155955833Y-112625214D01*
X156098690Y-112625214D01*
X156193928Y-112672833D01*
X156812976Y-113291880D02*
X156717738Y-113244261D01*
X156670119Y-113196642D01*
X156622500Y-113101404D01*
X156622500Y-112815690D01*
X156670119Y-112720452D01*
X156717738Y-112672833D01*
X156812976Y-112625214D01*
X156955833Y-112625214D01*
X157051071Y-112672833D01*
X157098690Y-112720452D01*
X157146309Y-112815690D01*
X157146309Y-113101404D01*
X157098690Y-113196642D01*
X157051071Y-113244261D01*
X156955833Y-113291880D01*
X156812976Y-113291880D01*
X157717738Y-113291880D02*
X157622500Y-113244261D01*
X157574880Y-113149023D01*
X157574880Y-112291880D01*
X158051071Y-112387119D02*
X158098690Y-112339500D01*
X158193928Y-112291880D01*
X158432023Y-112291880D01*
X158527261Y-112339500D01*
X158574880Y-112387119D01*
X158622500Y-112482357D01*
X158622500Y-112577595D01*
X158574880Y-112720452D01*
X158003452Y-113291880D01*
X158622500Y-113291880D01*
X174569380Y-96369166D02*
X174093190Y-96702500D01*
X174569380Y-96940595D02*
X173569380Y-96940595D01*
X173569380Y-96559642D01*
X173617000Y-96464404D01*
X173664619Y-96416785D01*
X173759857Y-96369166D01*
X173902714Y-96369166D01*
X173997952Y-96416785D01*
X174045571Y-96464404D01*
X174093190Y-96559642D01*
X174093190Y-96940595D01*
X173997952Y-95797738D02*
X173950333Y-95892976D01*
X173902714Y-95940595D01*
X173807476Y-95988214D01*
X173759857Y-95988214D01*
X173664619Y-95940595D01*
X173617000Y-95892976D01*
X173569380Y-95797738D01*
X173569380Y-95607261D01*
X173617000Y-95512023D01*
X173664619Y-95464404D01*
X173759857Y-95416785D01*
X173807476Y-95416785D01*
X173902714Y-95464404D01*
X173950333Y-95512023D01*
X173997952Y-95607261D01*
X173997952Y-95797738D01*
X174045571Y-95892976D01*
X174093190Y-95940595D01*
X174188428Y-95988214D01*
X174378904Y-95988214D01*
X174474142Y-95940595D01*
X174521761Y-95892976D01*
X174569380Y-95797738D01*
X174569380Y-95607261D01*
X174521761Y-95512023D01*
X174474142Y-95464404D01*
X174378904Y-95416785D01*
X174188428Y-95416785D01*
X174093190Y-95464404D01*
X174045571Y-95512023D01*
X173997952Y-95607261D01*
X154820880Y-83796166D02*
X154344690Y-84129500D01*
X154820880Y-84367595D02*
X153820880Y-84367595D01*
X153820880Y-83986642D01*
X153868500Y-83891404D01*
X153916119Y-83843785D01*
X154011357Y-83796166D01*
X154154214Y-83796166D01*
X154249452Y-83843785D01*
X154297071Y-83891404D01*
X154344690Y-83986642D01*
X154344690Y-84367595D01*
X154820880Y-83319976D02*
X154820880Y-83129500D01*
X154773261Y-83034261D01*
X154725642Y-82986642D01*
X154582785Y-82891404D01*
X154392309Y-82843785D01*
X154011357Y-82843785D01*
X153916119Y-82891404D01*
X153868500Y-82939023D01*
X153820880Y-83034261D01*
X153820880Y-83224738D01*
X153868500Y-83319976D01*
X153916119Y-83367595D01*
X154011357Y-83415214D01*
X154249452Y-83415214D01*
X154344690Y-83367595D01*
X154392309Y-83319976D01*
X154439928Y-83224738D01*
X154439928Y-83034261D01*
X154392309Y-82939023D01*
X154344690Y-82891404D01*
X154249452Y-82843785D01*
X116578142Y-124404380D02*
X116244809Y-123928190D01*
X116006714Y-124404380D02*
X116006714Y-123404380D01*
X116387666Y-123404380D01*
X116482904Y-123452000D01*
X116530523Y-123499619D01*
X116578142Y-123594857D01*
X116578142Y-123737714D01*
X116530523Y-123832952D01*
X116482904Y-123880571D01*
X116387666Y-123928190D01*
X116006714Y-123928190D01*
X117530523Y-124404380D02*
X116959095Y-124404380D01*
X117244809Y-124404380D02*
X117244809Y-123404380D01*
X117149571Y-123547238D01*
X117054333Y-123642476D01*
X116959095Y-123690095D01*
X118149571Y-123404380D02*
X118244809Y-123404380D01*
X118340047Y-123452000D01*
X118387666Y-123499619D01*
X118435285Y-123594857D01*
X118482904Y-123785333D01*
X118482904Y-124023428D01*
X118435285Y-124213904D01*
X118387666Y-124309142D01*
X118340047Y-124356761D01*
X118244809Y-124404380D01*
X118149571Y-124404380D01*
X118054333Y-124356761D01*
X118006714Y-124309142D01*
X117959095Y-124213904D01*
X117911476Y-124023428D01*
X117911476Y-123785333D01*
X117959095Y-123594857D01*
X118006714Y-123499619D01*
X118054333Y-123452000D01*
X118149571Y-123404380D01*
X151582380Y-92311457D02*
X151106190Y-92644790D01*
X151582380Y-92882885D02*
X150582380Y-92882885D01*
X150582380Y-92501933D01*
X150630000Y-92406695D01*
X150677619Y-92359076D01*
X150772857Y-92311457D01*
X150915714Y-92311457D01*
X151010952Y-92359076D01*
X151058571Y-92406695D01*
X151106190Y-92501933D01*
X151106190Y-92882885D01*
X151582380Y-91359076D02*
X151582380Y-91930504D01*
X151582380Y-91644790D02*
X150582380Y-91644790D01*
X150725238Y-91740028D01*
X150820476Y-91835266D01*
X150868095Y-91930504D01*
X151582380Y-90406695D02*
X151582380Y-90978123D01*
X151582380Y-90692409D02*
X150582380Y-90692409D01*
X150725238Y-90787647D01*
X150820476Y-90882885D01*
X150868095Y-90978123D01*
X177490380Y-97416857D02*
X177014190Y-97750190D01*
X177490380Y-97988285D02*
X176490380Y-97988285D01*
X176490380Y-97607333D01*
X176538000Y-97512095D01*
X176585619Y-97464476D01*
X176680857Y-97416857D01*
X176823714Y-97416857D01*
X176918952Y-97464476D01*
X176966571Y-97512095D01*
X177014190Y-97607333D01*
X177014190Y-97988285D01*
X177490380Y-96464476D02*
X177490380Y-97035904D01*
X177490380Y-96750190D02*
X176490380Y-96750190D01*
X176633238Y-96845428D01*
X176728476Y-96940666D01*
X176776095Y-97035904D01*
X176585619Y-96083523D02*
X176538000Y-96035904D01*
X176490380Y-95940666D01*
X176490380Y-95702571D01*
X176538000Y-95607333D01*
X176585619Y-95559714D01*
X176680857Y-95512095D01*
X176776095Y-95512095D01*
X176918952Y-95559714D01*
X177490380Y-96131142D01*
X177490380Y-95512095D01*
X180411380Y-97416857D02*
X179935190Y-97750190D01*
X180411380Y-97988285D02*
X179411380Y-97988285D01*
X179411380Y-97607333D01*
X179459000Y-97512095D01*
X179506619Y-97464476D01*
X179601857Y-97416857D01*
X179744714Y-97416857D01*
X179839952Y-97464476D01*
X179887571Y-97512095D01*
X179935190Y-97607333D01*
X179935190Y-97988285D01*
X180411380Y-96464476D02*
X180411380Y-97035904D01*
X180411380Y-96750190D02*
X179411380Y-96750190D01*
X179554238Y-96845428D01*
X179649476Y-96940666D01*
X179697095Y-97035904D01*
X179411380Y-96131142D02*
X179411380Y-95512095D01*
X179792333Y-95845428D01*
X179792333Y-95702571D01*
X179839952Y-95607333D01*
X179887571Y-95559714D01*
X179982809Y-95512095D01*
X180220904Y-95512095D01*
X180316142Y-95559714D01*
X180363761Y-95607333D01*
X180411380Y-95702571D01*
X180411380Y-95988285D01*
X180363761Y-96083523D01*
X180316142Y-96131142D01*
X183332380Y-97416857D02*
X182856190Y-97750190D01*
X183332380Y-97988285D02*
X182332380Y-97988285D01*
X182332380Y-97607333D01*
X182380000Y-97512095D01*
X182427619Y-97464476D01*
X182522857Y-97416857D01*
X182665714Y-97416857D01*
X182760952Y-97464476D01*
X182808571Y-97512095D01*
X182856190Y-97607333D01*
X182856190Y-97988285D01*
X183332380Y-96464476D02*
X183332380Y-97035904D01*
X183332380Y-96750190D02*
X182332380Y-96750190D01*
X182475238Y-96845428D01*
X182570476Y-96940666D01*
X182618095Y-97035904D01*
X182665714Y-95607333D02*
X183332380Y-95607333D01*
X182284761Y-95845428D02*
X182999047Y-96083523D01*
X182999047Y-95464476D01*
X158162904Y-100210880D02*
X157686714Y-100210880D01*
X157686714Y-99210880D01*
X158496238Y-100210880D02*
X158496238Y-99544214D01*
X158496238Y-99210880D02*
X158448619Y-99258500D01*
X158496238Y-99306119D01*
X158543857Y-99258500D01*
X158496238Y-99210880D01*
X158496238Y-99306119D01*
X158972428Y-99544214D02*
X158972428Y-100210880D01*
X158972428Y-99639452D02*
X159020047Y-99591833D01*
X159115285Y-99544214D01*
X159258142Y-99544214D01*
X159353380Y-99591833D01*
X159401000Y-99687071D01*
X159401000Y-100210880D01*
X160448619Y-100210880D02*
X160115285Y-99734690D01*
X159877190Y-100210880D02*
X159877190Y-99210880D01*
X160258142Y-99210880D01*
X160353380Y-99258500D01*
X160401000Y-99306119D01*
X160448619Y-99401357D01*
X160448619Y-99544214D01*
X160401000Y-99639452D01*
X160353380Y-99687071D01*
X160258142Y-99734690D01*
X159877190Y-99734690D01*
X161258142Y-100163261D02*
X161162904Y-100210880D01*
X160972428Y-100210880D01*
X160877190Y-100163261D01*
X160829571Y-100068023D01*
X160829571Y-99687071D01*
X160877190Y-99591833D01*
X160972428Y-99544214D01*
X161162904Y-99544214D01*
X161258142Y-99591833D01*
X161305761Y-99687071D01*
X161305761Y-99782309D01*
X160829571Y-99877547D01*
X162162904Y-99544214D02*
X162162904Y-100353738D01*
X162115285Y-100448976D01*
X162067666Y-100496595D01*
X161972428Y-100544214D01*
X161829571Y-100544214D01*
X161734333Y-100496595D01*
X162162904Y-100163261D02*
X162067666Y-100210880D01*
X161877190Y-100210880D01*
X161781952Y-100163261D01*
X161734333Y-100115642D01*
X161686714Y-100020404D01*
X161686714Y-99734690D01*
X161734333Y-99639452D01*
X161781952Y-99591833D01*
X161877190Y-99544214D01*
X162067666Y-99544214D01*
X162162904Y-99591833D01*
X163162904Y-100210880D02*
X162591476Y-100210880D01*
X162877190Y-100210880D02*
X162877190Y-99210880D01*
X162781952Y-99353738D01*
X162686714Y-99448976D01*
X162591476Y-99496595D01*
X165323780Y-105199771D02*
X165323780Y-105675961D01*
X164323780Y-105675961D01*
X164323780Y-104961676D02*
X164323780Y-104295009D01*
X165323780Y-104723580D01*
X164752352Y-103771200D02*
X164704733Y-103866438D01*
X164657114Y-103914057D01*
X164561876Y-103961676D01*
X164514257Y-103961676D01*
X164419019Y-103914057D01*
X164371400Y-103866438D01*
X164323780Y-103771200D01*
X164323780Y-103580723D01*
X164371400Y-103485485D01*
X164419019Y-103437866D01*
X164514257Y-103390247D01*
X164561876Y-103390247D01*
X164657114Y-103437866D01*
X164704733Y-103485485D01*
X164752352Y-103580723D01*
X164752352Y-103771200D01*
X164799971Y-103866438D01*
X164847590Y-103914057D01*
X164942828Y-103961676D01*
X165133304Y-103961676D01*
X165228542Y-103914057D01*
X165276161Y-103866438D01*
X165323780Y-103771200D01*
X165323780Y-103580723D01*
X165276161Y-103485485D01*
X165228542Y-103437866D01*
X165133304Y-103390247D01*
X164942828Y-103390247D01*
X164847590Y-103437866D01*
X164799971Y-103485485D01*
X164752352Y-103580723D01*
X165323780Y-102961676D02*
X164323780Y-102961676D01*
X165038066Y-102628342D01*
X164323780Y-102295009D01*
X165323780Y-102295009D01*
X164323780Y-101628342D02*
X164323780Y-101533104D01*
X164371400Y-101437866D01*
X164419019Y-101390247D01*
X164514257Y-101342628D01*
X164704733Y-101295009D01*
X164942828Y-101295009D01*
X165133304Y-101342628D01*
X165228542Y-101390247D01*
X165276161Y-101437866D01*
X165323780Y-101533104D01*
X165323780Y-101628342D01*
X165276161Y-101723580D01*
X165228542Y-101771200D01*
X165133304Y-101818819D01*
X164942828Y-101866438D01*
X164704733Y-101866438D01*
X164514257Y-101818819D01*
X164419019Y-101771200D01*
X164371400Y-101723580D01*
X164323780Y-101628342D01*
X164323780Y-100390247D02*
X164323780Y-100866438D01*
X164799971Y-100914057D01*
X164752352Y-100866438D01*
X164704733Y-100771200D01*
X164704733Y-100533104D01*
X164752352Y-100437866D01*
X164799971Y-100390247D01*
X164895209Y-100342628D01*
X165133304Y-100342628D01*
X165228542Y-100390247D01*
X165276161Y-100437866D01*
X165323780Y-100533104D01*
X165323780Y-100771200D01*
X165276161Y-100866438D01*
X165228542Y-100914057D01*
X165228542Y-99342628D02*
X165276161Y-99390247D01*
X165323780Y-99533104D01*
X165323780Y-99628342D01*
X165276161Y-99771200D01*
X165180923Y-99866438D01*
X165085685Y-99914057D01*
X164895209Y-99961676D01*
X164752352Y-99961676D01*
X164561876Y-99914057D01*
X164466638Y-99866438D01*
X164371400Y-99771200D01*
X164323780Y-99628342D01*
X164323780Y-99533104D01*
X164371400Y-99390247D01*
X164419019Y-99342628D01*
X165323780Y-98914057D02*
X164323780Y-98914057D01*
X164323780Y-98675961D01*
X164371400Y-98533104D01*
X164466638Y-98437866D01*
X164561876Y-98390247D01*
X164752352Y-98342628D01*
X164895209Y-98342628D01*
X165085685Y-98390247D01*
X165180923Y-98437866D01*
X165276161Y-98533104D01*
X165323780Y-98675961D01*
X165323780Y-98914057D01*
X164323780Y-98056914D02*
X164323780Y-97485485D01*
X165323780Y-97771200D02*
X164323780Y-97771200D01*
X164942828Y-97152152D02*
X164942828Y-96390247D01*
X164323780Y-96056914D02*
X164323780Y-95485485D01*
X165323780Y-95771200D02*
X164323780Y-95771200D01*
X165323780Y-94580723D02*
X164847590Y-94914057D01*
X165323780Y-95152152D02*
X164323780Y-95152152D01*
X164323780Y-94771200D01*
X164371400Y-94675961D01*
X164419019Y-94628342D01*
X164514257Y-94580723D01*
X164657114Y-94580723D01*
X164752352Y-94628342D01*
X164799971Y-94675961D01*
X164847590Y-94771200D01*
X164847590Y-95152152D01*
X165100095Y-87544380D02*
X165100095Y-88353904D01*
X165147714Y-88449142D01*
X165195333Y-88496761D01*
X165290571Y-88544380D01*
X165481047Y-88544380D01*
X165576285Y-88496761D01*
X165623904Y-88449142D01*
X165671523Y-88353904D01*
X165671523Y-87544380D01*
X166100095Y-87639619D02*
X166147714Y-87592000D01*
X166242952Y-87544380D01*
X166481047Y-87544380D01*
X166576285Y-87592000D01*
X166623904Y-87639619D01*
X166671523Y-87734857D01*
X166671523Y-87830095D01*
X166623904Y-87972952D01*
X166052476Y-88544380D01*
X166671523Y-88544380D01*
X178284190Y-81438690D02*
X178760380Y-81438690D01*
X177760380Y-81772023D02*
X178284190Y-81438690D01*
X177760380Y-81105357D01*
X177855619Y-80819642D02*
X177808000Y-80772023D01*
X177760380Y-80676785D01*
X177760380Y-80438690D01*
X177808000Y-80343452D01*
X177855619Y-80295833D01*
X177950857Y-80248214D01*
X178046095Y-80248214D01*
X178188952Y-80295833D01*
X178760380Y-80867261D01*
X178760380Y-80248214D01*
M02*
